SplineFontDB: 2.0
FontName: Purisa
FullName: Purisa
FamilyName: Purisa
Weight: Medium
Copyright: Purisa, Thai handwriting outline font.\n\nCopyright (C) 2003, 2004 Poonlap Veerathanabutr <poonlap@linux.thai.net>
Comments: 2003-11-27: Created.\n\nAcknowlegement:\nHanwriting by Ms.Purisa Cholasueksa. \nCo-operated by Mr.Teeratep Sosakul.\n\n2004-02-14:\nModified most characters. Make numbers bigger.
Version: 002.007: 2007-12-07
ItalicAngle: 0
UnderlinePosition: -100
UnderlineWidth: 50
Ascent: 800
Descent: 200
NeedsXUIDChange: 1
FSType: 12
OS2Version: 0
OS2_WeightWidthSlopeOnly: 0
OS2_UseTypoMetrics: 0
CreationTime: 1153666222
ModificationTime: 1197195121
PfmFamily: 65
TTFWeight: 300
TTFWidth: 5
LineGap: 113
VLineGap: 0
Panose: 2 0 6 3 0 0 0 0 0 0
OS2TypoAscent: 0
OS2TypoAOffset: 1
OS2TypoDescent: 0
OS2TypoDOffset: 1
OS2TypoLinegap: 0
OS2WinAscent: 0
OS2WinAOffset: 1
OS2WinDescent: 0
OS2WinDOffset: 1
HheadAscent: 0
HheadAOffset: 1
HheadDescent: 0
HheadDOffset: 1
OS2Vendor: 'PfEd'
Lookup: 6 0 0 "'ccmp' Glyph Composition/Decomposition in Thai lookup 0"  {"'ccmp' Glyph Composition/Decomposition in Thai lookup 0 subtable"  } ['ccmp' ('thai' <'KUY ' 'PAL ' 'THA ' 'dflt' > ) ]
Lookup: 6 0 0 "'ccmp' Glyph Composition/Decomposition in Thai lookup 1"  {"'ccmp' Glyph Composition/Decomposition in Thai lookup 1 subtable"  } ['ccmp' ('thai' <'KUY ' 'PAL ' 'THA ' 'dflt' > ) ]
Lookup: 4 8 1 "'liga' Standard Ligatures lookup 2"  {"'liga' Standard Ligatures lookup 2 subtable"  } ['liga' ('DFLT' <'dflt' > ) ]
Lookup: 5 0 0 "Required Feature in Thai lookup 3"  {"Required Feature in Thai lookup 3 subtable"  } [' RQD' ('thai' <'PAL ' > ) ]
Lookup: 1 0 0 "Single Substitution lookup 4"  {"Single Substitution lookup 4 subtable"  } []
Lookup: 2 0 0 "Multiple Substitution lookup 5"  {"Multiple Substitution lookup 5 subtable"  } []
Lookup: 1 0 0 "Single Substitution lookup 6"  {"Single Substitution lookup 6 subtable"  } []

StartChar: uni0E34
Encoding: 147 3636 0
Width: 0
Flags: W
HStem: 584 45<-374.517 -312.592 -312.592 -230.516> 726 40<-330.691 -223.233>
VStem: -465 400<572 621 572 621 621 621>
AnchorPoint: "AboveMark" -97 780 basemark 0
AnchorPoint: "AboveBase" -62 560 mark 0
Back
-319 757 m 0
 -298 763 -264 767 -243 765 c 0
 -193 761 -131 733 -127 713 c 0
 -125 704 -116 688 -106 676 c 0
 -91 659 -65 591 -65 572 c 0
 -65 569 -74 566 -85 566 c 0
 -96 566 -105 570 -105 575 c 0
 -105 580 -151 584 -223 584 c 0
 -379 585 -448 593 -461 609 c 0
 -468 619 -465 633 -448 661 c 0
 -423 703 -375 739 -319 757 c 0
-217 714 m 0
 -270 737 -307 729 -362 682 c 2
 -411 639 l 1
 -377 633 l 2
 -357 629 -330 628 -315 630 c 0
 -300 633 -252 631 -210 626 c 0
 -168 621 -131 618 -129 619 c 0
 -121 626 -192 703 -217 714 c 0
EndSplineSet
Fore
-465 621 m 0
 -465 655 -388 766 -255 766 c 0
 -205 766 -131 735 -127 713 c 0
 -125 704 -116 688 -106 676 c 0
 -91 659 -65 591 -65 572 c 0
 -65 569 -74 566 -85 566 c 0
 -96 566 -105 570 -105 575 c 0
 -105 580 -151 584 -223 584 c 0
 -437 585 -465 599 -465 621 c 0
-131 619 m 0
 -129 619 -128 619 -128 621 c 0
 -128 634 -193 704 -217 714 c 0
 -236 722 -253 726 -269 726 c 0
 -299 726 -327 712 -362 682 c 2
 -411 639 l 1
 -377 633 l 2
 -364 630 -347 629 -333 629 c 0
 -312 629 -317 631 -292 631 c 0
 -239 631 -157 619 -131 619 c 0
EndSplineSet
EndChar
StartChar: uni0E35
Encoding: 148 3637 1
Width: 0
Flags: W
HStem: 591 90<-136.95 -91.6481> 647 51<-404.771 -240.962> 731 39<-374.215 -231.957>
VStem: -523 104<664.5 706.994> -523 465<657.835 680.54 676 814 676 676>
AnchorPoint: "AboveMark" -83 780 basemark 0
AnchorPoint: "AboveBase" -62 560 mark 0
Back
-105 799 m 0
 -100 808 -87 814 -74 814 c 2
 -52 814 l 5
 -58 725 l 2
 -66 618 -72 595 -92 591 c 0
 -100 589 -122 600 -139 614 c 0
 -156 628 -171 640 -172 641 c 0
 -173 641 -249 644 -342 647 c 0
 -488 651 -512 654 -520 666 c 0
 -527 677 -524 686 -503 706 c 0
 -489 720 -473 731 -467 731 c 0
 -461 731 -451 736 -446 742 c 0
 -441 748 -409 758 -376 764 c 0
 -282 780 -223 766 -167 713 c 0
 -143 690 -123 677 -119 682 c 0
 -115 687 -113 712 -113 738 c 0
 -113 763 -110 791 -105 799 c 0
-254 719 m 0
 -289 733 -336 735 -356 723 c 0
 -364 718 -381 714 -394 714 c 0
 -408 714 -419 711 -419 706 c 0
 -419 701 -380 698 -321 698 c 0
 -266 698 -222 700 -222 702 c 0
 -222 705 -237 712 -254 719 c 0
EndSplineSet
Fore
-122 681 m 0xb0
 -117 681 -113 693 -113 738 c 0
 -113 763 -110 791 -105 799 c 0
 -100 808 -87 814 -74 814 c 2
 -52 814 l 1
 -58 725 l 2
 -65 637 -69 591 -94 591 c 0xa8
 -117 591 -172 641 -172 641 c 1
 -173 641 -249 644 -342 647 c 0x68
 -495 651 -523 653 -523 676 c 0
 -523 694 -477 731 -467 731 c 0
 -445 731 -466 748 -376 764 c 0
 -352 768 -330 770 -310 770 c 0
 -186 770 -153 681 -122 681 c 0xb0
-222 702 m 0
 -222 707 -270 731 -317 731 c 0
 -361 731 -355 714 -394 714 c 0
 -408 714 -419 711 -419 706 c 0
 -419 701 -380 698 -321 698 c 0x70
 -266 698 -222 700 -222 702 c 0
EndSplineSet
EndChar
StartChar: uni0E36
Encoding: 149 3638 2
Width: 0
Flags: W
HStem: 546 21G<-253 -234> 571 46<-169.604 -136.339> 589 36<-506.657 -427.106> 663 45<-169.593 -129.52> 708 40<-436.656 -329.18>
VStem: -556 467<613 665 613 665 613 613> -129 40<633.582 683.5>
AnchorPoint: "AboveMark" -148 780 basemark 0
AnchorPoint: "AboveBase" -92 560 mark 0
Back
-472 718 m 0
 -430 743 -415 748 -380 748 c 0
 -327 748 -293 728 -266 682 c 0
 -255 663 -243 647 -239 647 c 0
 -234 647 -215 661 -194 679 c 0
 -162 705 -151 710 -127 708 c 0
 -101 706 -96 702 -91 681 c 0
 -86 662 -89 649 -100 628 c 0
 -124 582 -157 560 -175 577 c 0
 -179 580 -189 586 -198 588 c 0
 -212 593 -217 589 -223 569 c 0
 -235 537 -265 539 -271 573 c 0
 -274 596 -276 597 -313 595 c 0
 -335 594 -397 592 -453 591 c 2
 -553 589 l 1
 -556 613 l 2
 -557 626 -553 642 -547 648 c 0
 -542 654 -534 665 -529 673 c 0
 -525 681 -499 701 -472 718 c 0
-316 687 m 0
 -335 705 -345 709 -373 708 c 0
 -432 707 -444 702 -480 664 c 0
 -514 629 -514 628 -495 625 c 0
 -485 624 -435 627 -385 632 c 0
 -284 644 -278 648 -316 687 c 0
-136 639 m 0
 -125 662 -126 663 -144 663 c 0
 -165 663 -175 647 -167 628 c 0
 -160 610 -149 614 -136 639 c 0
EndSplineSet
Fore
-136 708 m 0x9c
 -109 708 -89 704 -89 665 c 0
 -89 635 -129 571 -161 571 c 0xdc
 -173 571 -188 590 -207 590 c 0
 -225 590 -220 546 -248 546 c 0
 -258 546 -268 555 -271 573 c 0
 -273 591 -275 596 -294 596 c 0
 -310 596 -326 593 -453 591 c 2
 -553 589 l 1xbc
 -556 613 l 2
 -558 642 -545 648 -529 673 c 0
 -525 681 -499 701 -472 718 c 0
 -430 743 -415 748 -380 748 c 0
 -327 748 -293 728 -266 682 c 0
 -255 663 -243 647 -239 647 c 0
 -221 647 -178 708 -136 708 c 0x9c
-508 631 m 0
 -508 626 -496 625 -489 625 c 0xb8
 -472 625 -429 628 -385 632 c 0
 -320 640 -294 644 -294 657 c 0
 -294 664 -302 673 -316 687 c 0
 -333 703 -343 708 -366 708 c 0
 -434 708 -446 700 -480 664 c 0
 -499 644 -508 635 -508 631 c 0
-156 617 m 0xda
 -145 617 -129 651 -129 658 c 0
 -129 663 -134 663 -144 663 c 0
 -160 663 -170 654 -170 641 c 0
 -170 632 -164 617 -156 617 c 0xda
EndSplineSet
EndChar
StartChar: uni0E37
Encoding: 150 3639 3
Width: 0
Flags: W
HStem: 587 264<-222.366 -216.811 -232 -102 -211 -211> 599 45<-494.932 -296.364> 614 30<-313.646 -296.003> 724 42<-460.299 -331.621>
VStem: -551 55<629.247 693.203> -296 96<645.246 692.698> -251 70<773.625 842.794> -132 71<652.721 804.915>
AnchorPoint: "AboveMark" -156 780 basemark 0
AnchorPoint: "AboveBase" -62 560 mark 0
Back
-123 833 m 0
 -107 856 -100 856 -78 837 c 0
 -66 826 -61 803 -61 748 c 0
 -61 671 -76 637 -105 648 c 0
 -128 655 -142 805 -123 833 c 0
-231 843 m 0
 -211 855 -205 854 -189 837 c 0
 -178 825 -178 808 -188 749 c 0
 -194 709 -200 663 -200 646 c 0
 -200 630 -203 609 -206 601 c 0
 -215 582 -249 582 -262 602 c 0
 -269 614 -280 616 -308 611 c 0
 -443 587 -543 599 -550 640 c 0
 -555 675 -522 724 -478 746 c 0
 -413 779 -331 771 -279 727 c 2
 -256 709 l 1
 -251 772 l 2
 -247 810 -239 839 -231 843 c 0
-327 700 m 0
 -376 731 -413 732 -459 704 c 0
 -484 689 -498 674 -496 664 c 0
 -493 650 -478 647 -394 645 c 0
 -303 642 -296 643 -296 661 c 0
 -296 672 -310 689 -327 700 c 0
EndSplineSet
Fore
-132 776 m 0x89
 -132 837 -112 851 -102 851 c 0
 -96 851 -88 846 -78 837 c 0
 -66 826 -61 803 -61 748 c 0
 -61 680 -73 646 -95 646 c 0
 -98 646 -101 647 -105 648 c 0
 -120 653 -132 722 -132 776 c 0x89
-551 647 m 0
 -551 695 -492 766 -392 766 c 0x5d
 -350 766 -310 753 -279 727 c 2
 -256 709 l 1
 -251 772 l 2
 -247 810 -239 839 -231 843 c 0
 -222 848 -216 851 -211 851 c 0
 -206 851 -181 843 -181 810 c 0x8b
 -181 777 -200 687 -200 646 c 0
 -200 630 -203 609 -206 601 c 0
 -210 592 -221 587 -232 587 c 0x8d
 -265 587 -256 614 -285 614 c 0x2d
 -304 614 -363 599 -433 599 c 0x4d
 -492 599 -551 608 -551 647 c 0
-296 661 m 0
 -296 686 -353 724 -397 724 c 0
 -442 724 -496 683 -496 666 c 0
 -496 653 -487 644 -338 644 c 0
 -300 644 -296 648 -296 661 c 0
EndSplineSet
EndChar
StartChar: uni0E38
Encoding: 151 3640 4
Width: 0
Flags: W
HStem: -133 26<-288.358 -228> -68 30<-284.034 -228.043>
VStem: -323 34<-122.464 -71.5022> -220 34<-284.189 -200 -200 -132.029>
AnchorPoint: "BelowBase" -182 -38 mark 0
Back
-281 -50 m 0
 -250 -28 -216 -36 -199 -71 c 0
 -191 -88 -188 -113 -186 -191 c 2
 -183 -289 l 1
 -197 -285 l 2
 -204 -282 -213 -277 -215 -274 c 0
 -218 -270 -220 -237 -220 -200 c 2
 -220 -132 l 1
 -267 -133 l 2
 -314 -133 -315 -133 -321 -118 c 0
 -325 -105 -324 -98 -313 -82 c 0
 -306 -72 -291 -57 -281 -50 c 0
-228 -87 m 0
 -228 -71 -231 -69 -246 -68 c 0
 -266 -66 -274 -70 -283 -88 c 0
 -293 -107 -292 -108 -259 -106 c 0
 -230 -104 -228 -103 -228 -87 c 0
EndSplineSet
Fore
-323 -106 m 0
 -323 -87 -283 -38 -246 -38 c 0
 -227 -38 -210 -49 -199 -71 c 0
 -191 -88 -188 -113 -186 -191 c 2
 -183 -289 l 1
 -197 -285 l 2
 -218 -276 -220 -279 -220 -200 c 2
 -220 -132 l 1
 -267 -133 l 2
 -294 -133 -323 -139 -323 -106 c 0
-276 -107 m 0
 -228 -107 -228 -102 -228 -87 c 0
 -228 -74 -229 -68 -254 -68 c 0
 -282 -68 -289 -102 -289 -102 c 1
 -289 -106 -285 -107 -276 -107 c 0
EndSplineSet
EndChar
StartChar: uni0E39
Encoding: 152 3641 5
Width: 0
Flags: W
HStem: -125 18<-328.688 -294.528> -69 18<-323.932 -280.475>
VStem: -369 35<-106.702 -72.7546>
AnchorPoint: "BelowBase" -182 -38 mark 0
Back
-332 -62 m 0
 -322 -56 -306 -51 -296 -51 c 0
 -276 -51 -247 -70 -247 -84 c 0
 -247 -88 -244 -92 -241 -92 c 0
 -238 -92 -235 -99 -235 -106 c 0
 -235 -114 -232 -135 -228 -152 c 2
 -221 -183 l 1
 -214 -165 l 2
 -211 -155 -206 -129 -203 -107 c 0
 -199 -61 -189 -44 -173 -57 c 0
 -162 -66 -162 -86 -173 -137 c 0
 -184 -187 -204 -237 -216 -241 c 0
 -229 -246 -247 -224 -247 -203 c 0
 -247 -177 -264 -115 -272 -115 c 0
 -275 -115 -287 -119 -298 -122 c 0
 -320 -131 -362 -121 -368 -106 c 0
 -372 -96 -356 -77 -332 -62 c 0
-290 -73 m 0
 -298 -67 -305 -68 -321 -75 c 0
 -350 -90 -324 -116 -294 -104 c 0
 -277 -97 -276 -83 -290 -73 c 0
EndSplineSet
Fore
-369 -103 m 0
 -369 -86 -328 -51 -296 -51 c 0
 -276 -51 -247 -70 -247 -84 c 0
 -247 -88 -244 -92 -241 -92 c 0
 -238 -92 -235 -99 -235 -106 c 0
 -235 -114 -232 -135 -228 -152 c 2
 -221 -183 l 1
 -214 -165 l 2
 -201 -120 -204 -53 -183 -53 c 0
 -176 -53 -165 -59 -165 -81 c 0
 -165 -117 -195 -242 -220 -242 c 0
 -232 -242 -247 -222 -247 -203 c 0
 -247 -177 -264 -115 -272 -115 c 0
 -279 -115 -299 -125 -318 -125 c 0
 -338 -125 -369 -116 -369 -103 c 0
-280 -88 m 0
 -280 -81 -290 -69 -301 -69 c 0
 -310 -69 -334 -78 -334 -91 c 0
 -334 -99 -323 -107 -309 -107 c 0
 -296 -107 -280 -100 -280 -88 c 0
EndSplineSet
EndChar
StartChar: uni0E3A
Encoding: 153 3642 6
Width: 0
Flags: W
HStem: -199 145<-301.435 -229.486>
VStem: -341 145<-164.965 -93.2739>
AnchorPoint: "BelowBase" -182 -38 mark 0
Back
-266 -57 m 4
 -167 -32 -179 -179 -268 -197 c 4
 -380 -218 -349 -77 -266 -57 c 4
EndSplineSet
Fore
-341 -151 m 0
 -341 -107 -300 -54 -245 -54 c 0
 -212 -54 -196 -78 -196 -107 c 0
 -196 -148 -228 -199 -289 -199 c 0
 -325 -199 -341 -178 -341 -151 c 0
EndSplineSet
EndChar
StartChar: uni0E48
Encoding: 163 3656 7
Width: 0
Flags: W
HStem: 843 127<-121 -89.133>
VStem: -127 38<852.541 870.023 870.023 906.5 906.5 970>
AnchorPoint: "AboveMark" -108 780 mark 0
Back
-121 970 m 1
 -89 970 l 1
 -89 877 l 0
 -89 862 -79 844 -127 843 c 1
 -121 970 l 1
EndSplineSet
Fore
-121 970 m 1
 -89 970 l 1
 -89 877 l 2
 -89 873 -88 868 -88 863 c 0
 -88 853 -93 844 -127 843 c 1
 -121 970 l 1
EndSplineSet
Substitution2: "Single Substitution lookup 10 subtable" uni0E48.low
MultipleSubs2: "Multiple Substitution lookup 9 subtable" uni0E4D uni0E48
EndChar
StartChar: uni0E49
Encoding: 164 3657 8
Width: 0
Flags: W
HStem: 786 219<-200 6 6 6> 969 28<-141.617 -123.464>
VStem: -170 28<931.997 968.858> -115 27<928.063 968.359>
AnchorPoint: "AboveMark" -100 780 mark 0
Back
-11 996 m 0
 -4 1007 13 1008 17 999 c 4
 21 987 13 973 -17 943 c 0
 -34 925 -49 909 -49 906 c 0
 -49 904 -65 887 -85 870 c 0
 -142 819 -149 813 -156 813 c 0
 -159 813 -169 807 -177 799 c 0
 -188 789 -196 785 -202 786 c 0
 -223 789 -211 819 -169 864 c 2
 -147 889 l 1
 -153 901 l 2
 -157 908 -162 918 -165 923 c 0
 -171 934 -171 986 -165 992 c 0
 -163 995 -151 997 -139 997 c 0
 -119 997 -116 996 -103 982 c 0
 -89 969 -88 966 -88 945 c 0
 -88 930 -90 919 -95 910 c 0
 -106 892 -99 894 -85 912 c 0
 -79 919 -61 940 -46 956 c 0
 -30 973 -14 991 -11 996 c 0
-125 960 m 0
 -140 972 -142 971 -142 959 c 0
 -142 945 -131 920 -125 922 c 0
 -123 923 -119 930 -117 937 c 0
 -114 949 -114 951 -125 960 c 0
EndSplineSet
Fore
-88 945 m 0x70
 -88 911 -100 905 -100 898 c 2
 -100 897 l 1
 -97 897 -13 992 -11 996 c 0
 -7 1002 -0 1005 6 1005 c 0
 12 1005 18 1003 18 993 c 0
 18 968 -49 916 -49 906 c 0
 -49 902 -143 813 -156 813 c 0
 -166 813 -186 786 -200 786 c 0xb0
 -205 786 -212 788 -212 797 c 0
 -212 810 -197 834 -169 864 c 2
 -147 889 l 1
 -153 901 l 2
 -166 924 -170 927 -170 959 c 0
 -170 974 -168 989 -165 992 c 0
 -163 995 -151 997 -139 997 c 0
 -119 997 -116 996 -103 982 c 0
 -89 969 -88 966 -88 945 c 0x70
-115 947 m 0
 -115 955 -135 969 -139 969 c 0x70
 -141 969 -142 965 -142 959 c 0
 -142 946 -132 922 -126 922 c 0
 -122 922 -115 941 -115 947 c 0
EndSplineSet
Substitution2: "Single Substitution lookup 10 subtable" uni0E49.low
MultipleSubs2: "Multiple Substitution lookup 9 subtable" uni0E4D uni0E49
EndChar
StartChar: uni0E4B
Encoding: 166 3659 9
Width: 0
Flags: W
HStem: 821 176<-105.727 -89> 897 27<-158.326 -110 -78.6315 -12>
VStem: -117 28<821 839> -106 27<927 996.9>
AnchorPoint: "AboveMark" -103 780 mark 0
Back
-109 993 m 0
 -108 996 -102 997 -96 997 c 0
 -84 995 -80 985 -79 948 c 2
 -79 926 l 1
 -45 925 l 1
 -12 924 l 1
 -12 911 l 1
 -12 899 l 1
 -45 897 l 2
 -84 896 -83 911 -87 839 c 6
 -89 821 l 1
 -103 821 l 1
 -117 821 l 1
 -116 841 l 2
 -115 867 -114 879 -113 886 c 2
 -110 898 l 1
 -133 895 l 2
 -146 894 -163 889 -171 884 c 0
 -192 872 -202 874 -203 891 c 0
 -205 903 -203 905 -185 914 c 0
 -173 920 -155 924 -136 925 c 2
 -106 927 l 1
 -109 958 l 2
 -111 975 -111 991 -109 993 c 0
EndSplineSet
Fore
-109 958 m 2x90
 -113 994 -111 997 -96 997 c 1x90
 -84 995 -80 985 -79 948 c 2
 -79 926 l 1
 -12 924 l 1
 -12 899 l 1
 -45 897 l 2x50
 -84 896 -83 911 -87 839 c 2
 -89 821 l 1
 -117 821 l 1xa0
 -116 841 l 2
 -115 867 -114 879 -113 886 c 2
 -110 898 l 1
 -133 895 l 2
 -172 892 -201 858 -203 891 c 0
 -205 903 -203 905 -185 914 c 0
 -173 920 -155 924 -136 925 c 2
 -106 927 l 1
 -109 958 l 2x90
EndSplineSet
Substitution2: "Single Substitution lookup 10 subtable" uni0E4B.low
MultipleSubs2: "Multiple Substitution lookup 9 subtable" uni0E4D uni0E4B
EndChar
StartChar: uni0E4C
Encoding: 167 3660 10
Width: 0
Flags: W
HStem: 824 228<-131 14 14 14> 824 19<-139.997 -102.555> 911 49<-50.0453 -19.7198> 941 33<-134.699 -51.6286>
VStem: -187 215<879 1038 879 879> -187 39<869.221 925.157> -94 23<845.687 864.155>
AnchorPoint: "AboveMark" -60 780 mark 0
Back
1 1045 m 0
 9 1055 23 1054 27 1042 c 0
 33 1026 -13 911 -25 911 c 0
 -28 911 -39 918 -48 926 c 0
 -74 948 -104 945 -136 918 c 0
 -157 900 -150 889 -115 886 c 0
 -76 882 -71 879 -71 862 c 4
 -71 843 -89 828 -117 825 c 0
 -137 822 -145 824 -162 837 c 0
 -186 856 -192 875 -182 901 c 0
 -172 925 -127 968 -108 973 c 0
 -92 977 -53 971 -43 963 c 0
 -35 956 -34 958 -17 1003 c 0
 -10 1021 -2 1041 1 1045 c 0
-94 855 m 0
 -94 866 -109 870 -121 862 c 0
 -129 856 -129 854 -122 848 c 0
 -112 839 -94 844 -94 855 c 0
EndSplineSet
Fore
-131 824 m 0x86
 -153 824 -187 851 -187 879 c 0
 -187 914 -131 974 -95 974 c 0x18
 -76 974 -51 969 -43 963 c 0
 -41 961 -39 960 -38 960 c 0x28
 -29 960 -8 1033 1 1045 c 0
 5 1050 10 1052 14 1052 c 0x88
 21 1052 28 1047 28 1038 c 0
 28 1012 -14 911 -25 911 c 0x28
 -37 911 -53 941 -85 941 c 0x18
 -112 941 -148 914 -148 901 c 0
 -148 893 -137 888 -115 886 c 0
 -76 882 -71 879 -71 862 c 0
 -71 831 -113 824 -131 824 c 0x86
-127 855 m 0
 -127 853 -120 843 -109 843 c 0
 -101 843 -94 848 -94 855 c 0x42
 -94 862 -100 866 -108 866 c 0
 -117 866 -127 859 -127 855 c 0
EndSplineSet
Substitution2: "Single Substitution lookup 10 subtable" uni0E4C.low
MultipleSubs2: "Multiple Substitution lookup 9 subtable" uni0E4D uni0E4C
EndChar
StartChar: exclam
Encoding: 1 33 12
Width: 519
Flags: W
HStem: 532 20G<225.5 239.5>
VStem: 201 143<50 540 50 50>
Back
244 119 m 0
 263 127 302 121 311 110 c 0
 322 96 321 70 309 38 c 0
 296 3 278 -6 253 8 c 0
 243 13 232 17 229 17 c 0
 217 17 201 36 201 50 c 0
 201 69 228 112 244 119 c 0
217 550 m 0
 219 552 233 553 248 551 c 0
 262 549 290 545 309 544 c 2
 344 540 l 1
 341 503 l 2
 339 482 330 445 322 421 c 0
 308 381 288 301 279 251 c 0
 275 228 267 219 254 226 c 0
 244 231 240 255 232 361 c 0
 231 382 227 412 225 429 c 0
 222 446 221 472 223 486 c 0
 224 502 223 513 219 516 c 0
 211 520 210 543 217 550 c 0
EndSplineSet
Fore
274 2 m 0
 260 2 238 17 229 17 c 0
 217 17 201 36 201 50 c 0
 201 69 228 112 244 119 c 0
 250 122 258 123 267 123 c 0
 315 123 319 100 319 83 c 0
 319 60 304 2 274 2 c 0
212 534 m 0
 212 552 219 552 232 552 c 0
 247 552 278 546 309 544 c 2
 344 540 l 1
 341 503 l 2
 336 447 302 376 279 251 c 0
 276 233 270 224 262 224 c 0
 235 224 242 284 225 429 c 0
 223 440 222 455 222 468 c 0
 222 485 227 510 219 516 c 0
 215 518 212 526 212 534 c 0
EndSplineSet
EndChar
StartChar: quotedbl
Encoding: 2 34 13
Width: 572
Flags: W
HStem: 470 265<330.332 353.168 254 328 328 328>
VStem: 186 194<522 652 522 652 652 652> 186 99<517.273 592.737> 308 72<522 677>
Back
194 695 m 0
 215 722 243 710 254 669 c 0
 259 649 269 615 274 594 c 0
 300 503 279 449 229 478 c 0
 201 494 172 667 194 695 c 0
311 717 m 0
 321 744 336 741 357 708 c 0
 367 691 376 641 378 577 c 0
 382 488 379 474 363 470 c 0
 351 468 338 477 330 492 c 0
 315 522 301 688 311 717 c 0
EndSplineSet
Fore
194 695 m 0xc0
 202 705 210 709 218 709 c 0
 247 709 258 663 274 594 c 0
 282 567 285 544 285 525 c 0xa0
 285 491 274 470 254 470 c 0
 246 470 238 473 229 478 c 0
 208 490 186 591 186 652 c 0
 186 672 189 688 194 695 c 0xc0
308 677 m 0x90
 308 704 311 735 328 735 c 0
 336 735 345 726 357 708 c 0
 374 678 380 579 380 522 c 0xc0
 380 485 376 470 360 470 c 0
 349 470 337 478 330 492 c 0
 319 515 308 618 308 677 c 0x90
EndSplineSet
EndChar
StartChar: numbersign
Encoding: 3 35 14
Width: 655
Flags: W
HStem: 145 60<88.8835 196.573> 378 59<216.062 247.415> 407 59<356.532 394.819> 422 72<485.149 486.354 486.354 524.104>
VStem: 75 494<163 260 163 217.945> 264 54<467.22 515 515 569.945> 359 57<135.25 164.131>
Back
428 537 m 0
 437.996 572.441 443.863 582.282 457.609 582.282 c 0
 458.989 582.282 460.449 582.182 462 582 c 0
 476.925 579.512 481.537 574.275 481.537 552.035 c 0
 481.537 537.902 480.335 530.836 480.335 516.704 c 0
 480.335 495.297 485.058 494 506 494 c 0
 507.292 494.072 508.549 494.108 509.768 494.108 c 0
 522.987 494.108 537.449 489.814 537.449 472.641 c 0
 537.449 451.67 509.2 421.936 490.587 421.936 c 0
 488.599 421.936 486.722 422.275 485 423 c 0
 483.225 423.592 481.602 423.899 480.111 423.899 c 0
 471.52 423.899 467.26 413.709 463 389 c 0
 460 367 453 329 449 305 c 2
 441 261 l 1
 506 267 l 2
 527.373 268.973 541.826 270.297 551.457 270.297 c 0
 565.579 270.297 569.334 267.45 569.334 259.628 c 0
 569.334 256.56 568.756 252.727 568 248 c 0
 565 227 555 220 504 207 c 0
 422 185 417 182 416 131 c 0
 415 58 405 35 373 31 c 2
 344 28 l 1
 351 97 l 1
 359 165 l 1
 324 165 l 2
 273 165 266 156 253 82 c 0
 242.944 20.8931 230.496 -8.50338 214.265 -8.50338 c 0
 209.513 -8.50338 204.436 -5.98289 199 -1 c 0
 191 5.66667 187.444 15 187.444 36.1852 c 0
 187.444 46.7778 188.333 60.3333 190 78 c 2
 197 145 l 1
 140 145 l 2
 108 145 80 149 77 155 c 0
 75.4897 157.517 74.7714 160.114 74.7714 162.739 c 0
 74.7714 180.976 109.419 200.629 154 205 c 0
 210 211 217 219 229 286 c 0
 232 309 238 339 242 353 c 2
 248 378 l 1
 175 370 l 2
 151.333 367.667 135.333 366.222 124.519 366.222 c 0
 102.889 366.222 102 372 102 388 c 0
 102 408 111 414 148 425 c 0
 174 432 205 437 218 437 c 0
 250 437 256 448 264 515 c 0
 269 560 274 569 292 571 c 0
 294.968 571.424 297.556 571.688 299.821 571.688 c 0
 313.585 571.688 315.424 561.934 318 519 c 0
 320.463 474.662 320.904 466.055 337.589 466.055 c 0
 341.225 466.055 345.632 466.463 351 467 c 4
 400 473 414 485 428 537 c 0
387 312 m 0
 392.922 346.14 396.539 368.872 396.539 383.494 c 0
 396.539 400.876 391.428 406.798 379.005 406.798 c 0
 371.88 406.798 362.35 404.85 350 402 c 0
 304 392 305 393 289 272 c 2
 282 217 l 1
 312 223 l 2
 328 227 349 232 358 235 c 0
 370 238 378 261 387 312 c 0
EndSplineSet
Fore
338 466 m 0xa4
 456 466 412 582 458 582 c 0
 480 582 482 567 482 552 c 0
 482 538 480 531 480 517 c 0
 480 493 487 494 510 494 c 0
 523 494 537 490 537 473 c 0
 537 452 509 422 491 422 c 0
 485 422 484 424 480 424 c 0
 468 424 466 410 449 305 c 2
 441 261 l 1
 506 267 l 2
 527 269 542 270 551 270 c 0
 566 270 569 267 569 260 c 0x98
 569 224 548 218 504 207 c 0
 422 185 417 182 416 131 c 0
 415 58 405 35 373 31 c 2
 344 28 l 1
 351 97 l 1
 359 165 l 1x92
 324 165 l 2
 273 165 266 156 253 82 c 0
 243 21 230 -9 214 -9 c 0
 209 -9 187 -5 187 36 c 0
 187 47 188 60 190 78 c 2
 197 145 l 1
 140 145 l 2
 83 145 75 152 75 163 c 0
 75 181 109 201 154 205 c 0
 210 211 217 219 229 286 c 0
 232 309 238 339 242 353 c 2
 248 378 l 1
 175 370 l 2
 151 368 135 366 125 366 c 0
 103 366 102 372 102 388 c 0
 102 408 111 414 148 425 c 0
 174 432 205 437 218 437 c 0xc8
 250 437 256 448 264 515 c 0
 269 559 273 572 300 572 c 0
 314 572 315 562 318 519 c 0
 320 475 321 466 338 466 c 0xa4
358 235 m 0
 385 242 397 381 397 383 c 0
 397 401 391 407 379 407 c 0xa0
 372 407 362 405 350 402 c 0
 304 392 305 393 289 272 c 2
 282 217 l 1
 312 223 l 2
 328 227 349 232 358 235 c 0
EndSplineSet
EndChar
StartChar: dollar
Encoding: 4 36 15
Width: 628
Flags: W
HStem: 527 51<372.001 399.96>
VStem: 126 346<255 488 255 255> 171 57<402.646 466.654> 278 32<205.482 285.107> 410 56<171.905 303.582>
Back
336 739 m 0
 339 750 351 756 367 756 c 0
 392 756 393 754 387 719 c 0
 370 624 367 578 378 578 c 0
 391 578 472 501 472 488 c 0
 472 466 447 470 410 499 c 0
 387 517 367 529 365 527 c 0
 364 525 359 494 355 458 c 2
 349 391 l 1
 381 375 l 2
 453 338 483 269 457 195 c 0
 434 129 396 86 349 72 c 0
 298 58 291 44 279 -57 c 0
 274 -101 268 -139 266 -141 c 0
 264 -142 251 -145 238 -147 c 0
 214 -149 213 -146 215 -104 c 0
 216 -80 222 -28 229 11 c 2
 241 82 l 1
 205 113 l 2
 140 168 100 281 146 281 c 0
 159 281 172 267 186 239 c 0
 198 217 217 186 227 173 c 2
 246 149 l 1
 253 188 l 2
 257 210 264 242 270 262 c 0
 284 318 281 338 254 344 c 0
 217 354 179 388 172 420 c 0
 163 462 220 553 270 576 c 0
 305 592 308 597 319 657 c 0
 325 693 333 730 336 739 c 0
294 433 m 0
 298 462 299 499 297 514 c 2
 294 544 l 1
 261 500 l 2
 243 476 228 449 228 439 c 0
 228 422 266 380 281 380 c 0
 285 380 291 404 294 433 c 0
386 306 m 0
 372 320 356 331 351 331 c 0
 339 331 320 248 312 161 c 0
 306 87 312 79 351 120 c 0
 413 185 428 266 386 306 c 0
EndSplineSet
Fore
459 474 m 0xc0
 432 474 380 527 366 527 c 0
 364 527 358 486 355 458 c 2
 349 391 l 1
 381 375 l 2
 436 347 466 300 466 247 c 0x88
 466 190 423 94 349 72 c 0
 298 58 291 44 279 -57 c 0
 274 -101 268 -139 266 -141 c 1
 264 -142 242 -147 229 -147 c 0
 217 -147 214 -143 214 -125 c 0
 214 -84 224 -16 229 11 c 2
 241 82 l 1
 205 113 l 2
 159 152 126 219 126 255 c 0xc0
 126 271 132 281 146 281 c 0
 174 281 186 226 227 173 c 2
 246 149 l 1
 253 188 l 2
 263 243 278 282 278 312 c 0
 278 331 271 340 254 344 c 0
 214 355 171 395 171 430 c 0xb0
 171 475 224 555 270 576 c 0
 305 592 308 597 319 657 c 0
 325 693 333 730 336 739 c 0
 339 750 351 756 367 756 c 0
 384 756 390 755 390 743 c 0
 390 723 372 647 372 599 c 0
 372 585 374 578 378 578 c 0
 391 578 472 501 472 488 c 0
 472 479 467 474 459 474 c 0xc0
281 380 m 0
 288 380 298 446 298 493 c 0
 298 508.977 294.573 541.136 294 544 c 1
 261 500 l 2
 243 476 228 449 228 439 c 0xa0
 228 422 266 380 281 380 c 0
410 246 m 0x98
 410 309 351 331 351 331 c 1
 335 331 310 185 310 123 c 0
 310 104 313 95 319 95 c 0
 334 95 410 171 410 246 c 0x98
EndSplineSet
EndChar
StartChar: percent
Encoding: 5 37 16
Width: 734
Flags: W
HStem: 544 20G<604.5 623>
VStem: 154 101<361.114 468.974>
Back
491 172 m 0
 522 204 542 203 566 170 c 0
 584 144 584 138 563 99 c 0
 536 48 484 26 454 55 c 0
 437 70 436 77 450 109 c 0
 459 129 477 158 491 172 c 0
176 473 m 0
 193 491 208 490 233 469 c 0
 277 433 249 342 194 342 c 0
 151 342 139 433 176 473 c 0
546 518 m 0
 610 572 632 577 632 538 c 0
 632 510 595 464 462 320 c 0
 431 286 388 235 368 208 c 0
 348 180 283 110 223 52 c 0
 144 -27 110 -52 95 -46 c 0
 58 -33 74 0 160 85 c 0
 251 175 381 323 449 415 c 0
 472 446 514 491 546 518 c 0
EndSplineSet
Fore
440 78 m 0
 440 104 492 195 530 195 c 0
 554 195 579 156 579 140 c 0
 579 121 542 42 486 42 c 0
 461 42 440 64 440 78 c 0
154 408 m 0
 154 457 181 486 200 486 c 0
 212 486 255 467 255 419 c 0
 255 381 230 342 194 342 c 0
 169 342 154 374 154 408 c 0
100 -47 m 0
 97 -47 76 -43 76 -25 c 0
 76 -5 103 28 160 85 c 0
 251 175 381 323 449 415 c 0
 497 480 591 564 618 564 c 0
 628 564 632 555 632 538 c 0
 632 484 464 337 368 208 c 0
 348 180 283 110 223 52 c 0
 151 -20 117 -47 100 -47 c 0
EndSplineSet
EndChar
StartChar: ampersand
Encoding: 6 38 17
Width: 734
Flags: W
HStem: -45 70<181.022 252.261> 34 82<541.086 623.623>
VStem: 116 61<26.966 128.878> 157 76<431.571 531.413> 301 64<452.279 546.273>
Back
229 586 m 0
 259 604 291 616 299 613 c 0
 307 610 322 608 329 608 c 0
 338 608 351 588 358 564 c 0
 373 517 370 507 305 369 c 0
 282 321 280 307 291 292 c 0
 318 258 363 217 389 204 c 0
 419 189 436 203 489 288 c 0
 524 344 555 364 578 344 c 0
 602 325 599 317 542 245 c 0
 484 170 472 148 492 148 c 0
 499 148 513 141 522 132 c 0
 531 123 549 116 562 116 c 0
 599 116 651 84 651 61 c 0
 651 15 566 30 484 90 c 2
 446 117 l 1
 389 67 l 2
 330 16 241 -41 213 -45 c 0
 186 -48 146 -26 131 2 c 0
 104 51 112 116 158 211 c 2
 202 302 l 1
 184 357 l 2
 139 491 148 536 229 586 c 0
301 498 m 0
 301 558 297 561 259 535 c 0
 237 521 233 508 233 460 c 0
 233 428 237 399 242 396 c 0
 248 393 263 403 276 417 c 0
 294 437 301 458 301 498 c 0
339 165 m 0
 311 182 278 208 266 222 c 2
 245 248 l 1
 211 182 l 2
 174 112 167 50 192 29 c 0
 204 20 222 27 275 60 c 0
 312 83 353 104 364 106 c 0
 400 113 392 133 339 165 c 0
EndSplineSet
Fore
208 -45 m 0xd8
 184 -45 116 -23 116 65 c 0xe8
 116 105 129 152 158 211 c 2
 202 302 l 1
 184 357 l 2
 166 409 157 448 157 479 c 0
 157 527 180 556 229 586 c 0
 256 602 284 613 296 613 c 0
 299 613 314 608 329 608 c 0
 344 608 365 555 365 527 c 0
 365 473 285 346 285 311 c 0
 285 285 377 199 408 199 c 0
 457 199 502 352 559 352 c 0
 574 352 592 335 592 323 c 0
 592 294 483 183 483 154 c 0
 483 150 486 148 492 148 c 0
 514 148 527 116 562 116 c 0
 599 116 651 84 651 61 c 0
 651 43 638 34 616 34 c 0
 584 34 533 54 484 90 c 2
 446 117 l 1
 389 67 l 2
 355 37 244 -45 208 -45 c 0xd8
233 460 m 0xd8
 233 446 234 395 245 395 c 0
 252 395 265 405 276 417 c 0
 294 437 301 458 301 498 c 0
 301 535 299 551 289 551 c 0
 283 551 273 545 259 535 c 0
 237 521 233 508 233 460 c 0xd8
177 71 m 0xe8
 177 45 187 25 203 25 c 0
 232 25 329 100 364 106 c 0
 379 109 386 114 386 121 c 0
 386 146 304 178 266 222 c 2
 245 248 l 1
 211 182 l 2
 189 140 177 100 177 71 c 0xe8
EndSplineSet
EndChar
StartChar: quotesingle
Encoding: 7 39 18
Width: 613
Flags: W
HStem: 453 248<283.139 326.33>
VStem: 238 168<645.704 660.831> 255 103<483.82 519 519 595.78>
Back
250 684 m 0
 260 703 268 704 326 698 c 0
 362 694 396 688 401 685 c 0
 413 677 400 619 382 599 c 0
 374 590 363 554 358 519 c 0
 351 467 345 455 328 453 c 0
 292 448 257 495 255 551 c 0
 254 577 249 601 245 605 c 0
 234 616 237 660 250 684 c 0
EndSplineSet
Fore
250 684 m 0xc0
 257 697 262 701 282 701 c 0
 308 701 392 690 401 685 c 0
 404 683 406 677 406 669 c 0xc0
 406 649 395 614 382 599 c 0
 374 590 363 554 358 519 c 0
 350 463 344 453 323 453 c 0
 289 453 257 498 255 551 c 0xa0
 252 619 238 596 238 632 c 0
 238 649 242 670 250 684 c 0xc0
EndSplineSet
EndChar
StartChar: parenleft
Encoding: 8 40 19
Width: 651
Flags: W
VStem: 183 87<229.636 423.869> 183 293
Back
345 796 m 0
 389 842 438 860 438 829 c 0
 438 820 420 783 398 749 c 0
 342 660 272 420 270 310 c 0
 269 233 275 207 320 121 c 0
 348 66 396 -4 426 -33 c 0
 486 -91 493 -133 444 -140 c 0
 378 -149 221 89 191 245 c 0
 176 318 175 311 248 597 c 0
 272 694 297 745 345 796 c 0
EndSplineSet
Fore
476 -112 m 0x40
 476 -135 450 -140 440 -140 c 0
 372 -140 220 92 191 245 c 0
 186 268 183 283 183 302 c 0
 183 343 198 402 248 597 c 0
 272 694 297 745 345 796 c 0
 374 826 405 844 423 844 c 0
 432 844 438 840 438 829 c 0
 438 820 420 783 398 749 c 0
 344 663 270 423 270 296 c 0x80
 270 230 278 202 320 121 c 0
 348 66 396 -4 426 -33 c 0
 459 -65 476 -93 476 -112 c 0x40
EndSplineSet
EndChar
StartChar: parenright
Encoding: 9 41 20
Width: 636
Flags: W
VStem: 202 245 363 84<201.149 545.042>
Back
206 830 m 0
 247 870 380 739 414 624 c 0
 450 507 459 269 431 161 c 0
 410 79 370 -17 336 -68 c 0
 329 -80 316 -107 308 -128 c 0
 298 -156 285 -167 259 -167 c 0
 241 -167 221 -161 216 -154 c 0
 211 -146 237 -84 273 -14 c 0
 326 86 342 136 355 229 c 0
 377 398 354 572 294 677 c 0
 269 721 240 759 230 763 c 0
 210 770 194 817 206 830 c 0
EndSplineSet
Fore
202 816 m 0x80
 202 833 215 837 225 837 c 0
 279 837 384 725 414 624 c 0
 436 554 447 440 447 337 c 0
 447 268 442 204 431 161 c 0
 390 0 335 -57 308 -128 c 0
 298 -156 285 -167 259 -167 c 0
 242 -167 215 -161 215 -151 c 0
 215 -136 240 -78 273 -14 c 0
 312 60 363 154 363 356 c 0x40
 363 649 235 761 230 763 c 0
 215 768 202 797 202 816 c 0x80
EndSplineSet
EndChar
StartChar: asterisk
Encoding: 10 42 21
Width: 772
Flags: W
VStem: 184 75<516.359 597.566>
Back
322 607 m 0
 343 646 375 636 380 588 c 0
 383 568 388 534 393 514 c 0
 400 476 400 476 437 529 c 0
 485 599 537 640 564 630 c 0
 593 619 592 584 561 558 c 0
 539 539 477 431 477 411 c 0
 477 406 513 404 558 406 c 0
 633 410 640 408 645 377 c 0
 650 341 645 336 564 318 c 2
 517 308 l 1
 561 273 l 2
 600 242 604 234 587 204 c 0
 564 160 558 161 480 218 c 0
 422 260 414 263 414 237 c 0
 414 221 423 198 433 188 c 0
 461 160 418 118 369 128 c 0
 343 133 318 125 296 105 c 0
 259 71 212 81 212 123 c 0
 212 138 230 168 251 192 c 0
 305 249 301 263 231 263 c 0
 161 263 110 303 159 319 c 0
 222 339 306 377 306 386 c 0
 306 391 281 422 252 454 c 0
 190 521 170 570 194 593 c 0
 217 617 259 596 259 560 c 0
 259 545 270 522 282 512 c 0
 302 496 306 500 306 535 c 0
 306 558 313 589 322 607 c 0
EndSplineSet
Fore
600 408 m 0
 630 408 646 405 646 362 c 0
 646 339 632 333 564 318 c 2
 517 308 l 1
 561 273 l 2
 586 253 597 243 597 230 c 0
 597 220 577 173 557 173 c 0
 527 173 443 254 421 254 c 0
 415 254 414 248 414 237 c 0
 414 198 442 187 442 168 c 0
 442 147 416 126 384 126 c 0
 372 126 366 129 354 129 c 0
 300 129 294 85 249 85 c 0
 228 85 212 98 212 123 c 0
 212 162 288 221 288 246 c 0
 288 259 269 263 231 263 c 0
 180 263 140 284 140 302 c 0
 140 308 145 315 159 319 c 0
 222 339 306 377 306 386 c 0
 306 404 184 507 184 568 c 0
 184 591 202 603 218 603 c 0
 238 603 259 585 259 560 c 0
 259 535 284 503 298 503 c 0
 304 503 306 513 306 535 c 0
 306 569 321 631 351 631 c 0
 383 631 379 569 393 514 c 0
 396 497 398 487 402 487 c 0
 408 487 417 500 437 529 c 0
 480 592 527 631 555 631 c 0
 570 631 585 619 585 601 c 0
 585 587 577 571 561 558 c 0
 539 539 477 431 477 411 c 0
 477 407 497 405 525 405 c 0
 555 405 578 408 600 408 c 0
EndSplineSet
EndChar
StartChar: plus
Encoding: 11 43 22
Width: 715
Flags: W
VStem: 304 82<188.75 316> 312 66<20 149.5>
Back
300 560 m 0
 305 572 322 581 339 581 c 0
 367 581 371 574 379 488 c 2
 388 395 l 1
 462 403 l 2
 502 407 551 414 570 417 c 0
 596 422 607 417 614 396 c 0
 627 355 614 346 531 337 c 0
 490 333 440 326 421 323 c 2
 386 316 l 1
 382 168 l 1
 378 20 l 1
 345 20 l 1
 312 20 l 1
 308 170 l 1
 304 320 l 1
 236 309 l 2
 110 290 89 293 89 330 c 0
 89 361 96 365 191 383 c 2
 292 403 l 1
 292 471 l 2
 292 508 296 548 300 560 c 0
EndSplineSet
Fore
586 419 m 0x80
 616 419 618 380 618 374 c 0
 618 336 546 343 421 323 c 2
 386 316 l 1x80
 378 20 l 1
 312 20 l 1x40
 304 320 l 1
 236 309 l 2
 187 302 154 298 131 298 c 0
 97 298 89 307 89 330 c 0
 89 361 96 365 191 383 c 2
 292 403 l 1
 292 471 l 2
 292 508 296 548 300 560 c 0
 305 572 322 581 339 581 c 0
 367 581 371 574 379 488 c 2
 388 395 l 1
 462 403 l 2
 537 410 574 419 586 419 c 0x80
EndSplineSet
EndChar
StartChar: comma
Encoding: 12 44 23
Width: 496
Flags: W
HStem: -160 356
VStem: 147 200
Back
215 45 m 0
 272 159 296 196 315 196 c 0
 366 196 358 149 283 8 c 0
 201 -146 192 -160 170 -160 c 0
 129 -160 142 -102 215 45 c 0
EndSplineSet
Fore
215 45 m 0
 272 159 296 196 315 196 c 0
 336 196 347 188 347 168 c 0
 347 140 326 90 283 8 c 0
 201 -146 192 -160 170 -160 c 0
 155 -160 147 -152 147 -134 c 0
 147 -105 169 -47 215 45 c 0
EndSplineSet
EndChar
StartChar: hyphen
Encoding: 13 45 24
Width: 931
Flags: W
HStem: 334 113<137.087 267.188> 342 114<326.205 789.234>
Back
229 447 m 0
 284 453 435 457 565 456 c 0
 766 454 803 450 820 423 c 0
 859 361 812 351 459 342 c 2
 118 334 l 1
 123 385 l 2
 128 432 136 437 229 447 c 0
EndSplineSet
Fore
229 447 m 0x80
 278 452 405 456 524 456 c 0
 746 456 802 452 820 423 c 0
 827 412 831 402 831 394 c 0
 831 357 747 349 459 342 c 2x40
 118 334 l 1
 123 385 l 2
 128 432 136 437 229 447 c 0x80
EndSplineSet
EndChar
StartChar: period
Encoding: 14 46 25
Width: 545
Flags: W
HStem: -93 282<288 314 246 301 301 301> -93 105<207.162 307.61>
VStem: 137 278<56.5742 67.1598> 276 49<163.982 188.857> 319 96<34.4111 86.0344>
Back
276 173 m 0
 276 181 288 189 301 189 c 0
 314 189 325 181 325 173 c 0
 325 164 338 157 354 157 c 0
 401 157 430 87 407 31 c 0
 346 -116 172 -138 140 -3 c 0
 132 29 142 52 182 98 c 0
 211 130 244 157 255 157 c 0
 267 157 276 164 276 173 c 0
309 36 m 0
 325 54 322 58 295 56 c 0
 277 54 258 44 254 32 c 0
 242 4 285 6 309 36 c 0
EndSplineSet
Fore
137 16 m 0xa0
 137 71 239 157 255 157 c 0
 267 157 276 164 276 173 c 0
 276 181 288 189 301 189 c 0
 314 189 325 181 325 173 c 0x90
 325 164 338 157 354 157 c 0
 390 157 415 117 415 73 c 0x88
 415 5 338 -93 246 -93 c 0
 159 -93 137 -8 137 16 c 0xa0
266 12 m 0x48
 293 12 319 44 319 51 c 0
 319 55 315 56 306 56 c 0
 272 56 252 39 252 23 c 0
 252 16 258 12 266 12 c 0x48
EndSplineSet
EndChar
StartChar: slash
Encoding: 15 47 26
Width: 772
Flags: W
Back
570 850 m 0
 588 873 626 870 639 845 c 0
 648 830 644 811 626 775 c 0
 613 748 591 696 579 661 c 0
 566 625 511 509 456 402 c 0
 402 296 357 204 357 197 c 0
 357 191 334 140 305 84 c 0
 277 29 238 -49 219 -88 c 0
 193 -140 177 -159 159 -159 c 0
 115 -159 119 -124 171 -26 c 0
 199 26 239 106 259 150 c 0
 280 194 312 263 332 304 c 0
 352 345 396 439 432 514 c 0
 467 590 506 672 519 700 c 0
 532 727 546 768 550 792 c 0
 555 816 564 842 570 850 c 0
EndSplineSet
Fore
603 866 m 0
 623 866 644 851 644 828 c 0
 644 797 615 767 579 661 c 0
 543 562 357 216 357 197 c 0
 357 191 334 140 305 84 c 2
 219 -88 l 2
 193 -140 177 -159 159 -159 c 0
 139 -159 129 -152 129 -134 c 0
 129 -89 188 -7 259 150 c 2
 519 700 l 2
 565 795 546 866 603 866 c 0
EndSplineSet
EndChar
StartChar: zero
Encoding: 16 48 27
Width: 564
Flags: W
HStem: -4 61<180.454 266.984> 550 77<344.914 427.303>
VStem: 81 71<107.924 240.065> 446 55<307.387 532.285>
Back
333 607 m 0
 352 618 373 627 381 627 c 0
 412 629 453 594 477 546 c 0
 524 452 501 307 415 148 c 0
 368 61 323 20 257 2 c 0
 187 -17 139 8 103 85 c 0
 77 139 76 147 88 194 c 0
 95 222 114 274 130 310 c 0
 183 427 194 456 194 473 c 0
 194 492 283 579 333 607 c 0
433 520 m 0
 416 554 369 559 328 533 c 0
 257 487 152 257 152 145 c 0
 152 97 188 57 232 57 c 0
 261 57 280 68 321 107 c 0
 349 134 372 163 372 171 c 0
 372 178 388 217 406 257 c 0
 444 341 458 472 433 520 c 0
EndSplineSet
Fore
194 473 m 0
 194 497 331 627 384 627 c 0
 420 627 501 566 501 433 c 0
 501 351 472 253 415 148 c 0
 368 61 323 20 257 2 c 0
 242 -2 228 -4 215 -4 c 0
 167 -4 131 24 103 85 c 0
 87 118 81 134 81 152 c 0
 81 231 194 429 194 473 c 0
446 447 m 0
 446 507 432 550 381 550 c 0
 364 550 345 544 328 533 c 0
 257 487 152 257 152 145 c 0
 152 97 188 57 232 57 c 0
 261 57 280 68 321 107 c 0
 349 134 372 163 372 171 c 0
 372 199 446 298 446 447 c 0
EndSplineSet
EndChar
StartChar: one
Encoding: 17 49 28
Width: 352
Flags: W
VStem: 64 222<92 393 393 393> 226 60<119.413 280.525>
Back
217 617 m 0
 244 645 261 630 268 567 c 0
 280 469 291 38 283 19 c 0
 270 -9 252 -2 239 37 c 0
 231 60 226 140 226 287 c 0
 225 443 221 503 214 503 c 0
 208 503 189 482 171 457 c 0
 125 390 97 363 79 371 c 0
 59 379 60 406 80 426 c 0
 89 434 106 455 118 472 c 0
 131 490 146 509 151 516 c 0
 156 522 170 544 182 565 c 0
 194 585 209 609 217 617 c 0
EndSplineSet
Fore
86 370 m 0x40
 77 370 64 377 64 393 c 0
 64 418 84 424 118 472 c 2
 151 516 l 2
 174 544 211 631 240 631 c 0
 254 631 263 610 268 567 c 0
 277 492 286 224 286 92 c 0x80
 286 51 285 24 283 19 c 0
 278 8 272 2 265 2 c 0
 256 2 247 14 239 37 c 0
 231 60 226 140 226 287 c 0
 225 443 221 503 214 503 c 0
 193 503 125 370 86 370 c 0x40
EndSplineSet
EndChar
StartChar: two
Encoding: 18 50 29
Width: 772
Flags: W
HStem: 546 60<268.696 440.215>
VStem: 449 55<412.716 529.259>
Back
285 592 m 0
 377 621 467 605 493 556 c 0
 514 518 504 410 474 333 c 0
 446 265 345 100 306 63 c 0
 290 46 290 45 320 51 c 0
 493 86 679 95 684 68 c 0
 689 34 686 32 618 31 c 0
 580 30 511 22 466 13 c 0
 421 4 357 -6 325 -9 c 0
 294 -12 261 -20 254 -27 c 0
 233 -43 189 -28 189 -4 c 0
 189 13 246 88 284 121 c 0
 325 156 417 332 436 409 c 0
 463 521 450 546 367 546 c 0
 293 546 225 512 150 436 c 0
 113 400 81 370 78 370 c 0
 76 370 73 386 73 404 c 0
 73 430 80 443 99 453 c 0
 114 460 126 472 126 480 c 0
 126 487 138 501 152 512 c 0
 167 522 193 541 210 554 c 0
 227 568 260 584 285 592 c 0
EndSplineSet
Fore
605 84 m 0
 685 84 686 74 686 52 c 0
 686 16 632 46 466 13 c 0
 346 -11 271 -10 254 -27 c 0
 248 -32 240 -34 232 -34 c 0
 211 -34 189 -21 189 -4 c 0
 189 13 246 88 284 121 c 0
 320 151 449 367 449 489 c 0
 449 534 425 546 367 546 c 0
 293 546 225 512 150 436 c 0
 113 400 81 370 78 370 c 0
 76 370 73 386 73 404 c 0
 73 430 80 443 99 453 c 0
 114 460 126 472 126 480 c 0
 126 498 170 524 210 554 c 0
 228 569 293 606 375 606 c 0
 430 606 476 588 493 556 c 0
 501 542 504 519 504 492 c 0
 504 444 493 382 474 333 c 0
 446 265 345 100 306 63 c 0
 299 56 295 52 295 49 c 0
 295 48 296 48 299 48 c 0
 309 48 470 84 605 84 c 0
EndSplineSet
EndChar
StartChar: three
Encoding: 19 51 30
Width: 568
Flags: W
HStem: -10 56<210.737 335.369> 348 62<361.652 418.486>
VStem: 74 432<266 541 541 541> 143 67<61.3786 121.319> 373 122<532 601.285> 438 68<157.467 315.93>
Back
415 620 m 0
 437 624 458 629 461 629 c 0
 473 631 495 604 495 587 c 0
 495 579 464 538 427 497 c 0
 389 457 358 420 358 416 c 0
 358 413 373 410 391 410 c 0
 429 410 490 351 502 304 c 0
 515 254 497 167 463 114 c 0
 391 -1 196 -53 157 31 c 0
 136 75 139 134 162 134 c 0
 185 134 210 102 210 71 c 0
 211 49 216 46 256 46 c 0
 310 46 378 83 414 132 c 0
 432 157 438 181 438 235 c 0
 438 328 415 355 345 346 c 0
 319 343 287 331 274 320 c 0
 244 293 206 298 201 330 c 0
 199 345 204 355 213 355 c 0
 221 355 239 369 254 385 c 0
 349 495 381 537 372 539 c 0
 362 543 229 522 133 503 c 0
 104 497 97 499 97 513 c 0
 97 523 92 531 85 531 c 0
 79 531 74 535 74 541 c 0
 74 552 175 579 290 598 c 0
 337 605 394 615 415 620 c 0
EndSplineSet
Fore
367 539 m 0xc8
 319 539 118 500 110 500 c 0
 100 500 97 504 97 513 c 0
 97 523 92 531 85 531 c 0
 79 531 74 535 74 541 c 0xe0
 74 565 393 615 415 620 c 0
 442.896 625.072 456.991 629 462 629 c 0
 475 629 495 603 495 587 c 0xc8
 495 565 358 427 358 416 c 0
 358 413 373 410 391 410 c 0
 429 410 490 351 502 304 c 0
 505 293 506 280 506 266 c 0xe0
 506 217 489 155 463 114 c 0
 415 38 314 -10 240 -10 c 0
 202 -10 170 2 157 31 c 0
 147 51 143 74 143 93 c 0
 143 116 149 134 162 134 c 0
 185 134 210 102 210 71 c 0
 211 49 216 46 256 46 c 0
 310 46 378 83 414 132 c 0
 432 157 438 181 438 235 c 0xd4
 438 317 420 348 368 348 c 0
 283 348 270 303 234 303 c 0
 214 303 201 316 201 336 c 0
 201 348 205 355 213 355 c 0
 221 355 239 369 254 385 c 0
 339 483 373 527 373 537 c 0
 373 539 372 539 367 539 c 0xc8
EndSplineSet
EndChar
StartChar: four
Encoding: 20 52 31
Width: 564
Flags: W
HStem: -17 21G<342.5 360.5> 180 59<103.993 195.407>
VStem: 62 449<202 294 202 202> 62 81<191.842 247.829> 301 48<298.989 358.797> 306 80<12.7673 113.996>
Back
353 600 m 0
 361 621 391 614 395 589 c 0
 396 579 387 558 373 544 c 0
 351 519 349 511 349 417 c 0
 349 362 353 312 357 305 c 0
 363 296 373 296 402 304 c 0
 423 310 444 318 450 323 c 0
 457 329 471 328 487 322 c 0
 523 308 517 270 477 266 c 0
 462 264 428 256 403 248 c 2
 358 233 l 1
 362 149 l 2
 364 102 372 53 379 38 c 0
 389 15 389 8 376 -5 c 0
 340 -42 318 4 306 141 c 0
 299 213 298 217 279 213 c 0
 268 210 222 200 178 191 c 0
 49 164 34 182 100 282 c 0
 196 425 316 583 331 584 c 0
 340 584 350 592 353 600 c 0
300 293 m 0
 302 306 299 348 295 385 c 2
 288 452 l 1
 246 401 l 2
 206 352 137 244 143 239 c 0
 144 238 180 244 221 253 c 0
 291 268 297 271 300 293 c 0
EndSplineSet
Fore
331 584 m 0xe0
 354 584 350 612 370 612 c 0
 385 612 395 597 395 587 c 0
 395 577 386 557 373 544 c 0
 351 519 349 511 349 417 c 0xc8
 349 298 357 298 371 298 c 0
 392 298 442 317 450 323 c 0
 453 326 458 327 464 327 c 0
 482 327 511 315 511 294 c 0xe0
 511 281 499 268 477 266 c 0
 462 264 428 256 403 248 c 2
 358 233 l 1
 362 149 l 2
 366 45 386 30 386 14 c 0
 386 1 367 -17 354 -17 c 0
 331 -17 315 34 306 141 c 0xc4
 300 202 298 214 287 214 c 0
 277 214 148 180 98 180 c 0
 73 180 62 187 62 202 c 0
 62 218 75 244 100 282 c 0
 196 425 316 583 331 584 c 0xe0
221 253 m 0
 294 269 301 271 301 305 c 0
 301 324 298 356 295 385 c 2
 288 452 l 1
 246 401 l 2
 208 354 143 253 143 240 c 0xd8
 143 239 143 239 144 239 c 0
 149 239 183 245 221 253 c 0
EndSplineSet
EndChar
StartChar: five
Encoding: 21 53 32
Width: 497
Flags: W
HStem: -12 58<125.349 287.891> 368 51<248.801 334.14>
VStem: 113 48<407.976 514.511> 355 57<211.443 355.008>
Back
392 595 m 0
 440 606 459 605 464 590 c 0
 472 568 312 523 238 526 c 0
 179 529 151 502 165 453 c 0
 170 436 171 408 168 390 c 2
 162 359 l 1
 196 380 l 2
 249 413 314 428 347 414 c 0
 393 394 424 288 407 202 c 0
 379 53 311 -12 183 -12 c 0
 140 -12 132 -8 104 27 c 0
 71 67 59 97 66 127 c 0
 69 142 73 139 87 113 c 0
 113 65 147 47 210 46 c 0
 278 44 307 67 336 147 c 0
 368 233 359 352 319 367 c 0
 298 376 218 336 188 301 c 0
 158 268 152 266 130 288 c 0
 109 309 107 559 127 572 c 0
 134 576 187 581 246 583 c 0
 304 584 370 590 392 595 c 0
EndSplineSet
Fore
355 260 m 0
 355 323 338 368 311 368 c 0
 283 368 215 333 188 301 c 0
 171 282 162 273 153 273 c 0
 146 273 139 279 130 288 c 0
 119 299 113 375 113 445 c 0
 113 508 118 566 127 572 c 0
 147 584 331 581 392 595 c 0
 413 600 429 602 440 602 c 0
 459 602 464 594 464 588 c 0
 464 567 320 526 245 526 c 2
 229 526 l 2
 186 526 161 508 161 476 c 0
 161 456 170 449 170 413 c 0
 170 405 169 397 168 390 c 2
 162 359 l 1
 196 380 l 2
 236 405 282 419 316 419 c 0
 328 419 339 418 347 414 c 0
 384 398 412 325 412 252 c 0
 412 235 410 218 407 202 c 0
 379 53 311 -12 183 -12 c 0
 140 -12 132 -8 104 27 c 0
 77 60 64 86 64 111 c 0
 64 120 67 136 71 136 c 0
 74 136 79 129 87 113 c 0
 114 63 149 46 218 46 c 0
 280 46 308 70 336 147 c 0
 349 182 355 223 355 260 c 0
EndSplineSet
EndChar
StartChar: six
Encoding: 22 54 33
Width: 443
Flags: W
HStem: -7 53<151.645 191.011> 262 50<193.792 287.037>
VStem: 60 61<66.165 203.737> 326 56<141.68 232.594>
Back
181 607 m 0
 195 624 218 623 224 605 c 0
 227 597 218 551 204 503 c 0
 145 304 139 272 160 272 c 0
 166 272 182 281 196 292 c 0
 210 303 233 312 248 312 c 0
 283 312 337 288 359 264 c 0
 383 237 389 182 372 152 c 0
 363 138 353 119 348 108 c 0
 336 80 262 14 232 2 c 0
 218 -3 190 -7 170 -7 c 0
 109 -7 60 64 60 151 c 0
 60 189 105 375 137 476 c 0
 148 509 160 549 164 566 c 0
 168 583 175 601 181 607 c 0
297 246 m 0
 282 255 260 262 250 262 c 0
 223 261 177 237 146 207 c 0
 121 182 118 174 122 130 c 0
 125 98 134 73 147 60 c 0
 170 38 169 37 257 87 c 0
 286 103 326 169 326 201 c 0
 326 224 320 235 297 246 c 0
EndSplineSet
Fore
160 272 m 0
 178 272 209 312 248 312 c 0
 283 312 337 288 359 264 c 0
 374 247 382 220 382 195 c 0
 382 155 367 150 348 108 c 0
 336 80 262 14 232 2 c 0
 218 -3 190 -7 170 -7 c 0
 109 -7 60 64 60 151 c 0
 60 228 164 566 164 566 c 2
 170 590 180 619 204 619 c 0
 215 619 225 612 225 600 c 0
 225 543 149 344 149 288 c 0
 149 276 153 272 160 272 c 0
121 155 m 0
 121 64 161 46 171 46 c 0
 184 46 205 57 257 87 c 0
 286 103 326 169 326 201 c 0
 326 224 320 235 297 246 c 0
 282 255 260 262 250 262 c 0
 223 261 177 237 146 207 c 0
 127 188 121 179 121 155 c 0
EndSplineSet
EndChar
StartChar: seven
Encoding: 23 55 34
Width: 439
Flags: W
HStem: 555 69<289.42 344>
VStem: 104 279<558.078 583 473 572 531.609 605.577> 104 48<378.642 402 402 421.609 421.609 495.577> 318 65<464.412 582.49>
Back
266 614 m 0
 389 638 396 628 371 471 c 0
 362 411 347 330 338 287 c 0
 323 221 312 169 283 25 c 0
 277 -3 272 -8 252 -8 c 0
 231 -8 228 -5 229 20 c 0
 230 52 245 132 266 225 c 0
 286 313 323 548 318 554 c 0
 315 556 277 556 232 553 c 2
 151 547 l 1
 155 496 l 2
 157 469 156 426 152 402 c 0
 147 364 143 358 125 361 c 0
 105 364 104 368 104 473 c 2
 104 583 l 1
 161 594 l 2
 193 600 240 609 266 614 c 0
EndSplineSet
Fore
132 360 m 0xb0
 101 360 104 380 104 473 c 2
 104 583 l 1
 266 614 l 2
 297 620 320 624 338 624 c 0
 370 624 383 610 383 572 c 0xc0
 383 482 317 195 283 25 c 0
 277 -3 272 -8 252 -8 c 0
 233 -8 229 -6 229 13 c 0
 229 55 252 162 266 225 c 0
 285 308 318 519 318 550 c 0
 318 556 318 555 295 555 c 0
 279 555 257 555 232 553 c 2
 151 547 l 1
 155 496 l 2
 156 487 156 476 156 465 c 0
 156 442 155 418 152 402 c 0
 148 369 144 360 132 360 c 0xb0
EndSplineSet
EndChar
StartChar: eight
Encoding: 24 56 35
Width: 500
Flags: W
HStem: -22 57<229.194 309.504> 232 99<196.856 239.611> 567 45<228.991 340.139>
VStem: 90 350<428 517 443 490 443 443> 90 52<389.124 477.993> 108 63<92.9522 196.695> 162 120<251.436 322.82> 325 51<50.1891 154.526> 396 44<460.855 518.442>
Back
227 601 m 0
 231 607 257 612 286 612 c 0
 349 612 402 583 425 536 c 0
 453 478 448 466 346 369 c 0
 266 293 266 297 319 230 c 0
 392 137 395 49 327 -2 c 0
 277 -39 234 -25 165 49 c 0
 134 83 108 120 108 132 c 0
 108 144 122 183 139 217 c 0
 172 284 172 284 126 344 c 0
 86 397 79 455 106 511 c 0
 129 558 168 590 200 590 c 0
 212 590 224 595 227 601 c 0
355 535 m 0
 311 568 282 575 253 558 c 0
 245 553 224 543 207 535 c 0
 174 519 154 492 144 450 c 0
 139 430 146 412 172 377 c 0
 190 352 208 331 212 331 c 0
 216 331 246 356 278 385 c 0
 310 415 351 447 367 455 c 0
 409 478 406 496 355 535 c 0
265 204 m 0
 232 242 218 242 192 203 c 0
 161 158 164 122 204 79 c 0
 249 31 278 23 305 51 c 0
 341 89 330 131 265 204 c 0
EndSplineSet
Fore
200 590 m 0xf0
 237 590 207 612 286 612 c 0
 406 612 440 517 440 490 c 0xf0
 440 428 282 334 282 291 c 0xe2
 282 256 376 192 376 94 c 0
 376 21 314 -22 275 -22 c 0
 205 -22 108 113 108 132 c 0xe5
 108 167 162 251 162 279 c 0xe2
 162 320 90 357 90 443 c 0
 90 519 153 590 200 590 c 0xf0
396 486 m 0xe880
 396 510 325 567 284 567 c 0
 264 567 271 565 207 535 c 0
 151 508 142 448 142 438 c 0
 142 402 208 331 212 331 c 0
 224 331 323 433 367 455 c 0
 386 466 396 475 396 486 c 0xe880
273 35 m 0
 299 35 325 68 325 97 c 0
 325 125 306 158 265 204 c 0
 249 223 237 232 226 232 c 0
 207 232 171 182 171 147 c 0xe5
 171 97 240 35 273 35 c 0
EndSplineSet
EndChar
StartChar: nine
Encoding: 25 57 36
Width: 462
Flags: W
HStem: 298 44<128.675 241.352> 559 57<263.913 334.134>
VStem: 69 53<348.529 443.113> 309 54<-0.303349 330.082 212.25 343.601> 336 62<435.081 557.624>
Back
252 600 m 0
 305 619 314 620 350 607 c 0
 393 591 407 554 392 489 c 0
 386 460 377 412 373 381 c 0
 362 312 359 63 368 41 c 0
 380 12 366 -22 341 -22 c 0
 309 -22 305 10 312 199 c 0
 319 376 323 367 262 322 c 0
 236 302 220 298 176 298 c 0
 128 299 119 302 99 324 c 0
 70 357 63 390 75 430 c 0
 99 513 153 563 252 600 c 0
336 519 m 0
 336 558 336 558 301 559 c 0
 249 560 212 547 180 515 c 0
 121 454 103 367 146 347 c 0
 177 333 228 349 274 387 c 0
 315 420 336 466 336 519 c 0
EndSplineSet
Fore
309 80 m 0xf0
 309 172 316 264 316 310 c 0
 316 339 313 350 305 350 c 0
 297 350 284 338 262 322 c 0
 236 302 220 298 176 298 c 0
 128 299 119 302 99 324 c 0
 79 347 69 370 69 395 c 0
 69 406 71 418 75 430 c 0
 99 513 153 563 252 600 c 0
 282 611 298 616 312 616 c 0
 321 616 398 611 398 534 c 0xe8
 398 468 363 451 363 151 c 0
 363 18 372 40 372 19 c 0
 372 -3 360 -22 341 -22 c 0
 317 -22 309 -5 309 80 c 0xf0
172 342 m 0
 219 342 336 396 336 519 c 0
 336 556 337 559 296 559 c 0
 246 559 211 546 180 515 c 0
 143 477 122 429 122 393 c 0
 122 368 132 342 172 342 c 0
EndSplineSet
EndChar
StartChar: colon
Encoding: 26 58 37
Width: 401
Flags: W
VStem: 144 87<69.6411 102.123 423.992 464.8>
Back
167 121 m 0
 190 144 214 139 225 109 c 0
 232 88 232 81 227 68 c 0
 223 60 217 44 214 33 c 0
 201 -18 164 -12 149 45 c 0
 140 81 143 95 167 121 c 0
161 507 m 0
 177 526 191 523 213 497 c 0
 227 480 231 468 231 444 c 0
 231 419 229 413 220 413 c 0
 213 413 206 404 203 391 c 0
 199 374 194 369 181 369 c 0
 167 369 161 376 149 404 c 0
 136 436 135 443 142 467 c 0
 146 482 154 500 161 507 c 0
EndSplineSet
Fore
144 75 m 0
 144 105 175 135 195 135 c 0
 224 135 231 91 231 84 c 0
 231 71 220 56 214 33 c 0
 208 10 197 -2 185 -2 c 0
 161 -2 144 48 144 75 c 0
138 444 m 0
 138 462 155 519 181 519 c 0
 190 519 200 512 213 497 c 0
 227 480 231 468 231 444 c 0
 231 419 229 413 220 413 c 0
 213 413 206 404 203 391 c 0
 199 374 194 369 181 369 c 0
 167 369 161 376 149 404 c 0
 141 423 138 433 138 444 c 0
EndSplineSet
EndChar
StartChar: semicolon
Encoding: 27 59 38
Width: 367
Flags: W
VStem: 120 129<-76 369 -76 -76> 148 101<335.918 424.715>
Back
202 126 m 0
 217 141 235 137 238 118 c 0
 240 100 163 -89 150 -95 c 0
 137 -102 120 -91 120 -76 c 0
 120 -56 189 113 202 126 c 0
184 431 m 0
 218 441 221 441 234 428 c 0
 250 411 254 354 241 320 c 0
 231 294 228 292 201 297 c 0
 167 302 148 328 148 370 c 0
 148 409 156 422 184 431 c 0
EndSplineSet
Fore
202 126 m 0x80
 208 132 215 135 221 135 c 0
 235 135 238 121 238 117 c 0
 238 95 163 -89 150 -95 c 0
 147 -96 144 -97 141 -97 c 0
 131 -97 120 -88 120 -76 c 0
 120 -56 189 113 202 126 c 0x80
218 295 m 0
 193 295 148 306 148 370 c 0x40
 148 409 156 422 184 431 c 0
 200 436 209 438 216 438 c 0
 229 438 249 423 249 369 c 0
 249 347 243 295 218 295 c 0
EndSplineSet
EndChar
StartChar: less
Encoding: 28 60 39
Width: 545
Flags: W
VStem: 74 366<329 619 329 329> 74 84<283.035 356.87>
Back
326 583 m 0
 399 650 427 661 439 627 c 0
 444 613 435 597 410 576 c 0
 390 559 350 523 323 496 c 0
 295 470 246 423 215 395 c 0
 184 366 158 332 158 321 c 0
 158 295 295 137 351 99 c 0
 376 82 404 57 415 44 c 0
 434 21 434 17 418 -1 c 0
 397 -24 383 -26 373 -7 c 0
 369 1 338 26 304 50 c 0
 193 127 63 290 75 336 c 0
 79 351 121 398 170 442 c 0
 218 485 288 549 326 583 c 0
EndSplineSet
Fore
430 19 m 0x40
 430 8 404 -20 389 -20 c 0
 383 -20 378 -16 373 -7 c 0
 369 1 338 26 304 50 c 0
 198 124 74 276 74 329 c 0
 74 352 136 411 170 442 c 2
 326 583 l 2
 373 626 401 646 418 646 c 0
 436 646 440 625 440 619 c 0x80
 440 593 398 571 323 496 c 2
 215 395 l 2
 184 366 158 332 158 321 c 0
 158 295 295 137 351 99 c 0
 387 74 430 35 430 19 c 0x40
EndSplineSet
EndChar
StartChar: equal
Encoding: 29 61 40
Width: 515
Flags: W
HStem: 200 56<116.561 194.241 194.241 376.5> 338 68<245.262 351.759>
VStem: 108 292<222.618 245.863>
Back
173 256 m 0
 212 265 376 263 390 254 c 0
 431 227 340 200 205 200 c 0
 115 200 108 202 108 221 c 0
 108 234 116 244 130 247 c 0
 143 249 163 254 173 256 c 0
194 398 m 0
 239 403 295 407 321 406 c 0
 359 405 366 401 366 384 c 0
 366 359 339 352 208 341 c 0
 123 335 119 335 113 357 c 0
 109 370 107 382 110 384 c 0
 112 386 150 392 194 398 c 0
EndSplineSet
Fore
275 262 m 0
 379 262 400 257 400 241 c 0
 400 219 318 200 205 200 c 0
 115 200 108 202 108 221 c 0
 108 244 123 246 173 256 c 0
 190 260 232 262 275 262 c 0
312 406 m 0
 357 406 366 402 366 384 c 0
 366 359 339 352 208 341 c 0
 179 339 159 338 146 338 c 0
 120 338 117 343 113 357 c 0
 110 366 109 374 109 379 c 0
 109 386 107 386 194 398 c 0
 234 402 283 406 312 406 c 0
EndSplineSet
EndChar
StartChar: greater
Encoding: 30 62 41
Width: 594
Flags: W
VStem: 125 364 414 75<287.567 335.847>
Back
143 583 m 0
 152 585 161 588 163 588 c 0
 168 590 218 556 243 532 c 0
 287 492 361 433 411 398 c 0
 437 380 467 355 477 342 c 0
 500 313 502 316 373 143 c 0
 318 69 271 0 268 -9 c 0
 260 -30 218 -41 200 -26 c 0
 188 -16 188 -11 206 17 c 0
 216 35 232 52 239 55 c 0
 251 59 269 84 377 244 c 0
 397 274 414 305 414 313 c 0
 414 320 367 360 309 401 c 0
 140 522 96 570 143 583 c 0
EndSplineSet
Fore
125 566 m 0x80
 125 580.894 156.856 588 164 588 c 0
 171 588 219 555 243 532 c 0
 380 408 489 357 489 319 c 0
 489 298 463 263 373 143 c 0
 318 69 271 0 268 -9 c 0
 263 -23 241 -33 223 -33 c 0
 202 -33 192 -21 192 -13 c 0
 192 -0 225 49 239 55 c 0
 251 59 269 84 377 244 c 0
 397 274 414 305 414 313 c 0x40
 414 320 367 360 309 401 c 0
 182 492 125 542 125 566 c 0x80
EndSplineSet
EndChar
StartChar: question
Encoding: 31 63 42
Width: 632
Flags: W
HStem: -19 21G<283.5 312> 546 31<226.294 286.657> 794 48<258.533 363.879>
VStem: 143 320<617 745 656 687 687 687> 143 43<628.71 728.43> 263 92<10.1094 74.772> 281 49<232.316 313.454 313.454 402> 308 38<612.531 647.553> 417 46<573.472 719.863>
Back
271 82 m 0
 275 91 284 100 290 100 c 0
 301 100 355 63 355 55 c 0
 355 53 348 37 339 19 c 0
 322 -15 292 -29 274 -12 c 0
 261 2 259 56 271 82 c 0
243 820 m 0
 300 851 341 850 387 814 c 0
 414 793 431 770 445 737 c 0
 482 645 464 579 363 448 c 2
 328 402 l 1
 329 327 l 2
 332 240 322 217 294 238 c 0
 279 250 276 389 290 430 c 0
 296 447 318 475 338 493 c 0
 403 550 435 656 407 722 c 0
 397 748 355 785 327 793 c 0
 285 805 186 729 186 685 c 0
 186 662 228 586 244 579 c 0
 259 572 282 586 297 612 c 0
 314 641 312 648 289 648 c 0
 262 648 267 677 295 689 c 0
 311 696 320 694 332 681 c 0
 364 645 337 560 289 549 c 0
 253 541 231 550 192 585 c 0
 152 623 134 675 148 716 c 0
 162 755 199 795 243 820 c 0
EndSplineSet
Fore
263 36 m 0xe4
 263 90 285 100 290 100 c 0
 301 100 355 63 355 55 c 1
 355 55 332 -19 292 -19 c 0
 275 -19 263 -5 263 36 c 0xe4
186 685 m 0xea80
 186 665 228 577 252 577 c 0
 284 577 308 630 308 639 c 0
 308 646 302 648 289 648 c 0
 277 648 271 654 271 661 c 0
 271 680 299 693 311 693 c 0
 325 693 346 675 346 639 c 0xe980
 346 611 331 546 267 546 c 0
 217 546 143 617 143 687 c 0
 143 760 246 842 315 842 c 0
 393 842 463 745 463 656 c 0xf0
 463 598 433 538 363 448 c 2
 328 402 l 1
 329 327 l 2
 329 317 330 308 330 300 c 0
 330 252 324 231 310 231 c 0
 288 231 281 258 281 338 c 0
 281 413 284 444 338 493 c 0
 387 536 417 607 417 667 c 0
 417 687 414 706 407 722 c 0
 396 751 345 794 317 794 c 0
 271 794 186 726 186 685 c 0xea80
EndSplineSet
EndChar
StartChar: at
Encoding: 32 64 43
Width: 704
Flags: W
HStem: -21 48<269.374 395.53> 173 40<266.399 313.349> 182 46<432.152 482.219> 438 46<298.106 376.997> 593 37<337.337 437.978>
VStem: 80 55<138.283 418.848> 185 47<232.752 330.462> 377 51<228.62 254.677> 404 37<359.501 411.951> 507 48<251.766 291.997> 535 55<184.019 228.144> 545 44<294.925 447.702>
Back
307 616 m 0
 361 632 454 635 479 622 c 0
 514 604 563 547 578 506 c 0
 597 458 591 341 568 286 c 0
 551 246 550 249 572 243 c 0
 598 237 596 211 562 131 c 0
 533 62 486 8 435 -13 c 0
 411 -22 302 -25 259 -16 c 0
 221 -9 136 47 130 69 c 0
 126 81 121 90 117 90 c 0
 100 90 78 208 80 293 c 0
 81 398 99 449 157 523 c 0
 201 577 226 593 307 616 c 0
467 567 m 0
 401 604 373 602 276 554 c 0
 213 522 197 505 162 430 c 0
 138 379 135 362 135 288 c 0
 135 209 140 181 165 116 c 0
 181 75 253 35 325 29 c 0
 381 24 389 25 428 50 c 0
 463 72 477 88 503 142 c 0
 521 179 535 211 535 214 c 0
 535 217 524 211 511 201 c 0
 496 189 472 182 451 182 c 0
 422 182 412 187 396 208 c 0
 386 223 377 239 377 245 c 0
 377 263 363 255 344 227 c 0
 323 195 286 173 253 173 c 0
 196 173 165 266 199 340 c 0
 220 387 310 484 332 484 c 0
 359 484 410 443 428 407 c 0
 443 377 444 367 434 326 c 0
 421 276 430 228 451 228 c 0
 464 228 507 270 507 283 c 0
 507 288 513 292 519 292 c 0
 536 292 552 398 542 439 c 0
 516 539 517 538 467 567 c 0
374 418 m 0
 357 429 337 438 329 438 c 0
 308 438 256 386 256 365 c 0
 256 356 252 345 248 343 c 0
 236 335 227 284 234 259 c 0
 241 229 300 200 313 219 c 0
 318 227 321 239 321 248 c 0
 321 257 325 264 330 264 c 0
 336 264 340 276 340 292 c 0
 340 307 344 326 349 335 c 0
 354 344 359 358 362 367 c 0
 365 376 375 383 385 383 c 0
 413 383 410 394 374 418 c 0
EndSplineSet
Fore
555 252 m 0x9e40
 555 239 590 252 590 220 c 0x9e20
 590 191 540 30 435 -13 c 0
 421 -18 378 -21 337 -21 c 0
 307 -21 277 -20 259 -16 c 0
 221 -9 136 47 130 69 c 0
 126 81 121 90 117 90 c 0
 101 90 80 198 80 282 c 0
 80 393 97 447 157 523 c 0
 201 577 226 593 307 616 c 0
 338 625 382 630 419 630 c 0
 446 630 468 627 479 622 c 0
 514 604 563 547 578 506 c 0
 586 486 589 456 589 422 c 0x9e10
 589 303 555 267 555 252 c 0x9e40
441 366 m 0xde80
 441 336 428 323 428 280 c 0
 428 250 437 228 451 228 c 0
 464 228 507 270 507 283 c 0xbf40
 507 288 513 292 519 292 c 0
 532 292 545 357 545 405 c 0xbe10
 545 418 544 430 542 439 c 0
 516 539 517 538 467 567 c 0
 437 584 415 593 390 593 c 0
 361 593 329 580 276 554 c 0
 213 522 197 505 162 430 c 0
 138 379 135 362 135 288 c 0
 135 209 140 181 165 116 c 0
 176 87 239 27 364 27 c 0
 388 27 400 32 428 50 c 0
 463 72 477 88 503 142 c 0
 521 179 535 211 535 214 c 0
 535 223 502 182 451 182 c 0
 422 182 412 187 396 208 c 0
 386 223 377 239 377 245 c 0xbf20
 377 252 375 255 372 255 c 0
 366 255 356 245 344 227 c 0
 323 195 286 173 253 173 c 0
 212 173 185 220 185 274 c 0
 185 296 189 319 199 340 c 0
 220 387 310 484 332 484 c 0
 367 484 441 418 441 366 c 0xde80
299 213 m 0xde80
 319 213 321 242 321 248 c 0
 321 257 325 264 330 264 c 0
 336 264 340 276 340 292 c 0
 340 326 351 333 362 367 c 0
 365 376 375 383 385 383 c 0
 397 383 404 385 404 390 c 0
 404 402 348 438 329 438 c 0
 308 438 256 386 256 365 c 0
 256 337 232 347 232 281 c 0
 232 222 292 213 299 213 c 0xde80
EndSplineSet
EndChar
StartChar: A
Encoding: 33 65 44
Width: 738
Flags: W
Back
437 764 m 0
 451 773 455 773 473 762 c 0
 488 752 549 555 549 514 c 0
 550 499 558 460 567 428 c 0
 576 395 588 343 593 312 c 0
 597 281 614 214 630 163 c 0
 663 58 657 34 605 63 c 0
 584 75 575 91 569 122 c 0
 565 145 553 200 543 243 c 2
 524 322 l 1
 475 316 l 2
 448 312 395 306 356 303 c 2
 286 297 l 1
 257 242 l 2
 205 145 167 69 148 23 c 0
 128 -25 111 -38 83 -28 c 0
 61 -19 63 5 88 38 c 0
 100 53 110 74 110 84 c 0
 110 95 116 105 124 108 c 0
 132 111 145 135 153 161 c 0
 161 186 176 217 186 229 c 0
 205 250 218 280 283 449 c 0
 324 555 420 752 437 764 c 0
475 561 m 0
 465 603 453 638 447 640 c 0
 437 643 361 488 325 391 c 2
 313 360 l 1
 392 366 l 2
 507 376 509 377 500 436 c 0
 496 464 485 519 475 561 c 0
EndSplineSet
Fore
68 -6 m 0
 68 24 110 55 110 84 c 0
 110 95 116 105 124 108 c 0
 145 116 157 195 186 229 c 0
 205 250 218 280 283 449 c 0
 324 555 420 752 437 764 c 0
 444 768 448 771 453 771 c 0
 458 771 464 768 473 762 c 0
 488 752 549 555 549 514 c 0
 552 473 580 393 593 312 c 0
 604 230 650 116 650 73 c 0
 650 58 646 52 636 52 c 0
 629 52 618 56 605 63 c 0
 569 84 576 102 543 243 c 2
 524 322 l 1
 475 316 l 2
 448 312 395 306 356 303 c 2
 286 297 l 1
 257 242 l 2
 205 145 167 69 148 23 c 0
 132 -15 118 -31 99 -31 c 0
 89 -31 68 -26 68 -6 c 0
503 406 m 0
 503 434 463 640 447 640 c 0
 436 640 361 487 325 391 c 2
 313 360 l 1
 392 366 l 2
 483 374 503 376 503 406 c 0
EndSplineSet
EndChar
StartChar: B
Encoding: 34 66 45
Width: 655
Flags: W
HStem: 12 55<342.268 429.859> 24 44<282.681 378.671> 412 67<423.611 485.147> 731 56<322.543 444.256>
VStem: 160 65<632 675.808> 471 54<657.195 711.594> 521 53<176.595 359.134>
Back
225 771 m 0
 256 779 325 786 378 787 c 0
 467 788 476 786 500 761 c 0
 513 746 525 724 525 714 c 0
 525 668 500 603 462 549 c 0
 417 485 415 479 437 479 c 0
 464 479 534 436 550 410 c 0
 578 365 582 265 560 196 c 0
 523 81 420 -11 358 17 c 0
 337 26 321 26 296 17 c 0
 225 -9 217 6 204 190 c 0
 198 267 190 367 184 413 c 0
 179 458 171 537 167 587 c 2
 160 677 l 1
 121 677 l 2
 79 677 60 693 78 713 c 0
 93 729 155 753 225 771 c 0
457 715 m 0
 441 732 383 736 318 726 c 0
 218 709 225 715 225 652 c 0
 225 620 230 557 237 509 c 0
 247 436 252 424 270 424 c 0
 299 424 413 556 446 628 c 0
 477 696 477 693 457 715 c 0
486 391 m 0
 451 421 395 418 323 385 c 0
 306 377 284 368 273 364 c 0
 254 357 253 348 259 230 c 0
 267 80 272 71 355 68 c 0
 413 66 413 66 462 123 c 0
 502 168 513 190 518 231 c 0
 528 307 516 366 486 391 c 0
EndSplineSet
Fore
328 24 m 0x7a
 303 24 278 7 256 7 c 0
 195 7 216 170 184 413 c 0
 179 458 171 537 167 587 c 2
 160 677 l 1
 121 677 l 2
 90 677 71 686 71 699 c 0
 71 728 171 757 225 771 c 0
 260 780 334 787 407 787 c 0
 469 787 479 783 500 761 c 0
 513 746 525 724 525 714 c 0x7c
 525 609 423 507 423 485 c 0
 423 480 428 479 437 479 c 0
 464 479 534 436 550 410 c 0
 566 384 574 341 574 295 c 0
 574 121 448 12 382 12 c 0xba
 361 12 352 24 328 24 c 0x7a
457 715 m 0
 447 726 419 731 384 731 c 0
 364 731 342 730 318 726 c 0
 230 711 225 714 225 672 c 2
 225 652 l 2
 225 620 230 557 237 509 c 0
 247 436 252 424 270 424 c 0
 299 424 413 556 446 628 c 0
 463 666 471 682 471 692 c 0
 471 700 466 705 457 715 c 0
521 281 m 0xba
 521 347 502 412 424 412 c 0
 368 412 318 380 273 364 c 0
 260 359 256 354 256 317 c 0
 256 297 257 270 259 230 c 0
 267 80 272 71 355 68 c 0x7a
 364 68 372 67 379 67 c 0
 414 67 421 75 462 123 c 0
 502 168 521 194 521 281 c 0xba
EndSplineSet
EndChar
StartChar: C
Encoding: 35 67 46
Width: 727
Flags: W
HStem: 10 70<263.8 400.254> 749 61<394.465 516.198>
VStem: 121 60<224.811 487.155>
Back
382 799 m 0
 444 815 470 814 511 795 c 0
 547 779 573 744 573 715 c 0
 573 692 530 702 517 727 c 0
 506 750 498 752 454 745 c 0
 388 735 291 684 248 636 c 0
 204 588 186 508 182 353 c 0
 179 254 182 223 200 181 c 0
 225 121 278 80 329 80 c 0
 363 80 443 117 468 145 c 0
 476 153 498 175 519 196 c 0
 540 216 569 252 584 275 c 0
 628 343 651 354 651 307 c 0
 651 276 583 171 525 112 c 0
 374 -41 221 -21 131 164 c 0
 114 199 121 510 141 579 c 0
 167 674 274 770 382 799 c 0
EndSplineSet
Fore
651 307 m 0
 651 269 501 10 327 10 c 0
 250 10 181 62 131 164 c 0
 124 178 121 233 121 300 c 0
 121 404 129 537 141 579 c 0
 176 707 339 810 450 810 c 0
 511 810 573 763 573 715 c 0
 573 706 566 702 558 702 c 0
 544 702 525 712 517 727 c 0
 510 743 503 749 486 749 c 0
 417 749 300 693 248 636 c 0
 208 593 181 515 181 298 c 0
 181 240 186 214 200 181 c 0
 225 121 278 80 329 80 c 0
 363 80 443 117 468 145 c 2
 519 196 l 2
 579 253 615 336 640 336 c 0
 647 336 651 326 651 307 c 0
EndSplineSet
EndChar
StartChar: D
Encoding: 36 68 47
Width: 855
Flags: W
HStem: 711 81<303.05 467.558>
VStem: 284 70<102.506 320.848> 709 72<362.158 609.992>
Back
223 782 m 0
 352 795 388 795 464 781 c 0
 741 733 811 647 771 406 c 0
 740 221 581 40 415 0 c 0
 386 -7 371 -20 366 -43 c 0
 361 -66 349 -76 328 -76 c 0
 311 -76 297 -70 297 -64 c 0
 297 -57 285 -48 271 -44 c 0
 241 -36 236 17 265 29 c 0
 288 39 290 137 271 261 c 0
 263 308 250 423 241 518 c 2
 225 691 l 1
 189 688 l 2
 168 686 139 672 122 654 c 0
 95 626 90 625 72 645 c 0
 55 663 54 673 66 696 c 0
 74 713 87 725 95 725 c 0
 103 725 116 736 125 749 c 0
 136 766 166 776 223 782 c 0
526 691 m 0
 468 702 390 711 357 711 c 0
 286 711 287 718 316 504 c 0
 327 424 341 319 347 269 c 0
 354 219 356 155 352 127 c 2
 344 76 l 1
 398 76 l 2
 460 76 522 115 600 202 c 0
 674 285 707 372 709 490 c 0
 711 582 708 591 673 629 c 0
 642 662 615 674 526 691 c 0
EndSplineSet
Fore
58 671 m 0
 58 689 80 725 95 725 c 0
 103 725 116 736 125 749 c 0
 136 766 166 776 223 782 c 0
 286 788 327 792 361 792 c 0
 397 792 425 788 464 781 c 0
 694 741 781 675 781 516 c 0
 781 221 565 36 415 0 c 0
 340 -18 386 -76 328 -76 c 0
 311 -76 297 -70 297 -64 c 0
 297 -42 246 -53 246 -5 c 0
 246 10 252 24 265 29 c 0
 278 34 284 66 284 114 c 0
 284 210 265 261 241 518 c 2
 225 691 l 1
 189 688 l 2
 135 683 109 631 91 631 c 0
 82 631 58 655 58 671 c 0
297 668 m 0
 297 595 354 281 354 167 c 0
 354 150 353 137 352 127 c 2
 344 76 l 1
 398 76 l 2
 460 76 522 115 600 202 c 0
 690 303 709 395 709 525 c 0
 709 585 703 596 673 629 c 0
 642 662 615 674 526 691 c 0
 508.108 694.393 417.4 711 345 711 c 0
 311 711 297 709 297 668 c 0
EndSplineSet
EndChar
StartChar: E
Encoding: 37 69 48
Width: 579
Flags: W
HStem: -11 75<164 340.546>
VStem: 66 68<558.235 641.215>
Back
285 782 m 0
 391 802 485 794 485 764 c 0
 485 756 446 743 389 733 c 0
 284 716 181 679 149 648 c 0
 135 633 131 616 135 584 c 0
 138 560 144 500 148 451 c 0
 154 373 157 362 172 371 c 0
 193 384 364 425 406 427 c 0
 424 428 435 421 438 407 c 0
 443 380 415 367 269 330 c 0
 162 304 158 301 159 270 c 0
 159 251 160 199 161 150 c 2
 164 64 l 1
 215 64 l 2
 275 64 383 93 445 126 c 0
 485 148 491 148 506 132 c 0
 533 101 510 77 418 36 c 0
 312 -11 145 -27 120 8 c 0
 109 22 101 83 95 204 c 0
 90 301 80 439 73 513 c 0
 63 621 63 653 75 677 c 0
 83 693 97 707 105 707 c 0
 113 707 146 722 177 740 c 0
 208 757 258 776 285 782 c 0
EndSplineSet
Fore
66 623 m 0
 66 689 97 707 105 707 c 0
 142 707 215 793 394 793 c 0
 448 793 485 783 485 764 c 0
 485 756 446 743 389 733 c 0
 284 716 181 679 149 648 c 0
 138 637 134 624 134 605 c 0
 134 590 140 543 148 451 c 0
 153 387 156 368 165 368 c 0
 167 368 169 369 172 371 c 0
 195 385 376 427 409 427 c 0
 433 427 439 412 439 402 c 0
 439 378 405 364 269 330 c 0
 169 306 159 301 159 275 c 0
 159 250 159.725 212.493 161 150 c 2
 164 64 l 1
 215 64 l 2
 275 64 383 93 445 126 c 0
 467 138 478 143 487 143 c 0
 500 143 517 123 517 109 c 0
 517 64 339 -11 196 -11 c 0
 158 -11 129 -5 120 8 c 0
 96 38 97 263 73 513 c 0
 68 565 66 599 66 623 c 0
EndSplineSet
EndChar
StartChar: F
Encoding: 38 70 49
Width: 602
Flags: W
VStem: 124 92<271.438 341> 124 69<495.154 666> 159 68<14.5904 133.654 133.654 182 182 251.562>
Back
377 777 m 0
 386 783 424 789 461 789 c 0
 511 789 529 784 534 770 c 0
 544 742 527 731 457 718 c 0
 423 712 349 698 294 687 c 2
 193 666 l 1
 193 586 l 2
 193 542 196 487 200 463 c 2
 207 419 l 1
 271 426 l 2
 371 439 460 436 465 421 c 0
 471 403 400 375 300 356 c 2
 216 341 l 1
 224 182 l 2
 231 15 227 -1 182 14 c 0
 162 20 159 32 159 96 c 0
 159 137 151 216 142 272 c 0
 132 331 124 446 124 544 c 2
 124 713 l 1
 197 739 l 2
 237 753 289 765 314 765 c 0
 340 765 367 770 377 777 c 0
EndSplineSet
Fore
314 765 m 0x40
 388 765 360 789 461 789 c 0
 515 789 537 784 537 757 c 0
 537 726 487 726 294 687 c 2
 193 666 l 1
 193 586 l 2x40
 193 542 196 487 200 463 c 2
 207 419 l 1
 271 426 l 2
 314 432 355 434 388 434 c 0
 421 434 465 432 465 419 c 0
 465 401 396 374 300 356 c 2
 216 341 l 1x80
 224 182 l 2
 226 142 227 111 227 86 c 0
 227 27 221 10 202 10 c 0
 197 10 190 11 182 14 c 0
 162 20 159 32 159 96 c 0x20
 159 219 124 300 124 544 c 2
 124 713 l 1
 197 739 l 2
 237 753 289 765 314 765 c 0x40
EndSplineSet
EndChar
StartChar: G
Encoding: 39 71 50
Width: 700
Flags: W
HStem: -6 75<194.336 323.324> 365 94<368.771 474.748> 693 68<442.398 539.95>
VStem: 85 72<130.276 320.931> 537 77<2.6674 245.434>
Back
444 744 m 0
 459 770 542 766 575 737 c 0
 599 715 601 708 588 678 c 0
 571 638 549 635 540 672 c 0
 535 694 528 697 496 690 c 0
 385 665 277 567 201 422 c 0
 161 345 157 328 157 238 c 0
 157 107 175 69 238 69 c 0
 304 69 359 97 403 155 c 0
 450 218 487 303 480 332 c 0
 473 361 441 375 424 357 c 0
 409 340 355 340 315 356 c 0
 273 374 274 419 318 430 c 0
 336 435 353 444 357 451 c 0
 370 471 522 448 554 421 c 0
 588 393 607 293 613 116 c 0
 615 31 612 10 596 -1 c 0
 582 -11 571 -10 557 2 c 0
 542 16 537 45 537 132 c 2
 537 246 l 1
 505 193 l 2
 405 30 265 -44 164 13 c 0
 129 32 118 49 100 115 c 0
 82 180 81 209 91 289 c 0
 104 396 120 435 192 541 c 0
 245 620 323 685 393 711 c 0
 415 720 439 735 444 744 c 0
EndSplineSet
Fore
378 344 m 0
 348 344 284 354 284 395 c 0
 284 435 344 428 357 451 c 0
 360 456 374 459 392 459 c 0
 442 459 530 441 554 421 c 0
 595 387 614 233 614 77 c 0
 614 24 609 8 596 -1 c 0
 590 -6 584 -8 578 -8 c 0
 571 -8 565 -5 557 2 c 0
 542 16 537 45 537 132 c 2
 537 246 l 1
 505 193 l 2
 428 67 326 -6 237 -6 c 0
 212 -6 187 0 164 13 c 0
 129 32 118 49 100 115 c 0
 89 153 85 179 85 210 c 0
 85 232 87 256 91 289 c 0
 104 396 120 435 192 541 c 0
 303 706 424 709 444 744 c 0
 451 756 471 761 495 761 c 0
 558 761 596 727 596 705 c 0
 596 694 579 646 559 646 c 0
 535 646 548 693 519 693 c 0
 476 693 319 647 201 422 c 0
 161 345 157 328 157 238 c 0
 157 107 175 69 238 69 c 0
 304 69 359 97 403 155 c 0
 446 213 481 289 481 324 c 0
 481 347 460 365 443 365 c 0
 420 365 430 344 378 344 c 0
EndSplineSet
EndChar
StartChar: H
Encoding: 40 72 51
Width: 666
Flags: W
VStem: 96 90<55.6793 143 143 233.5 233.5 324> 515 70<72.1368 455.938>
Back
96 801 m 0
 104 821 118 837 127 837 c 0
 139 837 147 785 160 625 c 0
 174 443 179 414 195 421 c 0
 217 432 307 464 404 494 c 0
 440 506 477 521 484 528 c 0
 492 535 501 575 506 617 c 0
 516 713 524 738 547 738 c 0
 576 738 583 682 585 407 c 0
 587 259 591 119 595 95 c 0
 600 61 597 49 580 42 c 0
 533 21 520 66 515 267 c 0
 513 371 506 456 500 456 c 0
 493 456 456 441 418 422 c 0
 380 404 311 374 264 356 c 2
 180 324 l 1
 186 143 l 2
 192 -37 184 -78 149 -53 c 0
 121 -33 112 47 96 405 c 0
 85 679 85 773 96 801 c 0
EndSplineSet
Fore
597 71 m 0
 597 39 566 37 562 37 c 0
 529 37 519 95 515 267 c 0
 513 371 506 456 500 456 c 0
 480 456 402 409 264 356 c 2
 180 324 l 1
 186 143 l 2
 187 108 188 78 188 52 c 0
 188 -28 181 -60 165 -60 c 0
 160 -60 155 -57 149 -53 c 0
 121 -33 112 47 96 405 c 0
 90 542 88 634 88 695 c 0
 88 756 90 787 96 801 c 0
 104 821 118 837 127 837 c 0
 159 837 159 420 191 420 c 0
 198 420 221 437 404 494 c 0
 440 506 477 521 484 528 c 0
 492 535 501 575 506 617 c 0
 516 713 524 738 547 738 c 0
 576 738 583 682 585 407 c 0
 590 71 597 96 597 71 c 0
EndSplineSet
EndChar
StartChar: I
Encoding: 41 73 52
Width: 587
Flags: W
HStem: -18 73<168 223> 696 79<360.59 375 375 416.713>
VStem: 107 366<717 721> 289 73<427.067 691>
Back
301 775 m 0
 322 783 434 781 454 773 c 0
 464 769 473 753 473 741 c 0
 473 717 455 708 390 700 c 2
 360 696 l 1
 362 522 l 2
 363 426 367 292 372 226 c 0
 379 128 383 108 396 120 c 0
 421 143 467 130 467 101 c 0
 467 72 432 51 309 5 c 0
 241 -21 223 -23 180 -10 c 0
 142 1 129 11 129 30 c 0
 129 50 137 55 168 55 c 0
 189 55 229 66 257 78 c 2
 307 101 l 1
 298 288 l 2
 293 392 289 524 289 584 c 2
 289 691 l 1
 260 683 l 2
 171 658 91 667 110 700 c 0
 114 708 156 726 203 742 c 0
 251 758 294 772 301 775 c 0
EndSplineSet
Fore
390 117 m 0xd0
 394 117 405 132 428 132 c 0
 448 132 467 120 467 101 c 0
 467 72 432 51 309 5 c 0
 267 -11 245 -18 223 -18 c 0
 210 -18 197 -15 180 -10 c 0
 142 1 129 11 129 30 c 0
 129 50 137 55 168 55 c 0
 189 55 229 66 257 78 c 2
 307 101 l 1
 298 288 l 2
 293 392 289 524 289 584 c 2
 289 691 l 1xd0
 260 683 l 2
 225 673 192 669 165 669 c 0
 131 669 107 676 107 691 c 0
 107 721 249 753 301 775 c 0
 310 779 337 780 366 780 c 0
 403 780 443 777 454 773 c 0
 464 769 473 753 473 741 c 0xe0
 473 717 455 708 390 700 c 2
 360 696 l 1
 362 522 l 2
 363 464 368 117 390 117 c 0xd0
EndSplineSet
EndChar
StartChar: J
Encoding: 42 74 53
Width: 689
Flags: W
HStem: -53 78<274.511 322.513>
VStem: 98 93<187.204 308.15> 386 66<202.72 640.259>
Back
545 781 m 0
 567 787 587 792 591 793 c 0
 594 794 609 785 622 775 c 0
 656 749 637 731 545 705 c 0
 505 694 467 682 461 677 c 0
 455 673 451 617 452 551 c 0
 455 425 432 164 412 83 c 0
 394 14 352 -53 325 -53 c 0
 291 -53 233 -22 233 -3 c 0
 233 6 226 19 217 25 c 0
 191 41 109 194 100 242 c 0
 91 293 114 321 160 314 c 0
 185 310 189 301 191 238 c 0
 193 183 203 153 232 107 c 0
 287 21 302 10 327 40 c 0
 355 74 386 310 386 494 c 0
 386 670 398 662 211 615 c 0
 110 590 89 588 79 604 c 0
 49 656 69 666 354 734 c 0
 438 754 524 776 545 781 c 0
EndSplineSet
Fore
346 644 m 0
 300 644 149 594 103 594 c 0
 89 594 83 597 79 604 c 0
 73 615 69 624 69 632 c 0
 69 663 128 680 354 734 c 2
 591 793 l 1
 592 793 l 2
 596 793 638 770 638 753 c 0
 638 718 482 694 461 677 c 0
 456 673 452 628 452 571 c 2
 452 527 l 2
 452 394 431 159 412 83 c 0
 394 14 352 -53 325 -53 c 0
 291 -53 233 -22 233 -3 c 0
 233 6 226 19 217 25 c 0
 196 38 98 200 98 263 c 0
 98 296 116 315 147 315 c 0
 187 315 189 299 191 238 c 0
 193 183 203 153 232 107 c 0
 269 49 288 25 304 25 c 0
 312 25 319 30 327 40 c 0
 355 74 386 310 386 494 c 2
 386 547 l 2
 386 619 383 644 346 644 c 0
EndSplineSet
EndChar
StartChar: K
Encoding: 43 75 54
Width: 779
Flags: W
HStem: 7 105<631 720>
VStem: 94 73<564.605 741.68> 115 97<-11.875 215.396>
Back
97 815 m 0
 105 840 138 834 153 805 c 0
 160 791 166 732 167 672 c 0
 167 611 171 538 176 507 c 2
 185 451 l 1
 283 556 l 2
 337 613 389 661 397 661 c 0
 406 661 423 673 436 687 c 0
 448 702 465 713 474 713 c 0
 484 713 499 722 511 734 c 0
 538 763 585 753 590 717 c 0
 593 694 585 686 547 675 c 0
 481 656 192 365 218 342 c 0
 220 340 295 298 385 249 c 0
 476 200 563 149 581 136 c 0
 600 122 622 112 631 112 c 0
 655 112 730 46 730 26 c 0
 730 15 726 7 720 7 c 0
 694 7 573 51 532 75 c 0
 444 127 216 243 203 243 c 0
 193 243 191 223 196 181 c 0
 222 -46 218 -76 170 -63 c 0
 138 -54 133 -28 115 199 c 0
 100 386 88 790 97 815 c 0
EndSplineSet
Fore
94 740 m 0xc0
 94 802 92 831 118 831 c 0
 130 831 144 822 153 805 c 0
 160 791 166 732 167 672 c 0xc0
 167 611 171 538 176 507 c 2
 185 451 l 1
 283 556 l 2
 337 613 389 661 397 661 c 0
 421 661 450 713 474 713 c 0
 501 713 513 751 549 751 c 0
 571 751 591 736 591 709 c 0
 591 692 580 685 547 675 c 0
 484 657 216 389 216 346 c 0
 216 342 216 341 385 249 c 0
 597 135 607 112 631 112 c 0
 655 112 730 46 730 26 c 0
 730 15 726 7 720 7 c 0
 694 7 573 51 532 75 c 0
 444 127 216 243 203 243 c 0
 196 243 193 235 193 217 c 0
 193 184 212 72 212 -6 c 0
 212 -51 204 -66 186 -66 c 0
 132 -66 132 -10 115 199 c 0xa0
 104 341 94 609 94 740 c 0xc0
EndSplineSet
EndChar
StartChar: L
Encoding: 44 76 55
Width: 708
Flags: W
HStem: -10 77<200.077 354.533>
VStem: 97 50<517.482 751> 108 65<108.298 396 396 730.402>
Back
98 779 m 0
 109 799 132 786 147 751 c 0
 154 734 166 593 173 436 c 0
 191 61 190 67 238 67 c 0
 270 67 471 114 599 150 c 0
 620 156 635 153 646 138 c 0
 660 119 659 114 636 94 c 0
 592 58 317 -10 215 -10 c 0
 124 -10 126 -19 108 396 c 0
 99 600 95 773 98 779 c 0
EndSplineSet
Fore
97 752 m 0xc0
 97 764 94 788 112 788 c 0
 123 788 137 775 147 751 c 0xc0
 154 734 166 593 173 436 c 0
 190 73 190 67 234 67 c 0
 294.484 67 607.165 153 617 153 c 0
 643 153 655 126 655 119 c 0
 655 112 649 106 636 94 c 0
 596.777 61.9083 333.496 -10 204 -10 c 0
 124 -10 125 -2 108 396 c 0xa0
 101 555 97 695 97 752 c 0xc0
EndSplineSet
EndChar
StartChar: M
Encoding: 45 77 56
Width: 727
Flags: W
HStem: 320 83<275.587 328.439>
VStem: 71 87<-54.6107 494>
Back
83 789 m 0
 91 800 107 808 120 808 c 0
 137 808 151 779 178 687 c 0
 219 540 281 403 304 403 c 0
 327 403 407 539 502 741 c 0
 526 791 573 818 599 795 c 0
 628 768 634 712 637 413 c 0
 639 222 645 112 657 71 c 0
 669 30 670 7 660 -4 c 0
 642 -23 598 -7 587 24 c 0
 582 37 574 184 569 351 c 0
 563 519 556 658 551 663 c 0
 547 668 529 638 511 597 c 0
 478 522 472 510 418 416 c 0
 390 366 323 320 280 320 c 0
 269 320 237 358 209 407 c 2
 158 494 l 1
 158 236 l 2
 157 -18 149 -71 112 -71 c 0
 80 -71 74 -5 71 374 c 0
 70 652 73 776 83 789 c 0
EndSplineSet
Fore
112 -71 m 0
 79 -71 71 4 71 467 c 0
 71 680 74 778 83 789 c 0
 91 800 107 808 120 808 c 0
 137 808 151 779 178 687 c 0
 219 540 281 403 304 403 c 0
 327 403 407 539 502 741 c 0
 520 779 551 803 577 803 c 0
 585 803 593 801 599 795 c 0
 628 768 634 712 637 413 c 0
 641 17 667 71 667 19 c 0
 667 -6 653 -12 639 -12 c 0
 619 -12 595 2 587 24 c 0
 572 63 566 664 550 664 c 0
 544 664 528 635 511 597 c 0
 478 522 472 510 418 416 c 0
 390 366 323 320 280 320 c 0
 269 320 237 358 209 407 c 2
 158 494 l 1
 158 236 l 2
 157 -18 149 -71 112 -71 c 0
EndSplineSet
EndChar
StartChar: N
Encoding: 46 78 57
Width: 829
Flags: W
HStem: -21 91<595.263 674.033>
VStem: 82 88<110.624 505.978>
Back
102 761 m 0
 113 787 149 794 177 775 c 0
 194 764 313 595 313 582 c 0
 313 577 335 540 361 499 c 0
 388 457 444 357 486 275 c 0
 528 192 576 111 593 93 c 0
 620 65 625 64 636 84 c 0
 643 96 656 206 663 329 c 0
 685 673 691 708 731 713 c 0
 777 720 783 690 764 541 c 0
 755 468 742 326 734 222 c 0
 718 -4 707 -31 635 -19 c 0
 561 -7 506 51 435 195 c 0
 401 263 366 327 359 336 c 0
 352 345 342 370 337 391 c 0
 332 412 302 467 272 512 c 0
 241 558 209 607 201 622 c 0
 182 655 160 312 175 215 c 0
 186 144 161 33 135 33 c 0
 79 34 77 47 85 398 c 0
 89 585 97 748 102 761 c 0
EndSplineSet
Fore
170 314 m 0
 170 225 178 211 178 177 c 0
 178 110 157 33 135 33 c 0
 93 34 82 41 82 189 c 0
 82 350 94 740 102 761 c 0
 109 777 125 786 143 786 c 0
 154 786 166 782 177 775 c 0
 194 764 313 595 313 582 c 0
 313 567 374 495 486 275 c 0
 516 216 592 70 622 70 c 0
 633 70 649 75 663 329 c 0
 685 675 687 714 742 714 c 0
 764 714 774 700 774 656 c 0
 774 602 755 493 734 222 c 0
 720 24 710 -21 659 -21 c 0
 569 -21 506 51 435 195 c 0
 351 363 350 338 337 391 c 0
 325 443 222 582 201 622 c 0
 200 624 199 624 198 624 c 0
 185 624 170 443 170 314 c 0
EndSplineSet
EndChar
StartChar: O
Encoding: 47 79 58
Width: 655
Flags: W
HStem: -26 68<242.206 357.836> 650 97<401.927 483.584>
VStem: 61 75<230.826 379.883> 552 55<385.192 561.65>
Back
404 734 m 0
 418 757 485 749 522 719 c 0
 635 626 636 359 524 129 c 0
 492 64 451 14 428 14 c 0
 419 14 410 7 407 -2 c 0
 404 -11 366 -20 322 -24 c 0
 249 -29 237 -26 194 7 c 0
 139 51 89 143 68 241 c 0
 39 371 105 553 206 624 c 0
 239 647 275 666 286 666 c 0
 296 666 315 678 327 693 c 0
 339 708 360 720 372 720 c 0
 386 720 399 726 404 734 c 0
484 642 m 0
 461 657 410 652 332 627 c 0
 233 596 168 507 146 374 c 0
 131 285 132 272 160 193 c 0
 206 64 272 18 363 54 c 0
 410 72 497 200 507 265 c 0
 511 295 525 359 537 410 c 0
 558 498 558 502 529 566 c 0
 512 603 492 637 484 642 c 0
EndSplineSet
Fore
607 473 m 0
 607 244 481 14 428 14 c 0
 419 14 410 7 407 -2 c 0
 403 -14 337 -26 279 -26 c 0
 242 -26 227 -18 194 7 c 0
 125 62 61 200 61 307 c 0
 61 427 121 564 206 624 c 0
 239 647 275 666 286 666 c 0
 314 666 339 720 372 720 c 0
 412 720 393 747 440 747 c 0
 540 747 607 640 607 473 c 0
552 492 m 0
 552 536 495 635 484 642 c 0
 475 648 463 650 446 650 c 0
 419 650 381 643 332 627 c 0
 233 596 168 507 146 374 c 0
 140 337 136 314 136 293 c 0
 136 263 144 240 160 193 c 0
 196 92 244 42 307 42 c 0
 324 42 343 46 363 54 c 0
 410 72 497 200 507 265 c 0
 518 348 552 452 552 492 c 0
EndSplineSet
EndChar
StartChar: P
Encoding: 48 80 59
Width: 651
Flags: W
HStem: 333 76<226.559 348.794> 732 80<296.014 404.398>
VStem: 131 72<531.456 663.141> 171 68<-25.7121 150.572> 538 61<590.439 688.148>
Back
305 803 m 0
 337 810 380 814 402 811 c 0
 558 791 584 775 597 691 c 0
 605 638 582 527 563 527 c 0
 555 527 550 519 550 508 c 0
 550 477 442 378 396 368 c 0
 374 362 353 353 349 346 c 0
 345 339 316 333 284 333 c 2
 225 333 l 1
 235 153 l 2
 242 17 240 -32 228 -48 c 0
 201 -82 178 -72 171 -23 c 0
 157 80 131 459 131 558 c 2
 131 665 l 1
 101 644 l 2
 84 632 66 627 59 632 c 0
 34 649 48 684 104 742 c 0
 154 795 167 802 204 796 c 0
 228 793 273 795 305 803 c 0
447 720 m 0
 374 737 374 737 282 717 c 0
 226 706 213 697 206 669 c 0
 196 624 210 430 225 414 c 0
 240 397 364 424 421 456 c 0
 447 471 468 494 470 510 c 0
 472 526 488 555 506 576 c 0
 564 643 541 699 447 720 c 0
EndSplineSet
Fore
229 795 m 0xe8
 292 795 323 812 384 812 c 0
 391 812 397 812 402 811 c 0
 524.21 795.332 599 786.245 599 666 c 0
 599 609 579 527 563 527 c 0
 555 527 550 519 550 508 c 0
 550 477 442 378 396 368 c 0
 374 362 353 353 349 346 c 0
 345 339 316 333 284 333 c 2
 225 333 l 1
 235 153 l 2
 238 101 239 62 239 32 c 0
 239 -16 235 -38 228 -48 c 0
 217 -61 207 -68 199 -68 c 0
 185 -68 175 -53 171 -23 c 0xd8
 157 80 131 459 131 558 c 2
 131 665 l 1
 101 644 l 2
 88 635 75 630 66 630 c 0
 59 630 47 639 47 654 c 0
 47 673 66 702 104 742 c 0
 145 785 161 798 185 798 c 0
 199 798 203 795 229 795 c 0xe8
447 720 m 0
 412 728 394 732 374 732 c 0
 353 732 330 727 282 717 c 0
 211 703 203 694 203 617 c 0xe8
 203 543 214 426 225 414 c 0
 228 410 236 409 248 409 c 0
 290 409 376 431 421 456 c 0
 447 471 468 494 470 510 c 0
 476 557 538 593 538 644 c 0
 538 679 507 707 447 720 c 0
EndSplineSet
EndChar
StartChar: Q
Encoding: 49 81 60
Width: 761
Flags: W
HStem: -55 78<212.17 377.779> 661 98<377.422 524.344>
VStem: 50 78<176.88 423.569> 591 54<414.118 593.979>
Back
457 752 m 0
 481 755 514 758 528 759 c 0
 562 762 602 717 630 643 c 0
 657 569 647 425 602 279 c 2
 571 177 l 1
 606 151 l 2
 700 80 768 -18 724 -18 c 0
 709 -18 664 5 643 24 c 0
 635 31 606 51 578 71 c 2
 528 106 l 1
 508 74 l 2
 428 -57 263 -95 156 -8 c 0
 107 32 50 176 50 259 c 0
 50 353 76 467 116 547 c 0
 176 669 282 732 457 752 c 0
546 620 m 0
 514 653 498 658 423 660 c 0
 376 662 328 660 318 657 c 0
 273 641 165 526 165 494 c 0
 165 482 159 465 152 457 c 0
 145 450 136 392 131 328 c 0
 124 226 126 203 151 138 c 0
 184 52 220 23 292 23 c 0
 369 23 468 87 469 138 c 0
 469 154 418 207 349 260 c 0
 313 288 312 291 331 312 c 0
 350 332 357 331 423 286 c 0
 462 259 499 237 506 237 c 0
 512 237 527 267 537 302 c 0
 607 541 607 558 546 620 c 0
EndSplineSet
Fore
116 547 m 0
 184 685 301 743 528 759 c 0
 531 759 l 0
 565 759 603 715 630 643 c 0
 640 616 645 579 645 536 c 0
 645 463 630 371 602 279 c 2
 571 177 l 1
 606 151 l 2
 680 95 738 23 738 -6 c 0
 738 -14 733 -18 724 -18 c 0
 709 -18 664 5 643 24 c 0
 635 31 606 51 578 71 c 2
 528 106 l 1
 508 74 l 2
 457 -9 372 -55 289 -55 c 0
 242 -55 195 -40 156 -8 c 0
 107 32 50 176 50 259 c 0
 50 353 76 467 116 547 c 0
506 237 m 0
 525 237 591 475 591 532 c 0
 591 571 575 590 546 620 c 0
 515 652 503 661 384 661 c 0
 352 661 325 659 318 657 c 0
 273 641 165 526 165 494 c 0
 165 482 159 465 152 457 c 0
 143 448 128 334 128 252 c 0
 128 208 134 183 151 138 c 0
 184 52 220 23 292 23 c 0
 369 23 468 87 469 138 c 0
 469 154 418 207 349 260 c 0
 328 276 319 284 319 292 c 0
 319 300 338 324 352 324 c 0
 380 324 485 237 506 237 c 0
EndSplineSet
EndChar
StartChar: R
Encoding: 50 82 61
Width: 636
Flags: W
HStem: 607 134<116 184.5> 666 75<202 369.867>
VStem: 168 65<-16.75 64.2462 64.2462 154.5 154.5 211.92> 486 59<557.069 626.721>
Back
103 691 m 0
 129 719 152 741 155 741 c 0
 195 743 444 712 478 701 c 0
 566 675 567 567 481 468 c 0
 458 442 439 417 439 413 c 0
 439 404 339 338 280 308 c 0
 258 296 241 285 244 282 c 0
 246 280 284 266 328 252 c 0
 372 237 429 211 454 194 c 0
 480 176 505 162 510 162 c 0
 529 161 587 100 587 82 c 0
 587 44 562 48 473 100 c 0
 424 129 348 166 306 182 c 2
 228 213 l 1
 232 96 l 2
 235 -15 234 -20 210 -24 c 0
 181 -28 168 10 168 98 c 0
 168 185 155 232 127 245 c 0
 88 263 87 298 126 316 c 2
 159 331 l 1
 151 445 l 2
 141 590 133 621 111 602 c 0
 89 584 57 595 57 622 c 0
 57 633 77 664 103 691 c 0
412 647 m 0
 376 657 314 666 274 666 c 2
 202 666 l 1
 209 612 l 2
 213 582 219 515 224 461 c 0
 228 407 234 364 236 364 c 0
 255 364 362 423 394 452 c 0
 433 486 497 609 484 623 c 0
 481 626 448 637 412 647 c 0
EndSplineSet
Fore
57 622 m 0xb0
 57 646.471 144.443 741 159 741 c 0
 210 741 445 712 478 701 c 0
 523 688 545 654 545 610 c 0
 545 512 439 431 439 413 c 0
 439 404 339 338 280 308 c 0
 260 297 244 287 244 283 c 0
 244 277 387 240 454 194 c 0
 480 176 505 162 510 162 c 0
 529 161 587 100 587 82 c 0
 587 65 582 57 569 57 c 0
 530 57 433 133 306 182 c 2
 228 213 l 1
 232 96 l 2
 233 69 233 49 233 33 c 0
 233 -0 235 -24 206 -24 c 0
 180 -24 168 14 168 98 c 0
 168 185 155 232 127 245 c 0
 107 254 97 268 97 281 c 0
 97 294 107 307 126 316 c 2
 159 331 l 1
 151 445 l 2
 143 565 136 607 121 607 c 0
 111 607 109 593 87 593 c 0
 71 593 57 604 57 622 c 0xb0
486 617 m 0
 486 623 489 626 412 647 c 0
 376 657 314 666 274 666 c 2
 202 666 l 1x70
 209 612 l 2
 216 560 231 364 236 364 c 0
 255 364 362 423 394 452 c 0
 429 483 486 588 486 617 c 0
EndSplineSet
EndChar
StartChar: S
Encoding: 51 83 62
Width: 579
Flags: W
HStem: 681 54<270.416 444.526>
VStem: 61 79<453.441 562.087> 92 53<107.761 160.608> 440 68<150.582 250.446>
Back
236 718 m 0
 254 727 306 735 350 735 c 0
 418 736 438 731 473 703 c 0
 496 684 516 656 516 642 c 0
 516 609 509 610 460 649 c 0
 387 708 262 683 183 594 c 0
 148 554 129 486 146 463 c 0
 165 438 258 392 346 364 c 0
 478 323 528 254 500 154 c 0
 469 50 413 19 230 7 c 2
 140 1 l 1
 113 57 l 2
 72 138 92 215 153 215 c 0
 180 215 182 172 157 150 c 0
 142 136 141 126 152 101 c 0
 165 71 173 69 254 69 c 0
 323 69 350 75 382 99 c 0
 434 136 440 147 440 200 c 0
 440 240 434 247 370 277 c 0
 331 295 291 309 281 309 c 0
 223 309 61 447 61 496 c 0
 61 567 147 676 236 718 c 0
EndSplineSet
Fore
175 188 m 0xb0
 175 152 145 150 145 127 c 0xb0
 145 120 147 112 152 101 c 0
 165 71 173 69 254 69 c 0
 323 69 350 75 382 99 c 0
 434 136 440 147 440 200 c 0
 440 240 434 247 370 277 c 0
 331 295 291 309 281 309 c 0
 223 309 61 447 61 496 c 0
 61 567 147 676 236 718 c 0
 256.256 728.128 305.705 735 365 735 c 0
 421 735 441 729 473 703 c 0
 496 684 516 656 516 642 c 0
 516 626 514 618 508 618 c 0
 482 618 453 681 363 681 c 0
 250 681 140 581 140 488 c 0
 140 438.4 268.199 388.755 346 364 c 0
 454 330 508 278 508 205 c 0
 508 189 505 172 500 154 c 0
 469 50 413 19 230 7 c 2
 140 1 l 1xd0
 113 57 l 2
 98 86 92 114 92 139 c 0
 92 183 114 215 153 215 c 0
 167 215 175 203 175 188 c 0xb0
EndSplineSet
EndChar
StartChar: T
Encoding: 52 84 63
Width: 832
Flags: W
HStem: 689 78<665.307 787.491>
Back
564 746 m 0
 694 771 720 773 766 756 c 0
 837 731 801 689 708 689 c 0
 672 689 607 681 565 671 c 2
 488 653 l 1
 503 569 l 2
 510 523 522 395 529 285 c 0
 536 174 544 57 548 24 c 0
 554 -27 552 -38 536 -44 c 0
 492 -60 479 -3 462 274 c 0
 450 472 429 612 410 632 c 0
 399 643 380 643 332 633 c 0
 297 626 246 620 221 620 c 0
 195 620 159 615 138 609 c 0
 95 596 45 611 45 636 c 0
 45 657 70 666 158 677 c 0
 246 689 419 718 564 746 c 0
EndSplineSet
Fore
221 620 m 0
 163 620 134 604 105 604 c 0
 73 604 45 617 45 636 c 0
 45 676 117 660 564 746 c 0
 638 760 679 767 708 767 c 0
 747 767 803 748 803 725 c 0
 803 706 767 689 708 689 c 0
 672 689 607 681 565 671 c 2
 488 653 l 1
 503 569 l 2
 523 434 538 106 548 24 c 0
 550 7 551 -6 551 -15 c 0
 551 -24 551 -46 524 -46 c 0
 489 -46 477 25 462 274 c 0
 450 472 429 612 410 632 c 0
 404 638 397 640 384 640 c 0
 360 640 280 620 221 620 c 0
EndSplineSet
EndChar
StartChar: U
Encoding: 53 85 64
Width: 677
Flags: W
HStem: -11 70<248.544 342.643>
VStem: 95 67<415.73 736.574> 560 68<385.212 599.128>
Back
515 753 m 0
 551 775 571 758 591 689 c 0
 600 657 612 627 618 620 c 0
 624 614 628 568 628 519 c 0
 626 231 515 33 332 -10 c 0
 297 -18 220 9 186 42 c 0
 147 80 112 286 99 544 c 0
 92 697 94 723 111 737 c 0
 145 765 154 746 162 630 c 0
 178 415 221 121 242 90 c 0
 269 48 317 49 387 93 c 0
 466 143 507 210 539 341 c 0
 570 468 567 547 525 668 c 0
 503 729 502 744 515 753 c 0
EndSplineSet
Fore
628 519 m 0
 625 80 380 -11 318 -11 c 0
 279 -11 216 13 186 42 c 0
 120 106 95 556 95 663 c 0
 95 714 100 728 111 737 c 0
 120 744 127 748 133 748 c 0
 150 748 156 716 162 630 c 0
 178 415 221 121 242 90 c 0
 255 69 273 59 297 59 c 0
 321 59 351 70 387 93 c 0
 466 143 507 210 539 341 c 0
 553 397 560 444 560 489 c 0
 560 609 507 699 507 736 c 0
 507 758 536 762 541 762 c 0
 586 762 594 649 618 620 c 0
 624 614 628 568 628 519 c 0
EndSplineSet
EndChar
StartChar: V
Encoding: 54 86 65
Width: 742
Flags: W
VStem: 114 55<613 685>
Back
76 757 m 0
 99 780 119 772 135 735 c 0
 142 719 153 705 159 705 c 0
 164 705 169 696 169 685 c 0
 169 674 184 632 202 592 c 0
 220 552 256 458 282 382 c 0
 335 227 376 128 387 129 c 0
 398 129 481 334 509 430 c 0
 549 572 627 753 649 757 c 0
 660 759 677 752 687 741 c 0
 700 724 694 695 652 585 c 0
 624 511 587 411 571 362 c 0
 554 312 512 213 478 138 c 0
 428 30 410 5 387 5 c 0
 343 5 329 27 272 183 c 0
 243 263 196 388 167 464 c 0
 138 539 114 606 114 613 c 0
 114 620 102 640 87 660 c 0
 56 699 52 733 76 757 c 0
EndSplineSet
Fore
60 721 m 0
 60 748 85 770 101 770 c 0
 131 770 140 705 159 705 c 0
 164 705 169 696 169 685 c 0
 169 657 215 577 282 382 c 0
 335 228 376 129 387 129 c 0
 398 129 481 334 509 430 c 0
 544.687 556.688 624.2 757 653 757 c 0
 661 757 693 751 693 720 c 0
 693 672 626 529 571 362 c 0
 554 312 512 213 478 138 c 0
 428 30 410 5 387 5 c 0
 343 5 329 27 272 183 c 2
 167 464 l 2
 138 539 114 606 114 613 c 0
 114 635 60 678 60 721 c 0
EndSplineSet
EndChar
StartChar: W
Encoding: 55 87 66
Width: 878
Flags: W
Back
734 589 m 0
 756 702 779 794 784 794 c 0
 841 794 844 767 808 591 c 0
 794 522 771 406 756 331 c 0
 741 256 724 179 718 158 c 0
 711 138 706 105 706 85 c 0
 706 18 644 19 617 86 c 0
 608 108 596 125 590 125 c 0
 585 125 576 144 571 167 c 0
 558 230 493 360 459 392 c 2
 429 421 l 1
 399 346 l 2
 346 210 323 145 295 50 c 0
 271 -30 263 -42 237 -42 c 0
 213 -42 205 -32 194 19 c 0
 177 95 143 265 128 350 c 0
 121 386 110 434 103 460 c 0
 96 484 89 520 89 539 c 0
 89 558 84 575 77 577 c 0
 71 580 63 614 61 653 c 0
 58 708 62 724 77 724 c 0
 111 724 141 630 203 322 c 0
 222 228 243 152 249 155 c 0
 256 157 283 225 309 305 c 0
 335 384 364 464 373 480 c 0
 421 571 550 453 615 258 c 0
 626 224 641 195 648 193 c 0
 662 189 693 301 693 354 c 0
 693 370 711 476 734 589 c 0
EndSplineSet
Fore
693 354 m 0
 693 389 771 794 784 794 c 0
 817 794 832 785 832 744 c 0
 832 714 823 666 808 591 c 2
 756 331 l 2
 713 114 706 134 706 85 c 0
 706 52 691 35 672 35 c 0
 622 35 610 125 590 125 c 0
 585 125 576 144 571 167 c 0
 558 230 493 360 459 392 c 2
 429 421 l 1
 399 346 l 2
 261 -9 286 -42 237 -42 c 0
 213 -42 205 -32 194 19 c 0
 142 250 132 351 103 460 c 0
 96 484 89 520 89 539 c 0
 89 599 60 545 60 682 c 0
 60 714 65 724 77 724 c 0
 111 724 141 630 203 322 c 0
 222 230 242 155 249 155 c 0
 265 155 347 433 373 480 c 0
 384 501 400 511 418 511 c 0
 478 511 565 407 615 258 c 0
 623 233 640 193 649 193 c 0
 663 193 693 302 693 354 c 0
EndSplineSet
EndChar
StartChar: X
Encoding: 56 88 67
Width: 761
Flags: W
Back
43 748 m 0
 61 778 94 756 242 612 c 0
 328 529 399 461 400 461 c 0
 401 461 421 493 445 532 c 0
 495 614 593 721 619 721 c 0
 664 721 650 672 583 602 c 0
 567 585 533 527 507 473 c 2
 459 374 l 1
 503 326 l 2
 527 300 572 256 601 230 c 0
 726 116 747 75 688 56 c 0
 663 48 639 67 538 172 c 2
 418 297 l 1
 386 246 l 2
 368 217 340 167 323 133 c 0
 305 99 288 68 283 65 c 0
 279 61 266 40 254 17 c 0
 231 -30 178 -46 165 -11 c 0
 160 3 191 71 246 167 c 0
 295 253 338 337 343 354 c 0
 349 380 325 412 213 530 c 0
 59 691 31 728 43 748 c 0
EndSplineSet
Fore
41 739 m 0
 41 747 49 760 61 760 c 0
 84 760 131 720 242 612 c 0
 328 529 399 461 400 461 c 0
 401 461 421 493 445 532 c 0
 495 614 593 721 619 721 c 0
 637 721 645 714 645 700 c 0
 645 680 624 645 583 602 c 0
 567 585 533 527 507 473 c 2
 459 374 l 1
 503 326 l 2
 587 234 720 136 720 86 c 0
 720 61 683 54 678 54 c 0
 655 54 626 81 538 172 c 2
 418 297 l 1
 386 246 l 2
 332 158 295 72 283 65 c 1
 264 46 244 -30 192 -30 c 0
 170 -30 164 -12 164 -7 c 0
 164 45 344 323 344 361 c 0
 344 426 41 680 41 739 c 0
EndSplineSet
EndChar
StartChar: Y
Encoding: 57 89 68
Width: 730
Flags: W
VStem: 614 74<696.341 760.259>
Back
622 776 m 0
 633 787 636 787 667 770 c 0
 689 757 691 747 684 702 c 0
 675 638 577 441 523 376 c 0
 503 352 483 320 479 306 c 0
 474 291 441 209 404 122 c 0
 367 36 331 -52 323 -72 c 0
 307 -111 276 -116 255 -81 c 0
 241 -59 261 -4 362 210 c 2
 421 336 l 1
 256 504 l 2
 72 690 57 711 79 740 c 0
 97 762 122 742 310 553 c 0
 378 486 442 430 452 430 c 0
 475 430 486 445 539 546 c 0
 563 591 589 641 598 657 c 0
 606 673 614 704 614 726 c 0
 614 749 618 771 622 776 c 0
EndSplineSet
Fore
614 726 m 0
 614 757 618 784 635 784 c 0
 641 784 650 779 667 770 c 0
 682 761 688 754 688 736 c 0
 688 642 564 426 523 376 c 0
 478 322 492 328 404 122 c 2
 323 -72 l 2
 314 -93 301 -104 287 -104 c 0
 271 -104 251 -86 251 -65 c 0
 251 -34 279 35 362 210 c 2
 421 336 l 1
 256 504 l 2
 112 650 71 694 71 721 c 0
 71 732 80 747 92 747 c 0
 114 747 160 704 310 553 c 0
 378 486 442 430 452 430 c 0
 491 430 513 506 598 657 c 0
 606 673 614 704 614 726 c 0
EndSplineSet
EndChar
StartChar: Z
Encoding: 58 90 69
Width: 932
Flags: W
HStem: -3 71<329.861 568.646> 33 74<555.82 794.727> 559 21G<80.5 95.5> 641 71<330.138 594.63>
VStem: 248 75<81.7793 146.115> 595 74<561.147 637.323>
Back
391 701 m 0
 605 726 669 710 669 634 c 0
 669 590 619 487 577 444 c 0
 476 342 323 136 323 102 c 0
 323 66 465 56 555 86 c 0
 585 96 646 105 692 107 c 0
 737 108 778 113 781 118 c 0
 785 123 812 130 840 135 c 0
 882 141 894 139 900 123 c 0
 911 95 884 68 844 68 c 0
 825 68 800 60 786 50 c 0
 772 40 735 33 698 33 c 0
 663 32 596 24 552 14 c 0
 439 -12 250 -7 231 22 c 0
 221 38 221 50 233 68 c 0
 241 81 248 98 248 105 c 0
 248 120 338 264 351 269 c 0
 356 272 360 279 360 288 c 0
 360 301 436 390 506 460 c 0
 541 494 595 591 595 620 c 0
 595 639 582 641 485 641 c 0
 421 641 355 634 325 624 c 0
 297 614 238 600 196 593 c 0
 154 585 115 574 111 567 c 0
 98 547 36 568 41 591 c 0
 47 621 251 685 391 701 c 0
EndSplineSet
Fore
41 588 m 0xbc
 41 628 332 712 540 712 c 0
 636 712 669 688 669 634 c 0
 669 590 619 487 577 444 c 0
 476 342 323 136 323 102 c 0
 323 81 374 68 433 68 c 0xbc
 547 68 553 101 692 107 c 0x7c
 808 110 750 119 840 135 c 0
 854 137 865 138 873 138 c 0
 889 138 902 133 902 110 c 0
 902 87 878 68 844 68 c 0xbc
 787 68 798 33 698 33 c 0x7c
 576 30 536 -3 379 -3 c 0
 248 -3 224 16 224 43 c 0
 224 61 248 86 248 105 c 0
 248 120 338 264 351 269 c 1
 356 272 360 279 360 288 c 0
 360 301 436 390 506 460 c 0
 541 494 595 591 595 620 c 0
 595 639 582 641 485 641 c 0
 326 641 331 616 196 593 c 0
 154 585 115 574 111 567 c 0
 107 561 100 559 91 559 c 0
 70 559 41 573 41 588 c 0xbc
EndSplineSet
EndChar
StartChar: bracketleft
Encoding: 59 91 70
Width: 485
Flags: W
HStem: -65 60<221.792 296.285 292.672 299.898> 644 58<258.91 314.983>
VStem: 130 250
Back
253 698 m 0
 292 704 294 704 317 698 c 0
 332 694 337 686 335 672 c 0
 333 655 324 650 277 644 c 0
 246 640 217 633 212 627 c 0
 207 622 192 618 179 618 c 0
 166 618 160 615 165 611 c 0
 176 603 190 459 207 189 c 0
 220 -24 211 -7 298 -2 c 0
 362 2 373 0 378 -14 c 0
 382 -24 380 -37 374 -44 c 0
 361 -61 201 -73 184 -58 c 0
 167 -44 161 -2 150 209 c 0
 145 309 136 441 130 503 c 0
 116 650 119 660 180 679 c 0
 207 687 240 696 253 698 c 0
EndSplineSet
Fore
342 -0 m 0
 365 -0 380 -2 380 -25 c 0
 380 -32 378 -39 374 -44 c 0
 365 -56 288 -65 235 -65 c 0
 209 -65 189 -63 184 -58 c 0
 149 -29 158 215 130 503 c 0
 126 547 123 579 123 603 c 0
 123 657 137 666 180 679 c 0
 234 695 269 702 291 702 c 0
 299 702 306 701 317 698 c 0
 330 695 335 688 335 677 c 0
 335 655 325 650 277 644 c 0
 190 633 221 618 179 618 c 0
 166 618 160 615 165 611 c 0
 176 603 190 459 207 189 c 0
 217 19 214 -5 256 -5 c 0
 273 -5 307 -0 342 -0 c 0
EndSplineSet
EndChar
StartChar: backslash
Encoding: 60 92 71
Width: 693
Flags: W
VStem: 52 65<612.083 666.72>
Back
53 662 m 0
 64 681 113 668 117 646 c 0
 118 635 154 586 197 536 c 0
 297 419 352 347 386 289 c 0
 401 263 419 236 426 229 c 0
 448 207 520 108 541 71 c 0
 551 51 569 24 579 11 c 0
 594 -10 595 -16 583 -27 c 0
 559 -50 530 -34 501 19 c 0
 486 46 445 106 411 152 c 0
 376 198 334 256 317 281 c 0
 282 335 205 431 150 491 c 0
 127 516 106 544 103 554 c 0
 100 564 94 571 90 571 c 0
 78 571 45 650 53 662 c 0
EndSplineSet
Fore
52 656 m 0
 52 668 65 671 74 671 c 0
 92 671 114 661 117 646 c 0
 120 612 306 425 386 289 c 0
 401 263 419 236 426 229 c 0
 448 207 520 108 541 71 c 0
 566 22 591 1 591 -13 c 0
 591 -23 575 -37 560 -37 c 0
 542 -37 521 -18 501 19 c 0
 463 87 360 218 317 281 c 0
 236 406 112 524 103 554 c 0
 100 564 94 571 90 571 c 0
 79 571 52 634 52 656 c 0
EndSplineSet
EndChar
StartChar: bracketright
Encoding: 61 93 72
Width: 538
Flags: W
HStem: 627 45<195.68 301.91>
VStem: 150 234<127 626 649.431 1049.89> 328 56<32 166.431 166.431 566.887>
Back
205 667 m 0
 238 674 328 673 339 666 c 0
 363 650 384 396 384 127 c 2
 384 -9 l 1
 361 -20 l 2
 328 -34 182 -36 177 -22 c 0
 173 -9 189 -3 266 17 c 2
 328 32 l 1
 330 143 l 2
 334 276 318 559 305 599 c 0
 294 631 273 635 205 616 c 0
 174 607 164 607 155 617 c 0
 146 626 149 632 166 646 c 0
 178 656 196 665 205 667 c 0
EndSplineSet
Fore
172 609 m 0xa0
 156 609 150 623 150 626 c 0
 150 636 183 662 205 667 c 0
 220 670 248 672 274 672 c 0
 305 672 333 670 339 666 c 0
 363 650 384 396 384 127 c 2xc0
 384 -9 l 1
 361 -20 l 2
 343 -27 293 -32 250 -32 c 0
 187 -32 176 -26 176 -19 c 0
 176 -8 196 -1 266 17 c 2
 328 32 l 1
 330 143 l 2
 330 157 331 173 331 190 c 0
 331 334 317 563 305 599 c 0
 298 618 288 627 266 627 c 0
 233 627 191 609 172 609 c 0xa0
EndSplineSet
EndChar
StartChar: asciicircum
Encoding: 62 94 73
Width: 447
Flags: W
HStem: 718 77<181.109 236.088>
VStem: 70 296<587 616 587 616 587 587>
Back
146 724 m 0
 173 767 196 795 205 795 c 0
 219 795 266 750 333 673 c 0
 357 645 368 625 366 613 c 0
 362 574 338 586 273 658 c 0
 200 740 207 740 149 644 c 0
 117 589 107 579 89 579 c 0
 68 579 67 581 74 603 c 0
 78 616 86 634 91 640 c 0
 97 647 121 684 146 724 c 0
EndSplineSet
Fore
205 795 m 0
 225 795 366 651 366 616 c 0
 366 610 364 591 352 591 c 0
 317 591 235 718 207 718 c 0
 192 718 179 694 149 644 c 0
 117 589 107 579 89 579 c 0
 75 579 70 580 70 587 c 0
 70 597 84 632 91 640 c 0
 114 667 183 795 205 795 c 0
EndSplineSet
EndChar
StartChar: underscore
Encoding: 63 95 74
Width: 598
Flags: W
HStem: -22 36<61.2884 109.813> -22 76
VStem: 43 496<3 9>
Back
401 51 m 0
 403 54 435 55 472 54 c 0
 539 51 539 51 539 34 c 0
 539 16 539 16 459 11 c 0
 415 9 338 2 287 -4 c 0
 122 -24 65 -27 53 -14 c 0
 36 4 41 12 68 14 c 0
 81 14 97 15 102 16 c 0
 108 17 138 20 169 23 c 0
 306 36 397 47 401 51 c 0
EndSplineSet
Fore
446 54 m 0x60
 542 54 539 49 539 34 c 0
 539 3 529 24 287 -4 c 0
 188 -16 128 -22 93 -22 c 0
 70 -22 58 -19 53 -14 c 0
 46 -7 43 -2 43 3 c 0
 43 9 51 13 68 14 c 0xa0
 86 14 393 43 401 51 c 1
 402 53 421 54 446 54 c 0x60
EndSplineSet
EndChar
StartChar: grave
Encoding: 64 96 75
Width: 420
Flags: W
HStem: 545 152
VStem: 112 147
Back
118 685 m 0
 125 692 133 697 137 697 c 0
 141 697 171 670 204 636 c 0
 253 586 262 573 258 559 c 0
 254 546 249 543 237 547 c 0
 220 553 173 596 132 643 c 0
 109 670 108 673 118 685 c 0
EndSplineSet
Fore
112 673 m 0
 112 683 130 697 137 697 c 0
 142 697 259 592 259 565 c 0
 259 561 256 545 245 545 c 0
 217 545 112 659 112 673 c 0
EndSplineSet
EndChar
StartChar: a
Encoding: 65 97 76
Width: 556
Flags: W
HStem: -1 47<172.447 289.62> 240 52<226.599 378.42> 498 51<291.77 401.702>
VStem: 94 398<41 120 41 120 120 120> 94 50<60.2437 173.297> 435 48<238.071 453.532>
Back
263 528 m 0
 363 567 418 553 457 477 c 0
 481 430 481 427 483 247 c 0
 484 147 488 57 491 48 c 0
 494 38 490 24 479 11 c 0
 463 -8 461 -9 448 4 c 0
 439 12 431 39 427 74 c 0
 421 127 420 130 409 111 c 0
 383 68 296 10 242 0 c 0
 212 -6 143 11 120 29 c 0
 102 43 89 102 95 141 c 0
 102 186 130 218 197 255 c 0
 264 294 341 303 370 277 c 0
 381 267 393 259 396 259 c 0
 399 259 410 253 420 245 c 0
 437 231 437 231 433 326 c 0
 429 436 410 488 374 497 c 0
 354 502 279 488 249 474 c 0
 242 471 209 455 176 441 c 0
 111 411 92 414 108 451 c 0
 114 467 130 478 163 490 c 0
 189 499 234 516 263 528 c 0
386 218 m 0
 359 242 279 248 232 229 c 0
 184 210 144 155 144 110 c 0
 144 77 147 70 171 57 c 0
 190 47 206 44 230 48 c 0
 271 55 346 93 346 106 c 0
 346 112 360 129 378 146 c 0
 415 182 416 192 386 218 c 0
EndSplineSet
Fore
362 498 m 0xe4
 256 498 161 421 115 421 c 0
 107 421 103 424 103 431 c 0
 103 479 160 485 263 528 c 0
 299 542 329 549 354 549 c 0
 400 549 432 526 457 477 c 0
 481 430 481 427 483 247 c 0xe4
 485 76 492 41 492 41 c 2
 492 20 467 -5 461 -5 c 0
 427 -5 426 122 418 122 c 0
 416 122 413 118 409 111 c 0
 384 70 285 -1 227 -1 c 0
 194 -1 140 14 120 29 c 0
 105 41 94 83 94 120 c 0xf0
 94 174 118 211 197 255 c 0
 238 279 284 292 319 292 c 0
 374 292 381 259 396 259 c 0
 404 259 427 238 431 238 c 0
 434 238 435 244 435 260 c 0
 435 450 406 498 362 498 c 0xe4
407 188 m 0
 407 198 388 240 299 240 c 0
 176 240 144 143 144 110 c 0xe8
 144 77 147 70 171 57 c 0
 185 50 197 46 211 46 c 0
 261 46 346 94 346 106 c 0
 346 123 407 164 407 188 c 0
EndSplineSet
EndChar
StartChar: b
Encoding: 66 98 77
Width: 655
Flags: W
HStem: -23 55<229.613 308.276> 478 64<442.543 514.266>
VStem: 537 58<252.131 455.314>
Back
99 840 m 0
 134 874 143 856 151 739 c 0
 155 679 164 591 171 547 c 0
 178 501 186 440 189 409 c 2
 194 354 l 1
 272 431 l 2
 331 490 363 513 403 526 c 0
 475 549 492 548 536 516 c 0
 636 442 605 224 476 95 c 0
 420 39 308 -23 264 -23 c 0
 220 -23 150 16 144 43 c 0
 141 56 136 144 133 239 c 0
 130 335 121 459 112 517 c 0
 103 575 92 667 88 722 c 0
 82 809 84 825 99 840 c 0
511 462 m 0
 494 480 475 482 422 472 c 0
 394 467 316 398 263 331 c 0
 206 257 190 86 237 45 c 0
 256 28 261 27 314 44 c 0
 372 62 443 123 491 197 c 0
 542 276 553 417 511 462 c 0
EndSplineSet
Fore
474 542 m 0
 506 542 595 506 595 372 c 0
 595 281 553 172 476 95 c 0
 420 39 308 -23 264 -23 c 0
 220 -23 150 16 144 43 c 0
 136 79 134 377 112 517 c 0
 99 599 85 733 85 789 c 0
 85 820 89 830 99 840 c 0
 109 850 117 855 123 855 c 0
 156 855 144 715 171 547 c 0
 178 501 186 440 189 409 c 2
 194 354 l 1
 272 431 l 2
 331 490 363 513 403 526 c 0
 435 536 457 542 474 542 c 0
537 367 m 0
 537 415 526 478 471 478 c 0
 458 478 443 476 422 472 c 0
 394 467 316 398 263 331 c 0
 229 287 209 208 209 142 c 0
 209 58 242 32 264 32 c 0
 274 32 288 36 314 44 c 0
 372 62 443 123 491 197 c 0
 521 243 537 310 537 367 c 0
EndSplineSet
EndChar
StartChar: c
Encoding: 67 99 78
Width: 569
Flags: W
HStem: -4 58<204.125 323.412> 490 55<242.712 403.244>
VStem: 48 57<182.703 333.811>
Back
249 538 m 0
 271 544 309 546 335 544 c 0
 426 535 520 448 503 387 c 0
 494 352 461 356 456 392 c 0
 455 405 439 432 423 450 c 0
 397 478 384 483 333 487 c 0
 242 495 224 487 177 419 c 0
 116 333 98 275 107 201 c 0
 113 149 120 135 160 97 c 0
 199 60 211 54 248 54 c 0
 304 54 370 94 438 172 c 0
 492 232 529 249 529 213 c 0
 529 189 446 85 400 53 c 0
 307 -13 247 -20 160 23 c 0
 87 59 58 113 51 230 c 0
 45 310 47 322 75 373 c 0
 113 445 197 524 249 538 c 0
EndSplineSet
Fore
505 402 m 0
 505 379 493 363 480 363 c 0
 469 363 459 373 456 392 c 0
 455 405 439 432 423 450 c 0
 405 470 391 490 287 490 c 0
 234 490 215 474 177 419 c 0
 126 347 105 294 105 235 c 0
 105 146 131 125 160 97 c 0
 199 60 211 54 248 54 c 0
 304 54 370 94 438 172 c 0
 473 211 501 232 516 232 c 0
 524 232 529 226 529 213 c 0
 529 189 446 85 400 53 c 0
 346 14 302 -4 259 -4 c 0
 227 -4 196 5 160 23 c 0
 87 59 58 113 51 230 c 0
 49 253 48 270 48 284 c 0
 48 320 55 336 75 373 c 0
 113 445 197 524 249 538 c 0
 266 542 291 545 314 545 c 0
 422 545 505 457 505 402 c 0
EndSplineSet
EndChar
StartChar: d
Encoding: 68 100 79
Width: 715
Flags: W
HStem: -10 67<219.479 351.744> 472 69<300.523 358.137>
VStem: 70 72<132.429 295.311> 534 93<223.524 318.418> 559 82<-47.915 75.5762 803.188 845.768> 560 70<481.12 751.812>
Back
572 952 m 0
 581 973 594 983 611 983 c 2
 638 983 l 1
 630 572 l 2
 625 319 626 124 634 65 c 0
 644 -17 643 -34 628 -50 c 0
 614 -64 604 -66 588 -56 c 0
 572 -46 565 -19 559 50 c 0
 556 101 549 146 545 150 c 0
 541 154 524 141 508 122 c 0
 412 9 299 -34 198 4 c 0
 98 42 59 117 72 245 c 0
 84 360 178 488 279 526 c 0
 336 548 336 548 405 515 c 0
 443 497 488 464 506 441 c 0
 524 418 543 402 549 406 c 0
 555 410 560 527 560 667 c 0
 560 807 566 935 572 952 c 0
407 433 m 0
 375 454 337 472 325 472 c 0
 298 472 169 347 152 304 c 0
 137 266 139 147 155 117 c 0
 162 104 190 83 216 72 c 0
 293 38 349 58 452 157 c 0
 500 203 535 247 534 261 c 0
 533 304 466 393 407 433 c 0
EndSplineSet
Fore
641 -10 m 0xe8
 641 -58 610 -62 606 -62 c 0
 568 -62 564 -2 559 50 c 0xe8
 558 64 552 151 543 151 c 0
 537 151 522 139 508 122 c 0
 435 36 352 -10 272 -10 c 0
 247 -10 222 -5 198 4 c 0
 110 37 70 99 70 200 c 0
 70 381 204 498 279 526 c 0
 305 536 319 541 333 541 c 0
 366 541 472 485 506 441 c 0
 522 420 539 405 547 405 c 0
 548 405 548 406 549 406 c 1
 555 410 560 527 560 667 c 0
 560 807 566 935 572 952 c 0
 581 973 594 983 611 983 c 2
 638 983 l 1
 630 572 l 2xe4
 628 470 627 377 627 299 c 0xf0
 627 26 641 54 641 -10 c 0xe8
407 433 m 0
 375 454 337 472 325 472 c 0
 298 472 169 347 152 304 c 0
 145 287 142 252 142 217 c 0
 142 175 146 133 155 117 c 0
 166 97 225 57 280 57 c 0
 330 57 379 87 452 157 c 0
 499 202 534 246 534 260 c 0xf0
 534 305 463 395 407 433 c 0
EndSplineSet
EndChar
StartChar: e
Encoding: 69 101 80
Width: 617
Flags: W
HStem: -10 55<215.281 367.658> 275 50<120.003 175.1> 502 47<224.705 349.657>
VStem: 51 59<158.445 275> 452 57<383.065 437.481>
Back
195 521 m 0
 244 551 247 552 318 546 c 0
 381 541 396 537 430 511 c 0
 472 479 509 421 509 387 c 0
 509 345 483 327 387 306 c 0
 337 295 253 283 203 280 c 2
 110 275 l 1
 110 235 l 2
 110 182 129 143 179 95 c 0
 263 13 358 32 489 156 c 0
 538 202 564 220 571 214 c 0
 584 201 536 123 490 83 c 0
 405 8 310 -24 232 -4 c 0
 159 15 87 90 66 169 c 0
 48 239 46 304 61 352 c 0
 79 408 141 487 195 521 c 0
407 459 m 0
 362 499 352 503 311 502 c 0
 251 501 229 492 196 454 c 0
 139 389 120 360 120 338 c 0
 120 324 129 323 193 328 c 0
 261 334 320 344 402 363 c 0
 426 369 444 380 449 393 c 0
 457 411 450 421 407 459 c 0
EndSplineSet
Fore
568 215 m 0
 570 215 573 214 573 207 c 0
 573 184 531 118 490 83 c 0
 422 23 347 -10 280 -10 c 0
 178 -10 51 84 51 279 c 0
 51 306 54 331 61 352 c 0
 84 423 187 549 270 549 c 0
 282 549 297 548 318 546 c 0
 381 541 396 537 430 511 c 0
 472 479 509 421 509 387 c 0
 509 345 483 327 387 306 c 0
 337 295 253 283 203 280 c 2
 110 275 l 1
 110 235 l 2
 110 182 129 143 179 95 c 0
 213 62 248 45 287 45 c 0
 412 45 531 215 568 215 c 0
407 459 m 0
 366 496 354 502 320 502 c 0
 254 502 230 493 196 454 c 0
 139 389 120 360 120 338 c 0
 120 329 124 325 144 325 c 0
 196 325 288 337 402 363 c 0
 447 374 452 396 452 405 c 0
 452 417 440 430 407 459 c 0
EndSplineSet
EndChar
StartChar: f
Encoding: 70 102 81
Width: 624
Flags: W
HStem: 524 20G<408.5 441> 827 167<432 528> 954 45<330.888 410.515>
VStem: 234 53<67.0464 271.385 271.385 428.094 530.381 686.095> 516 51<839.96 913.86>
Back
292 967 m 0
 329 1003 333 1004 432 994 c 0
 488 988 502 982 533 952 c 0
 571 914 577 884 551 848 c 0
 529 816 516 821 516 861 c 0
 516 904 498 922 431 944 c 0
 368 964 337 954 313 904 c 0
 295 865 280 562 295 540 c 0
 303 528 316 527 367 537 c 0
 401 544 437 546 446 543 c 0
 483 529 459 510 377 486 c 2
 291 461 l 1
 288 302 l 2
 286 178 289 132 302 90 c 0
 322 26 320 1 291 -3 c 0
 252 -9 234 82 234 276 c 0
 234 368 231 446 228 449 c 0
 225 452 199 448 170 439 c 0
 107 421 67 428 67 457 c 0
 67 472 83 481 148 500 c 2
 229 524 l 1
 231 611 l 2
 232 658 238 751 245 816 c 0
 257 927 260 935 292 967 c 0
EndSplineSet
Fore
223 450 m 0xb8
 195 450 154 429 111 429 c 0
 83 429 67 439 67 457 c 0
 67 472 83 481 148 500 c 2
 229 524 l 1
 231 611 l 2
 232 658 238 751 245 816 c 0
 257 927 260 935 292 967 c 0
 317 991 327 999 360 999 c 0xb8
 377 999 399 997 432 994 c 0
 488 988 502 982 533 952 c 0
 556 929 567 910 567 890 c 0
 567 860 537 827 528 827 c 0xd8
 520 827 516 839 516 861 c 0
 516 904 498 922 431 944 c 0
 411 950 394 954 380 954 c 0
 349 954 329 938 313 904 c 0
 300 876 289 714 289 616 c 0
 289 543 290 530 318 530 c 0
 346 530 386 544 431 544 c 0
 451 544 463 536 463 529 c 0
 463 517 434 503 377 486 c 2
 291 461 l 1
 288 302 l 2
 288 279 287 259 287 241 c 0
 287 68 315 84 315 27 c 0
 315 3 300 -3 287 -3 c 0
 251 -3 234 88 234 276 c 0
 234 368 231 446 228 449 c 0
 227 450 226 450 223 450 c 0xb8
EndSplineSet
EndChar
StartChar: g
Encoding: 71 103 82
Width: 704
Flags: W
HStem: -248 59<448.818 556.631> 55 56<184.561 295.539> 544 52<406.026 523.262>
VStem: 70 62<198.063 309.808> 224 78<-116.221 -49.3131> 542 80<399.262 531.738>
Back
345 581 m 0
 417 605 524 600 572 571 c 0
 625 539 634 503 609 421 c 0
 586 350 587 390 616 10 c 2
 631 -197 l 1
 596 -225 l 2
 567 -248 553 -252 509 -246 c 0
 395 -232 224 -146 224 -104 c 0
 224 -69 273 -2 298 -2 c 0
 324 -2 327 -16 309 -48 c 0
 302 -61 299 -81 304 -94 c 0
 312 -117 368 -149 402 -149 c 0
 413 -149 438 -159 457 -172 c 0
 497 -198 549 -193 560 -162 c 0
 563 -152 561 -80 554 -2 c 0
 547 76 538 67 534 131 c 0
 526 246 526 246 505 215 c 0
 471 165 380 91 331 72 c 0
 306 62 264 55 236 55 c 0
 194 55 177 62 137 97 c 0
 98 131 86 151 77 200 c 0
 70 233 68 274 73 291 c 0
 82 327 132 421 165 464 c 0
 193 502 286 562 345 581 c 0
535 532 m 0
 506 547 432 548 383 534 c 0
 306 512 210 430 164 349 c 0
 130 288 128 278 137 223 c 0
 148 159 191 111 237 111 c 0
 319 111 425 195 483 305 c 0
 526 388 556 520 535 532 c 0
EndSplineSet
Fore
512 -189 m 0
 569 -189 561 -143 561 -138 c 0
 561 22 538 73 534 131 c 0
 529 207 527 233 520 233 c 0
 517 233 512 226 505 215 c 0
 471 165 380 91 331 72 c 0
 306 62 264 55 236 55 c 0
 194 55 177 62 137 97 c 0
 98 131 86 151 77 200 c 0
 73 221 70 244 70 263 c 0
 70 275 71 285 73 291 c 0
 82 327 132 421 165 464 c 0
 193 502 286 562 345 581 c 0
 376 591 413 596 450 596 c 0
 539 596 622 568 622 492 c 0
 622 432 593 405 593 341 c 0
 593 297 600 215 616 10 c 2
 631 -197 l 1
 596 -225 l 2
 575 -242 562 -248 539 -248 c 0
 428 -248 224 -150 224 -104 c 0
 224 -69 273 -2 298 -2 c 0
 313 -2 320 -7 320 -17 c 0
 320 -38 302 -48 302 -79 c 0
 302 -121 375 -149 402 -149 c 0
 436 -149 463 -189 512 -189 c 0
132 265 m 0
 132 192 174 111 237 111 c 0
 319 111 425 195 483 305 c 0
 516 369 542 463 542 508 c 0
 542 521 540 529 535 532 c 0
 520 540 492 544 462 544 c 0
 435 544 406 541 383 534 c 0
 261 499 132 340 132 265 c 0
EndSplineSet
EndChar
StartChar: h
Encoding: 72 104 83
Width: 538
Flags: W
HStem: 517 20G<350.5 385>
VStem: 95 89<74.75 86 233 274.796> 419 51<-6.05078 330.26>
Back
62 807 m 0
 76 833 90 835 103 815 c 0
 108 807 116 743 120 672 c 0
 125 601 133 490 138 425 c 2
 147 307 l 1
 165 346 l 2
 192 406 333 537 368 537 c 0
 402 537 450 492 462 449 c 0
 467 432 470 324 470 206 c 0
 470 0 470 -7 448 -7 c 0
 427 -7 425 3 419 189 c 0
 415 316 406 403 395 436 c 2
 379 486 l 1
 321 432 l 2
 259 373 202 290 184 233 c 0
 178 212 169 150 164 96 c 0
 154 -11 142 -38 113 -14 c 0
 100 -3 95 22 95 86 c 0
 95 134 90 227 85 296 c 0
 57 616 50 784 62 807 c 0
EndSplineSet
Fore
95 86 m 0
 95 250 56 563 56 743 c 0
 56 779 58 800 62 807 c 0
 70 821 78 828 85 828 c 0
 117 828 112 763 138 425 c 2
 147 307 l 1
 165 346 l 2
 192 406 333 537 368 537 c 0
 402 537 450 492 462 449 c 0
 467 432 470 324 470 206 c 0
 470 0 470 -7 448 -7 c 0
 427 -7 425 3 419 189 c 0
 415 316 406 403 395 436 c 2
 379 486 l 1
 321 432 l 2
 259 373 202 290 184 233 c 0
 161 151 167 -22 130 -22 c 0
 125 -22 119 -19 113 -14 c 0
 100 -3 95 22 95 86 c 0
EndSplineSet
EndChar
StartChar: i
Encoding: 73 105 84
Width: 277
Flags: W
VStem: 98 92<54.2524 179.877 179.877 513.25> 108 77<770.411 836.377>
Back
114 570 m 0
 162 609 172 565 186 260 c 0
 192 117 192 33 184 23 c 0
 167 0 131 4 123 29 c 0
 119 41 111 165 105 303 c 0
 94 531 95 555 114 570 c 0
116 828 m 0
 135 853 141 853 170 831 c 0
 199 809 184 757 149 763 c 0
 114 768 96 803 116 828 c 0
EndSplineSet
Fore
114 570 m 0x80
 123 578 131 582 138 582 c 0
 166 582 175 506 186 260 c 0
 189 194 190 140 190 101 c 0
 190 55 188 28 184 23 c 0
 176 13 165 8 154 8 c 0
 140 8 127 15 123 29 c 0
 117 46 98 395 98 495 c 0
 98 549 103 561 114 570 c 0x80
108 805 m 0x40
 108 825 129 847 140 847 c 0
 147 847 185 831 185 799 c 0
 185 780 173 763 154 763 c 0
 134 763 108 780 108 805 c 0x40
EndSplineSet
EndChar
StartChar: j
Encoding: 74 106 85
Width: 466
Flags: W
HStem: -243 62<161.284 280.109> 544 20G<265 285.5>
VStem: 69 294<-130 69 -130 69 -130 -130> 69 56<-146.193 -46.1833> 218 63<766.397 821.781> 305 56<-77.5535 30.0461 -23.7537 238.197>
Back
256 495 m 0
 251 560 252 564 272 564 c 0
 297 564 296 566 318 452 c 0
 356 252 367 154 361 -9 c 0
 353 -221 339 -243 212 -243 c 0
 147 -243 99 -228 99 -208 c 0
 99 -202 92 -194 84 -191 c 0
 73 -188 69 -171 69 -130 c 0
 69 -29 122 -5 125 -105 c 0
 125 -130 129 -156 133 -162 c 0
 143 -177 262 -188 278 -175 c 0
 285 -170 294 -146 297 -124 c 0
 309 -50 306 209 293 259 c 0
 275 333 261 416 256 495 c 0
228 812 m 0
 247 830 257 830 273 812 c 0
 288 794 279 748 261 748 c 0
 226 749 205 789 228 812 c 0
EndSplineSet
Fore
293 259 m 0xd4
 266 372 253 489 253 540 c 0
 253 562 258 564 272 564 c 2
 274 564 l 2
 297 564 297 562 318 452 c 0
 350 286 363 190 363 69 c 0xe0
 363 44 362 18 361 -9 c 0xc4
 353 -221 339 -243 212 -243 c 0
 147 -243 99 -228 99 -208 c 0
 99 -202 92 -194 84 -191 c 0
 73 -188 69 -171 69 -130 c 0xe0
 69 -73 86 -41 101 -41 c 0
 113 -41 124 -61 125 -105 c 0
 125 -130 129 -156 133 -162 c 0
 140 -172 198 -181 240 -181 c 0
 258 -181 273 -179 278 -175 c 0
 302 -158 305 -47 305 43 c 0
 305 134 300 231 293 259 c 0xd4
218 789 m 0xc8
 218 811 242 826 252 826 c 0
 257 826 281 818 281 786 c 0
 281 767 273 748 261 748 c 0
 236 749 218 769 218 789 c 0xc8
EndSplineSet
EndChar
StartChar: k
Encoding: 75 107 86
Width: 519
Flags: W
HStem: 534 20G<383 395.5>
VStem: 87 77<10.3105 78.9724 236.845 284.094>
Back
54 781 m 0
 67 801 92 795 102 770 c 0
 107 757 117 680 124 599 c 0
 131 518 141 426 146 394 c 2
 154 336 l 1
 268 450 l 2
 364 546 385 562 399 551 c 0
 419 535 420 513 400 502 c 0
 392 497 374 477 359 456 c 0
 332 415 272 357 201 300 c 0
 156 265 149 240 179 225 c 0
 188 221 236 198 286 175 c 0
 384 129 458 76 458 51 c 0
 458 23 428 23 390 51 c 0
 370 67 348 79 341 79 c 0
 335 79 329 83 329 87 c 0
 329 95 301 108 207 143 c 2
 154 163 l 1
 161 80 l 2
 169 -7 163 -22 126 -11 c 0
 101 -3 95 45 87 257 c 0
 84 341 78 435 72 467 c 0
 58 547 46 767 54 781 c 0
EndSplineSet
Fore
51 745 m 0
 51 758 47 793 74 793 c 0
 85 793 96 785 102 770 c 0
 115 737 131 489 146 394 c 2
 154 336 l 1
 268 450 l 2
 347 529 375 554 391 554 c 0
 400 554 415 538 415 524 c 0
 415 503 400 514 359 456 c 0
 332 415 272 357 201 300 c 0
 174 279 161 262 161 248 c 0
 161 239 167 231 179 225 c 2
 286 175 l 2
 384 129 458 76 458 51 c 0
 458 37 450 30 438 30 c 0
 405 30 362 79 341 79 c 0
 335 79 329 83 329 87 c 0
 329 95 301 108 207 143 c 2
 154 163 l 1
 161 80 l 2
 163 58 164 41 164 28 c 0
 164 -3 158 -14 143 -14 c 0
 99 -14 96 24 87 257 c 0
 84 341 78 435 72 467 c 0
 61 529 51 676 51 745 c 0
EndSplineSet
EndChar
StartChar: l
Encoding: 76 108 87
Width: 299
Flags: W
HStem: 959 20G<118.5 131>
VStem: 103 108
Back
112 970 m 0
 119 982 136 982 144 970 c 0
 149 961 172 660 196 266 c 0
 203 160 210 60 211 44 c 0
 213 20 207 14 185 14 c 0
 151 14 150 23 127 348 c 0
 121 447 109 587 103 658 c 0
 92 774 97 946 112 970 c 0
EndSplineSet
Fore
97 799 m 0
 97 959 109 979 128 979 c 0
 134 979 140 976 144 970 c 0
 153 954 211 41 211 36 c 0
 211 19 204 14 185 14 c 0
 138 14 154 56 103 658 c 0
 99 701 97 751 97 799 c 0
EndSplineSet
EndChar
StartChar: m
Encoding: 77 109 88
Width: 844
Flags: W
HStem: 491 59<311.717 361.679 614.381 659.762>
VStem: 159 51<-41.4646 235.821> 441 43<-20.9648 22 22 190.332> 688 44<7.37299 379.231>
Back
145 530 m 0
 155 584 174 566 185 491 c 0
 191 453 199 410 203 396 c 0
 209 373 210 373 221 402 c 0
 227 420 235 436 238 439 c 0
 241 443 254 465 265 488 c 0
 293 545 298 550 336 550 c 0
 359 550 377 538 404 507 c 0
 435 470 442 453 455 371 c 2
 471 277 l 1
 488 337 l 2
 521 453 594 550 647 550 c 0
 680 550 711 508 723 449 c 0
 730 415 733 323 731 194 c 0
 728 -5 728 -9 709 -12 c 0
 689 -16 689 -16 688 172 c 0
 688 497 653 566 572 401 c 0
 525 306 491 161 484 22 c 0
 482 -11 477 -21 464 -21 c 0
 448 -21 446 -10 441 108 c 0
 432 324 420 384 373 454 c 0
 329 518 323 513 248 325 c 0
 238 299 230 261 230 239 c 0
 230 217 226 194 221 187 c 0
 217 181 212 120 210 53 c 0
 208 -61 206 -70 189 -74 c 0
 165 -79 159 -34 159 166 c 0
 159 248 155 357 149 407 c 0
 144 458 142 513 145 530 c 0
EndSplineSet
Fore
144 503 m 0
 144 535 150 561 160 561 c 0
 184 561 196 379 210 379 c 0
 216 379 228 429 238 439 c 1
 241 443 254 465 265 488 c 0
 293 545 298 550 336 550 c 0
 359 550 377 538 404 507 c 0
 435 470 442 453 455 371 c 2
 471 277 l 1
 488 337 l 2
 521 453 594 550 647 550 c 0
 680 550 711 508 723 449 c 0
 729 422 732 358 732 268 c 0
 732 -14 726 -9 709 -12 c 0
 706 -13 704 -13 702 -13 c 0
 689 -13 689 8 688 172 c 0
 688 384 673 487 640 487 c 0
 623 487 600 458 572 401 c 0
 525 306 491 161 484 22 c 0
 482 -11 477 -21 464 -21 c 0
 448 -21 446 -10 441 108 c 0
 432 324 420 384 373 454 c 0
 357 477 346 491 335 491 c 0
 316 491 296 446 248 325 c 0
 238 299 230 261 230 239 c 0
 230 169 216 241 210 53 c 0
 208 -40 210 -74 186 -74 c 0
 164 -74 159 -24 159 166 c 0
 159 368 144 419 144 503 c 0
EndSplineSet
EndChar
StartChar: n
Encoding: 78 110 89
Width: 619
Flags: W
HStem: 494 72<397.326 453.47>
VStem: 486 47<-6.02583 101.271 47.6225 230.759 162.492 299.026>
Back
127 555 m 0
 135 582 158 582 164 554 c 0
 167 542 177 461 187 371 c 0
 198 282 207 209 208 207 c 0
 210 206 222 242 237 288 c 0
 264 378 274 397 321 465 c 0
 399 574 442 592 483 531 c 0
 524 470 527 450 531 227 c 0
 536 3 534 -7 497 -8 c 0
 481 -8 480 0 484 106 c 0
 490 230 479 415 464 453 c 0
 459 466 447 483 438 490 c 0
 423 501 413 494 374 444 c 0
 349 411 307 335 281 272 c 0
 240 177 231 145 222 57 c 0
 216 1 209 -45 206 -45 c 0
 203 -45 192 -38 183 -28 c 0
 170 -15 166 13 161 111 c 0
 157 179 147 302 138 384 c 0
 129 467 124 544 127 555 c 0
EndSplineSet
Fore
126 541 m 0
 126 573 142 575 146 575 c 0
 164 575 166 561 187 371 c 0
 198 282 207 209 208 207 c 1
 210 206 222 242 237 288 c 0
 264 378 274 397 321 465 c 0
 370 533 405 566 434 566 c 0
 452 566 468 554 483 531 c 0
 524 470 527 450 531 227 c 0
 532 173 533 131 533 99 c 0
 533 -1 525 -7 497 -8 c 0
 486 -8 482 -4 482 34 c 0
 482 70 486 121 486 182 c 0
 486 295 476 422 464 453 c 0
 459 466 442 494 427 494 c 0
 398 494 323 374 281 272 c 0
 240 177 231 145 222 57 c 0
 216 1 209 -45 206 -45 c 0
 203 -45 192 -38 183 -28 c 0
 158 -3 169 101 138 384 c 0
 131 451 126 513 126 541 c 0
EndSplineSet
EndChar
StartChar: o
Encoding: 79 111 90
Width: 651
Flags: W
HStem: -19 57<226.283 381.447> 501 68<352.962 479.63>
VStem: 56 73<134.598 324.052> 535 59<266.079 452.403>
Back
351 564 m 0
 476 579 549 557 575 495 c 0
 632 360 552 96 431 22 c 0
 328 -42 195 -29 125 52 c 0
 68 119 56 150 56 235 c 0
 56 320 86 385 153 449 c 0
 233 525 286 556 351 564 c 0
512 470 m 0
 484 494 448 505 419 500 c 0
 409 498 376 493 345 490 c 0
 299 484 279 474 238 435 c 0
 159 360 129 302 129 228 c 0
 129 117 205 39 314 38 c 0
 417 38 519 193 533 369 c 0
 538 440 536 450 512 470 c 0
EndSplineSet
Fore
153 449 m 0
 259 549 313 569 420 569 c 0
 503 569 554 545 575 495 c 0
 588 465 594 427 594 387 c 0
 594 250 525 79 431 22 c 0
 387 -5 338 -19 290 -19 c 0
 226 -19 165 6 125 52 c 0
 68 119 56 150 56 235 c 0
 56 320 86 385 153 449 c 0
314 38 m 0
 426 38 535 220 535 415 c 0
 535 446 529 456 512 470 c 0
 488 490 459 501 433 501 c 0
 416 501 407 496 345 490 c 0
 299 484 279 474 238 435 c 0
 159 360 129 302 129 228 c 0
 129 117 205 39 314 38 c 0
EndSplineSet
EndChar
StartChar: p
Encoding: 80 112 91
Width: 655
Flags: W
HStem: -246 21G<232 254.5> 45 67<266.978 360.766> 414 167<92 161> 509 72<316.873 458.606>
VStem: 523 68<328.403 486.556>
Back
129 558 m 0
 145 587 172 589 187 564 c 0
 197 546 204 546 271 563 c 0
 355 584 415 586 487 570 c 0
 610 542 624 429 529 228 c 0
 468 97 374 31 274 47 c 2
 228 54 l 1
 239 0 l 2
 247 -39 244 -29 257 -93 c 0
 285 -234 280 -246 244 -246 c 0
 220 -246 213 -238 203 -202 c 0
 190 -155 163 -47 140 216 c 0
 125 399 121 414 92 414 c 0
 53 414 49 440 84 465 c 0
 102 478 116 499 116 512 c 0
 116 525 122 545 129 558 c 0
486 502 m 0
 450 516 328 507 262 486 c 2
 195 464 l 1
 197 400 l 2
 198 365 203 291 208 237 c 0
 215 158 221 138 237 137 c 0
 248 137 266 130 278 121 c 0
 362 58 558 334 517 456 c 0
 510 477 496 499 486 502 c 0
EndSplineSet
Fore
116 512 m 0xe8
 116 525 127 581 161 581 c 0xe8
 188 581 183 550 208 550 c 0
 240 550 311 581 396 581 c 0xd8
 426 581 455 577 487 570 c 0
 556 554 591 511 591 441 c 0
 591 386 570 316 529 228 c 0
 474 110 392 45 303 45 c 0
 294 45 284 45 274 47 c 2
 228 54 l 1
 239 0 l 2
 253 -66 275 -180 275 -213 c 0
 275 -242 265 -246 244 -246 c 0
 220 -246 213 -238 203 -202 c 0
 190 -155 163 -47 140 216 c 0
 125 399 121 414 92 414 c 0
 71 414 60 422 60 433 c 0
 60 458 116 478 116 512 c 0xe8
237 137 m 0
 267 137 278 112 306 112 c 0
 389 112 523 300 523 418 c 0
 523 464 497 499 486 502 c 0
 474 507 453 509 427 509 c 0xd8
 375 509 306 500 262 486 c 2
 195 464 l 1
 197 400 l 2
 198 365 203 291 208 237 c 0
 215 158 221 138 237 137 c 0
EndSplineSet
EndChar
StartChar: q
Encoding: 81 113 92
Width: 662
Flags: W
HStem: -248 63<452.566 482.614> 62 54<119.796 201.523> 523 51<271.071 375.798>
VStem: 42 54<139.111 349.104> 385 49<444.406 522.366> 513 47<-96.8608 -44.9004>
Back
288 566 m 0
 340 577 364 577 393 566 c 0
 440 548 444 520 420 378 c 0
 395 230 392 161 411 161 c 0
 418 161 443 180 467 203 c 0
 530 265 611 305 611 274 c 0
 611 261 479 130 466 130 c 0
 461 130 488 122 504 106 c 0
 570 37 560 53 560 -63 c 0
 560 -127 554 -124 540 -165 c 0
 518 -226 498 -248 463 -248 c 0
 411 -248 385 -254 353 22 c 2
 334 178 l 1
 270 124 l 2
 204 69 168 54 125 65 c 0
 83 77 58 111 47 174 c 0
 16 349 130 533 288 566 c 0
383 508 m 0
 379 517 370 523 360 523 c 0
 212 512 96 392 96 248 c 0
 96 150 126 101 174 120 c 0
 214 136 307 233 328 282 c 0
 339 306 353 356 359 392 c 0
 366 427 375 464 380 474 c 0
 385 483 386 499 383 508 c 0
490 48 m 0
 451 96 409 90 409 43 c 0
 409 -56 451 -185 469 -185 c 0
 474 -185 483 -168 490 -146 c 0
 497 -125 506 -103 510 -97 c 0
 514 -91 514 -91 509 -40 c 0
 501 36 513 19 490 48 c 0
EndSplineSet
Fore
42 232 m 0
 42 417 184 574 349 574 c 0
 365 574 378 572 393 566 c 0
 422 555 434 540 434 498 c 0
 434 429 399 288 399 200 c 0
 399 174 403 161 411 161 c 0
 418 161 443 180 467 203 c 0
 515 250 573 285 599 285 c 0
 606 285 611 281 611 274 c 0
 611 261 479 130 466 130 c 2
 465 130 l 1
 465 129 489 121 504 106 c 0
 555 53 561 50 561 -1 c 0
 561 -16 560 -36 560 -63 c 0
 560 -127 554 -124 540 -165 c 0
 518 -226 498 -248 463 -248 c 0
 457 -248 l 0
 409 -248 384 -242 353 22 c 2
 334 178 l 1
 270 124 l 2
 217 80 184 62 150 62 c 0
 64 62 42 159 42 232 c 0
385 496 m 0
 385 518 369 523 360 523 c 0
 212 512 96 392 96 248 c 0
 96 164 118 116 155 116 c 0
 204 116 310 239 328 282 c 0
 355 340 366 446 380 474 c 0
 383 480 385 488 385 496 c 0
490 48 m 0
 472 71 453 81 438 81 c 0
 421 81 409 68 409 43 c 0
 409 -56 451 -185 469 -185 c 0
 481 -185 498 -115 510 -97 c 0
 512 -94 513 -93 513 -87 c 0
 513 -80 512 -67 509 -40 c 0
 501 36 513 19 490 48 c 0
EndSplineSet
EndChar
StartChar: r
Encoding: 82 114 93
Width: 526
Flags: W
HStem: 521 20G<127.5 136.5>
VStem: 100 357<449 465 445 458 445 445> 100 48<321.989 507.161>
Back
104 509 m 0
 117 549 148 552 148 514 c 0
 148 454 174 269 183 269 c 0
 188 269 205 294 220 324 c 0
 274 425 388 508 436 480 c 0
 468 460 465 449 419 431 c 0
 336 398 233 245 214 126 c 0
 191 -19 183 -42 156 -37 c 0
 135 -34 131 -24 124 47 c 0
 102 283 94 479 104 509 c 0
EndSplineSet
Fore
414 486 m 0xa0
 439 486 457 465 457 458 c 0
 457 449 445 441 419 431 c 0
 336 398 233 245 214 126 c 0
 193 -8 184 -38 162 -38 c 0
 131 -38 130 -11 124 47 c 0
 108 215 100 363 100 445 c 0xc0
 100 478 101 500 104 509 c 0
 111 530 123 541 132 541 c 0
 141 541 148 532 148 514 c 0
 148 454 174 269 183 269 c 0
 188 269 205 294 220 324 c 0
 267 412 359 486 414 486 c 0xa0
EndSplineSet
EndChar
StartChar: s
Encoding: 83 115 94
Width: 492
Flags: W
HStem: -56 46<201.96 296.803> 490 46<252.773 369.82>
VStem: 68 56<318.783 392.117> 357 44<77.0134 150.99>
Back
242 527 m 0
 260 532 295 536 319 536 c 0
 358 537 365 534 393 503 c 0
 410 484 424 462 424 455 c 0
 424 434 391 441 372 466 c 0
 336 513 234 489 168 418 c 0
 116 362 114 354 142 322 c 0
 158 303 191 285 237 269 c 0
 368 224 403 193 401 124 c 0
 400 99 393 64 385 45 c 0
 369 5 317 -46 283 -55 c 0
 258 -61 168 -46 132 -28 c 0
 105 -15 78 38 85 64 c 0
 94 93 115 89 131 55 c 0
 147 22 206 -10 248 -10 c 0
 284 -10 320 23 344 78 c 0
 360 118 361 124 348 149 c 0
 339 167 323 180 300 188 c 0
 282 194 249 207 228 217 c 0
 207 227 185 235 181 235 c 0
 167 235 106 277 89 297 c 0
 63 329 61 353 83 392 c 0
 125 466 177 511 242 527 c 0
EndSplineSet
Fore
181 235 m 0
 172 235 68 287 68 346 c 0
 68 381 133 500 242 527 c 0
 275.236 536.232 320.223 536 329 536 c 0
 360 536 368 531 393 503 c 0
 410 484 424 462 424 455 c 0
 424 447 419 443 411 443 c 0
 372 443 378 490 314 490 c 0
 269 490 211 464 168 418 c 0
 137 385 124 369 124 354 c 0
 124 337 146 301 237 269 c 0
 365 225 401 195 401 129 c 0
 401 121 398 76 385 45 c 0
 374 16 319 -56 267 -56 c 0
 232 -56 162 -43 132 -28 c 0
 108 -16 84 27 84 55 c 0
 84 68 91 83 103 83 c 0
 112 83 122 74 131 55 c 0
 147 22 206 -10 248 -10 c 0
 313 -10 357 95 357 122 c 0
 357 131 348 171 300 188 c 0
 250 205 193 235 181 235 c 0
EndSplineSet
EndChar
StartChar: t
Encoding: 84 116 95
Width: 519
Flags: W
HStem: 551 21G<64.5 91>
VStem: 47 410<575 656 575 656 575 575> 234 223<647.013 715.351> 272 31<123.082 372.109>
Back
221 909 m 0
 227 942 254 956 267 933 c 0
 270 927 277 865 282 794 c 0
 287 723 293 663 294 662 c 0
 296 660 318 664 345 670 c 0
 406 684 453 679 457 659 c 0
 460 641 432 628 347 607 c 2
 297 595 l 1
 303 426 l 2
 306 334 315 202 323 136 c 0
 340 -16 340 -21 322 -28 c 0
 293 -41 272 7 272 85 c 0
 272 124 267 195 262 242 c 0
 256 290 249 382 244 448 c 0
 240 514 235 570 232 573 c 0
 230 575 193 570 150 562 c 0
 66 545 47 547 47 575 c 0
 47 595 81 608 174 627 c 0
 195 631 217 638 223 642 c 0
 237 651 237 710 225 805 c 0
 220 844 218 890 221 909 c 0
EndSplineSet
Fore
234 695 m 0xa0
 234 770 220 808 220 884 c 0
 220 894 220 903 221 909 c 0
 225 931 238 944 250 944 c 0
 257 944 263 941 267 933 c 0
 275 916 290 666 294 662 c 1
 294 662 295 661 297 661 c 0
 319 661 363 678 407 678 c 0
 427 678 457 674 457 656 c 0xc0
 457 640 428 627 347 607 c 2
 297 595 l 1
 303 426 l 2
 311 170 336 64 336 1 c 0
 336 -10 336 -30 313 -30 c 0
 289 -30 272 16 272 85 c 0x90
 272 169 261 226 244 448 c 0
 237 569 235 573 229 573 c 0
 198 573 106 551 76 551 c 0
 53 551 47 559 47 575 c 0xc0
 47 614 193 622 223 642 c 0
 230 647 234 665 234 695 c 0xa0
EndSplineSet
EndChar
StartChar: u
Encoding: 85 117 96
Width: 606
Flags: W
HStem: -40 54<167.303 239.147> 519 20<95.5 106 501 511>
VStem: 76 56<162.101 494.496 451.998 536.231>
Back
483 543 m 0
 507 558 529 547 528 520 c 0
 527 505 519 439 509 372 c 0
 491 243 495 204 535 62 c 0
 552 4 554 -14 544 -21 c 0
 507 -44 499 -33 465 83 c 0
 432 197 436 195 390 121 c 0
 332 29 252 -40 202 -40 c 0
 122 -40 103 -3 83 197 c 0
 70 326 76 516 94 534 c 0
 101 541 110 540 122 530 c 0
 136 518 139 503 134 451 c 0
 127 374 144 111 160 53 c 0
 174 0 203 1 264 55 c 0
 341 123 422 286 450 430 c 0
 461 488 476 539 483 543 c 0
EndSplineSet
Fore
76 352 m 0
 76 499 87 539 104 539 c 0
 108 539 136 536 136 488 c 0
 136 462 132 454 132 402 c 0
 132 296 147 102 160 53 c 0
 167 27 177 14 194 14 c 0
 210 14 233 28 264 55 c 0
 341 123 422 286 450 430 c 0
 461 488 476 539 483 543 c 0
 490 548 498 550 504 550 c 0
 518 550 528 539 528 522 c 0
 528 483 499 336 499 257 c 0
 499 147 550 36 550 -6 c 0
 550 -28 521 -31 520 -31 c 0
 478 -31 454 173 430 173 c 0
 421 173 411 154 390 121 c 0
 332 29 252 -40 202 -40 c 0
 122 -40 103 -3 83 197 c 0
 78 244 76 300 76 352 c 0
EndSplineSet
EndChar
StartChar: v
Encoding: 86 118 97
Width: 590
Flags: W
HStem: 536 20<90 94 502.5 519.5>
VStem: 468 70<437.313 542.069>
Back
484 536 m 0
 493 548 509 558 519 556 c 0
 557 549 548 510 414 145 c 0
 381 53 318 -40 290 -40 c 0
 261 -40 232 12 202 118 c 0
 187 172 161 262 144 317 c 0
 97 472 95 477 88 515 c 0
 82 547 83 550 103 546 c 0
 133 541 183 421 239 214 c 0
 263 126 286 52 291 49 c 0
 303 42 368 174 395 259 c 0
 408 300 429 361 443 397 c 0
 457 433 468 473 468 487 c 0
 468 501 475 523 484 536 c 0
EndSplineSet
Fore
468 487 m 0
 468 515 489 556 516 556 c 0
 523 556 538 554 538 530 c 0
 538 491 505 393 414 145 c 0
 381 53 318 -40 290 -40 c 0
 234 -40 199 138 144 317 c 0
 110 430 85 508 85 538 c 0
 85 545 87 547 93 547 c 0
 95 547 99 547 103 546 c 0
 169 535 276 49 292 49 c 0
 306 49 369 176 395 259 c 0
 432 376 468 453 468 487 c 0
EndSplineSet
EndChar
StartChar: w
Encoding: 87 119 98
Width: 696
Flags: W
HStem: 254 66<324.606 366.34> 533 20G<65 75 625 634.5>
Back
52 534 m 0
 65 560 76 560 98 533 c 0
 110 519 117 493 121 447 c 0
 124 412 131 374 137 363 c 0
 143 353 162 281 179 203 c 0
 196 126 212 68 215 76 c 0
 232 117 258 191 271 233 c 0
 288 289 309 320 331 320 c 0
 355 320 431 243 452 198 c 0
 462 176 478 150 488 138 c 2
 505 118 l 1
 515 147 l 2
 521 163 533 215 541 263 c 0
 570 421 597 526 612 544 c 0
 629 562 661 541 654 518 c 0
 632 449 621 401 608 323 c 0
 591 225 542 42 528 29 c 0
 524 25 512 23 502 25 c 0
 487 27 461 68 390 202 c 0
 385 212 371 229 359 240 c 0
 335 265 335 265 300 167 c 0
 287 129 272 90 268 80 c 0
 263 70 253 44 244 22 c 0
 229 -20 208 -36 189 -21 c 0
 173 -8 142 104 119 228 c 0
 113 257 101 308 91 342 c 0
 80 376 72 415 72 431 c 0
 72 447 65 472 57 487 c 0
 46 508 44 519 52 534 c 0
EndSplineSet
Fore
47 517 m 0
 47 528 59 553 71 553 c 0
 79 553 87 547 98 533 c 0
 127 500 118 398 137 363 c 0
 154 334 203 75 214 75 c 0
 216 75 255 180 271 233 c 0
 288 289 309 320 331 320 c 0
 355 320 431 243 452 198 c 0
 462 176 478 150 488 138 c 2
 505 118 l 1
 515 147 l 2
 533 195 580 505 612 544 c 0
 616 549 622 551 628 551 c 0
 641 551 655 539 655 525 c 0
 655 514 631 463 608 323 c 0
 591 225 542 42 528 29 c 0
 524 25 512 23 502 25 c 0
 487 27 461 68 390 202 c 0
 383 216 350 254 341 254 c 0
 325 254 317 201 244 22 c 0
 233 -10 218 -27 203 -27 c 0
 199 -27 194 -25 189 -21 c 0
 159 3 118 249 91 342 c 0
 80 376 72 415 72 431 c 0
 72 470 47 497 47 517 c 0
EndSplineSet
EndChar
StartChar: x
Encoding: 88 120 99
Width: 583
Flags: W
HStem: 506 20G<87.5 102 458 470>
VStem: 65 468<58 481 481 481>
Back
71 502 m 0
 86 536 111 534 124 499 c 0
 133 474 290 302 305 302 c 0
 308 302 330 334 355 374 c 0
 379 414 410 465 424 488 c 0
 450 530 470 535 488 505 c 0
 496 493 493 482 472 457 c 0
 457 440 442 415 438 402 c 0
 435 389 414 352 393 320 c 0
 371 288 354 258 354 253 c 0
 354 248 393 210 439 169 c 0
 485 128 527 85 530 75 c 0
 544 28 501 20 464 61 c 0
 429 99 325 189 315 189 c 0
 310 189 277 146 242 92 c 0
 179 -4 157 -21 133 8 c 0
 124 19 136 44 194 132 c 2
 266 241 l 1
 222 288 l 2
 198 314 163 349 147 365 c 0
 130 380 102 412 87 435 c 0
 63 471 61 480 71 502 c 0
EndSplineSet
Fore
65 481 m 0
 65 494 78 526 97 526 c 0
 107 526 117 517 124 499 c 0
 133 474 290 302 305 302 c 0
 308 302 330 334 355 374 c 2
 424 488 l 2
 439 512 452 524 464 524 c 0
 476 524 492 505 492 493 c 0
 492 471 450 441 438 402 c 0
 431 371 354 266 354 253 c 0
 354 240 522 101 530 75 c 0
 532 69 533 63 533 58 c 0
 533 43 524 34 511 34 c 0
 498 34 480 43 464 61 c 0
 429 99 325 189 315 189 c 0
 310 189 277 146 242 92 c 0
 197 23 173 -5 154 -5 c 0
 145 -5 130 6 130 16 c 0
 130 31 147 61 194 132 c 2
 266 241 l 1
 222 288 l 2
 176 338 65 436 65 481 c 0
EndSplineSet
EndChar
StartChar: y
Encoding: 89 121 100
Width: 526
Flags: W
HStem: -249 63<295.465 354.813> 75 60<139.922 197.286> 173 362<294.5 388>
VStem: 73 55<139.805 427.762 358.846 496.677> 202 58<-123.669 -62.5929> 344 50<-184.543 -1.56837>
Back
356 518 m 0
 369 543 402 539 409 511 c 0
 412 498 405 458 394 423 c 0
 370 348 359 229 368 150 c 2
 375 121 l 1
 407 137 l 2
 477 170 499 118 430 83 c 2
 389 62 l 1
 394 -50 l 2
 391 -146 386 -230 381 -237 c 0
 370 -254 344 -253 293 -231 c 0
 261 -217 246 -203 230 -169 c 0
 202 -110 194 -59 209 -33 c 0
 216 -21 226 -9 242 21 c 0
 258 51 281 49 297 67 c 0
 325 96 327 75 321 117 c 0
 312 185 307 188 272 145 c 0
 255 123 223 97 203 87 c 0
 155 63 121 74 93 122 c 0
 75 154 73 175 73 308 c 0
 74 466 83 509 115 503 c 0
 130 500 132 483 129 349 c 0
 126 189 133 140 160 135 c 0
 183 130 261 213 286 270 c 0
 307 316 313 338 336 449 c 0
 342 477 350 507 356 518 c 0
344 -116 m 0
 343 -82 335 -63 331 -30 c 2
 325 30 l 1
 297 -13 l 2
 282 -37 273 -58 267 -73 c 0
 257 -101 257 -121 267 -131 c 0
 270 -134 277 -146 286 -154 c 0
 298 -167 321 -193 335 -185 c 0
 340 -181 344 -150 344 -116 c 0
EndSplineSet
Fore
128 288 m 0
 128 192 134 135 162 135 c 0
 187 135 262 215 286 270 c 0
 343 395 330 535 381 535 c 0
 395 535 410 523 410 503 c 0
 410 444 365 380 365 211 c 0
 365 189 366 169 368 150 c 2
 375 121 l 1
 407 137 l 2
 423 144 436 148 446 148 c 0
 463 148 472 140 472 129 c 0
 472 115 459 98 430 83 c 2
 389 62 l 1
 394 -50 l 2
 391 -146 386 -230 381 -237 c 0
 376 -245 368 -249 356 -249 c 0
 341 -249 321 -243 293 -231 c 0
 261 -217 246 -203 230 -169 c 0
 211 -130 202 -94 202 -67 c 0
 202 -32 214 -32 242 21 c 0
 258 51 281 49 297 67 c 0
 317 88 324 83 324 94 c 0
 324 95 318 173 303 173 c 0
 286 173 231 75 159 75 c 0
 133 75 111 90 93 122 c 0
 75 154 73 175 73 308 c 0
 74 457 82 504 110 504 c 0
 126 504 130 495 130 429 c 0
 130 387 128 345 128 288 c 0
260 -109 m 0
 260 -135 312 -186 329 -186 c 0
 338 -186 344 -176 344 -116 c 0
 343 -82 335 -63 331 -30 c 2
 325 30 l 1
 297 -13 l 2
 270 -55 260 -90 260 -109 c 0
EndSplineSet
EndChar
StartChar: z
Encoding: 90 122 101
Width: 553
Flags: W
HStem: -5 60<192.582 333.598> 231 44<176.015 257.828> 481 51<275.462 384.748>
VStem: 52 462<70 412 412 412> 151 78<4.63501 65.2514> 385 53<394.739 479.575>
Back
307 529 m 0
 345 538 408 526 425 506 c 0
 447 480 440 408 409 341 c 2
 387 295 l 1
 424 290 l 2
 444 288 463 283 467 280 c 0
 477 269 440 250 396 244 c 0
 360 239 346 231 314 197 c 0
 278 159 222 64 230 56 c 0
 232 54 252 57 275 62 c 0
 419 93 514 97 514 70 c 0
 514 55 493 48 413 32 c 0
 123 -24 126 -25 179 84 c 0
 197 122 225 169 239 186 c 0
 253 203 265 220 265 224 c 0
 265 227 246 231 224 231 c 0
 202 231 180 235 176 241 c 0
 165 259 202 275 257 275 c 0
 305 275 312 278 328 300 c 0
 360 348 385 415 385 456 c 0
 385 479 382 481 355 481 c 0
 290 480 141 434 116 408 c 0
 105 395 94 391 76 395 c 0
 33 406 49 430 122 465 c 0
 163 484 253 516 307 529 c 0
EndSplineSet
Fore
88 394 m 0xec
 74 394 52 401 52 412 c 0xf0
 52 457 289 525 307 529 c 0
 316 531 326 532 336 532 c 0
 372 532 412 521 425 506 c 0
 434 496 438 478 438 457 c 0
 438 424 428 382 409 341 c 2
 387 295 l 1
 424 290 l 2
 438 289 469 284 469 276 c 0
 469 265 435 249 396 244 c 0
 360 239 346 231 314 197 c 0
 280 161 229 76 229 59 c 0xec
 229 56 230 55 234 55 c 0
 257 55 374 88 461 88 c 0
 495 88 514 82 514 70 c 0xf0
 514 55 493 48 413 32 c 0
 291 8 221 -5 184 -5 c 0
 161 -5 151 1 151 13 c 0
 151 40 215 157 239 186 c 0
 253 203 265 220 265 224 c 0
 265 227 246 231 224 231 c 0
 187 231 174 238 174 247 c 0
 174 263 209 275 257 275 c 0
 305 275 312 278 328 300 c 0
 360 348 385 415 385 456 c 0
 385 479 382 481 355 481 c 0
 290 480 141 434 116 408 c 0
 108 398 99 394 88 394 c 0xec
EndSplineSet
EndChar
StartChar: braceleft
Encoding: 91 123 102
Width: 315
Flags: W
HStem: -40 32<158.659 206.644 205.659 207.628>
VStem: 81 55<253.282 292.894> 114 29<43.7015 247 496.002 590.889> 122 26<12 27.379 290.776 488.157>
Back
125 595 m 2
 136 628 l 1
 158 624 l 2
 169 623 181 618 183 614 c 0
 190 601 187 592 177 592 c 0
 172 592 168 595 168 598 c 0
 168 612 158 602 151 580 c 0
 144 558 144 548 149 490 c 0
 156 407 153 323 142 298 c 0
 135 283 134 276 138 258 c 0
 141 245 143 188 143 130 c 0
 143 70 146 19 148 12 c 0
 156 -4 186 -14 200 -5 c 0
 216 5 223 -4 216 -25 c 0
 212 -38 209 -40 186 -40 c 0
 159 -40 134 -24 122 0 c 0
 119 5 116 63 114 128 c 2
 112 247 l 1
 97 249 l 2
 76 252 75 268 95 285 c 0
 124 309 129 372 117 527 c 0
 114 557 115 568 125 595 c 2
EndSplineSet
Fore
123 402 m 0xc0
 123 461 116 536 116 551 c 0
 116 565 118 576 125 595 c 2
 136 628 l 1
 158 624 l 2
 169 623 181 618 183 614 c 0
 190 601 187 592 177 592 c 0
 172 592 168 595 168 598 c 0
 168 602 167 604 165 604 c 0
 161 604 145 581 145 545 c 0
 145 517 153 474 153 402 c 0
 153 288 136 300 136 275 c 0xc0
 136 271 143 252 143 130 c 0xa0
 143 70 146 19 148 12 c 1
 154 0 172 -8 187 -8 c 0
 201 -8 201 -1 211 -1 c 0
 216 -1 219 -5 219 -11 c 0
 219 -42 198 -40 186 -40 c 0
 159 -40 134 -24 122 0 c 0x90
 119 5 116 63 114 128 c 2xa0
 112 247 l 1
 97 249 l 2
 86 251 81 256 81 262 c 0
 81 293 123 264 123 402 c 0xc0
EndSplineSet
EndChar
StartChar: bar
Encoding: 92 124 103
Width: 364
Flags: W
VStem: 157 51<415.546 609.808 609.808 626.468>
Back
181 727 m 0
 197 732 204 733 205 731 c 0
 209 718 212 -46 208 -71 c 0
 203 -104 187 -120 174 -107 c 0
 171 -103 165 51 163 235 c 0
 160 418 158 574 157 580 c 0
 157 587 160 621 163 658 c 0
 167 709 171 725 181 727 c 0
EndSplineSet
Fore
181 727 m 0
 192 730 199 732 202 732 c 0
 204 732 205 732 205 731 c 1
 208 722 210 380 210 145 c 0
 210 28 209 -63 208 -71 c 0
 204 -96 194 -112 184 -112 c 0
 180 -112 177 -110 174 -107 c 0
 165 -95 160 563 157 580 c 1
 157 587 160 621 163 658 c 0
 167 709 171 725 181 727 c 0
EndSplineSet
EndChar
StartChar: braceright
Encoding: 93 125 104
Width: 337
Flags: W
HStem: -50 29<132.749 163.824>
VStem: 130 34<398.758 503.567> 139 37<549.22 657.19>
Back
117 667 m 0
 124 678 145 673 162 657 c 0
 177 641 178 640 174 576 c 0
 172 540 168 497 166 480 c 0
 161 435 168 382 183 368 c 0
 190 360 203 356 218 356 c 0
 249 356 255 343 235 319 c 0
 209 289 201 227 206 91 c 0
 208 46 206 22 198 -4 c 0
 186 -43 174 -53 143 -50 c 0
 128 -49 123 -45 121 -34 c 0
 119 -16 130 -4 140 -14 c 0
 144 -18 149 -21 152 -21 c 0
 165 -21 172 32 173 149 c 0
 174 243 177 280 184 298 c 2
 193 322 l 1
 175 331 l 2
 166 335 151 350 143 362 c 0
 128 387 127 415 136 553 c 0
 141 629 140 631 127 645 c 0
 119 653 115 663 117 667 c 0
EndSplineSet
Fore
116 664 m 0xa0
 116 670 122 673 129 673 c 0
 133 673 176 667 176 620 c 0xa0
 176 566 164 478 164 450 c 0
 164 414 171 379 183 368 c 0
 190 360 203 356 218 356 c 0
 237 356 247 351 247 342 c 0
 247 311 205 337 205 159 c 0
 205 111 207 82 207 62 c 0
 207 35 204 16 198 -4 c 0
 187 -39 177 -50 152 -50 c 0
 125 -50 121 -42 121 -30 c 0
 121 -18 126 -10 133 -10 c 0
 139 -10 145 -21 152 -21 c 0
 183 -21 164 248 184 298 c 2
 193 322 l 1
 175 331 l 2
 166 335 151 350 143 362 c 0
 134 377 130 392 130 430 c 0xc0
 130 484 139 574 139 610 c 0
 139 651 116 644 116 664 c 0xa0
EndSplineSet
EndChar
StartChar: asciitilde
Encoding: 94 126 105
Width: 613
Flags: W
HStem: 628 126<403 493> 702 35<191.629 292.75>
VStem: 114 396<644 740 644 644>
Back
469 731 m 0
 480 751 485 756 497 754 c 0
 508 753 511 749 510 735 c 0
 508 713 465 657 436 639 c 0
 407 621 384 625 332 658 c 0
 253 707 230 713 201 688 c 0
 191 680 180 673 177 673 c 0
 174 673 163 663 154 650 c 0
 135 625 117 621 114 642 c 0
 111 658 157 704 194 724 c 0
 216 735 229 738 245 736 c 0
 276 731 312 716 338 696 c 0
 350 686 370 674 382 669 c 2
 404 659 l 1
 430 683 l 2
 445 695 462 717 469 731 c 0
EndSplineSet
Fore
114 644 m 0xa0
 114 662 184 737 236 737 c 0x60
 294 737 351 682 382 669 c 2
 404 659 l 1
 430 683 l 2
 473 717 471 754 493 754 c 0
 510 754 510 745 510 740 c 0
 510 712 450 628 403 628 c 0xa0
 357 628 282 702 234 702 c 0x60
 207 702 189 673 177 673 c 0
 167 673 145 628 125 628 c 0
 116 628 114 639 114 644 c 0xa0
EndSplineSet
EndChar
StartChar: uni0E01
Encoding: 96 3585 107
Width: 662
Flags: W
HStem: 495 48<322.734 470.168>
VStem: 193 44<20.3427 216.058> 523 60<51.7966 165.446 165.446 246.685 246.685 426.122>
Back
281 515 m 0
 341 542 357 545 411 542 c 0
 489 537 520 519 551 462 c 0
 574 420 576 399 583 228 c 0
 588 82 587 38 576 27 c 0
 559 10 544 10 544 27 c 0
 544 34 539 38 533 35 c 0
 525 31 522 77 523 192 c 0
 524 281 525 357 524 359 c 0
 523 362 520 373 517 385 c 0
 507 430 471 484 445 492 c 0
 400 506 271 465 220 419 c 0
 199 400 197 393 207 378 c 0
 234 336 249 27 225 7 c 0
 192 -22 166 21 185 74 c 0
 191 92 194 121 192 138 c 0
 160 356 161 352 130 319 c 0
 112 300 102 296 84 301 c 0
 57 308 53 325 76 341 c 0
 85 347 92 358 92 365 c 0
 92 390 212 485 281 515 c 0
EndSplineSet
Fore
92 365 m 0
 92 390 266 543 383 543 c 0
 485 543 520 520 551 462 c 0
 574 420 576 399 583 228 c 0
 585 174 586 134 586 104 c 0
 586 54 583 34 576 27 c 0
 568 18 560 14 554 14 c 0
 548 14 544 18 544 27 c 0
 544 37.9141 537.384 35 532 35 c 0
 526 35 523 70 523 153 c 0
 523 211 524 290 524 340 c 0
 524 387.937 487.927 495 422 495 c 0
 340 495 201 427 201 393 c 0
 201 388 203 384 207 378 c 0
 225 351 237 211 237 110 c 0
 237 36 235 -2 204 -2 c 0
 189 -2 179 15 179 39 c 0
 179 70 193 78 193 126 c 0
 193 127 170.084 336 150 336 c 0
 140 336 121 299 97 299 c 0
 92 299 61 303 61 320 c 0
 61 337 92 345 92 365 c 0
EndSplineSet
EndChar
StartChar: uni0E02
Encoding: 97 3586 108
Width: 655
Flags: W
HStem: 338 48<135.917 196.67> 483 52<178.096 268.316> 538 20G<526 551>
VStem: 67 67<387.289 437.08> 504 67<323.472 531.838>
Back
530 555 m 0
 543 559 557 559 563 554 c 0
 576 543 572 297 557 215 c 0
 546 152 485 9 465 -2 c 0
 447 -12 409 14 394 47 c 0
 365 110 311 356 322 372 c 0
 326 378 321 385 312 388 c 0
 302 391 295 401 295 411 c 0
 295 424 284 418 260 392 c 0
 192 320 76 320 68 391 c 0
 65 418 74 430 125 474 c 0
 241 573 305 553 362 398 c 0
 374 366 388 323 392 304 c 0
 414 206 447 94 454 94 c 0
 464 94 492 152 497 183 c 0
 499 197 502 285 504 378 c 0
 507 536 509 548 530 555 c 0
245 458 m 0
 237 486 233 487 200 476 c 0
 177 468 134 415 134 395 c 0
 134 386 145 384 171 389 c 0
 225 399 254 426 245 458 c 0
EndSplineSet
Fore
141 338 m 0
 102 338 67 357 67 399 c 0
 67 421 80 435 125 474 c 0
 172 514 210 535 243 535 c 0
 292 535 328 490 362 398 c 0
 374 366 388 323 392 304 c 0
 414 206 447 94 454 94 c 0
 464 94 492 152 497 183 c 0
 499 197 502 285 504 378 c 0
 507 534 504 558 548 558 c 0
 554 558 560 557 563 554 c 0
 568 549 571 505 571 448 c 0
 571 368 566 263 557 215 c 0
 550 178 490 -4 456 -4 c 0
 436 -4 407 19 394 47 c 0
 368 104 321 313 321 362 c 0
 321 372 330 382 312 388 c 0
 289 395 299 418 291 418 c 0
 276 418 231 338 141 338 c 0
247 447 m 0
 247 452 243 483 226 483 c 0
 179 483 134 413 134 395 c 0
 134 389 139 386 149 386 c 0
 165 386 247 398 247 447 c 0
EndSplineSet
EndChar
StartChar: uni0E03
Encoding: 98 3587 109
Width: 670
Flags: W
HStem: 379 35<176.306 225.435> 499 55<168.823 221.022>
VStem: 118 44<430.97 480.652> 524 55<350.943 490.919>
Back
162 535 m 0
 173 545 191 554 202 554 c 0
 227 554 272 510 288 471 c 0
 294 455 302 442 305 442 c 0
 309 443 329 468 351 499 c 0
 381 541 396 554 410 552 c 0
 449 547 462 491 481 244 c 0
 486 184 494 127 499 118 c 0
 510 97 510 101 509 197 c 0
 508 243 511 264 517 260 c 0
 523 256 526 294 524 377 c 0
 523 486 524 501 539 510 c 0
 565 527 585 494 578 447 c 0
 575 426 569 340 564 255 c 0
 559 170 552 90 549 76 c 0
 543 50 507 3 492 3 c 0
 470 3 462 26 431 174 c 0
 429 183 424 240 421 300 c 0
 414 437 411 470 405 476 c 0
 402 478 385 459 366 433 c 0
 340 397 327 386 308 386 c 0
 294 386 278 391 272 397 c 0
 263 406 257 405 243 391 c 0
 229 378 218 376 187 383 c 0
 155 389 145 397 130 425 c 0
 114 457 114 462 127 488 c 0
 135 504 150 524 162 535 c 0
223 474 m 0
 204 516 167 502 162 450 c 0
 159 427 175 414 208 414 c 0
 224 413 233 450 223 474 c 0
EndSplineSet
Fore
118 460 m 0
 118 484 163 554 202 554 c 0
 227 554 272 510 288 471 c 0
 294 455 302 442 305 442 c 1
 320 446 376 552 407 552 c 0
 453 552 464 460 481 244 c 0
 488 164 496 108 506 108 c 0
 509 108 509 118 509 144 c 2
 509 213 l 2
 509 261 513 260 518 260 c 0
 522 260 525 283 525 331 c 0
 525 368 524 368 524 424 c 0
 524 473 522 515 552 515 c 0
 568 515 579 494 579 465 c 2
 579 465 554 100 549 76 c 0
 543 50 507 3 492 3 c 0
 470 3 462 26 431 174 c 0
 420 224 418 476 404 476 c 0
 400 476 384 458 366 433 c 0
 340 397 327 386 308 386 c 0
 275 386 271 403 261 403 c 0
 247 403 243 379 215 379 c 0
 207 379 199 380 187 383 c 0
 155 389 145 397 130 425 c 0
 122 442 118 451 118 460 c 0
227 451 m 0
 227 481 208 499 195 499 c 0
 168 499 162 456 162 445 c 0
 162 425 178 414 208 414 c 0
 221 414 227 433 227 451 c 0
EndSplineSet
EndChar
StartChar: uni0E04
Encoding: 99 3588 110
Width: 612
Flags: W
HStem: 349 22<253.891 286.502> 478 48<295.864 381.399>
VStem: 104 97<246.1 341.961> 130 58<-14.1353 55 55 141.718 143.428 171.916> 299 58<269.504 335.667>
Back
263 499 m 0
 335 548 417 528 455 453 c 0
 477 409 484 363 492 192 c 0
 495 130 499 70 502 59 c 0
 509 30 497 13 474 17 c 0
 462 19 451 24 448 30 c 0
 444 35 440 94 438 163 c 0
 437 232 434 305 434 328 c 0
 432 374 402 442 373 466 c 0
 353 482 350 482 319 469 c 0
 300 461 271 442 253 426 c 2
 219 398 l 1
 253 385 l 2
 272 377 292 371 299 371 c 0
 305 371 311 364 311 358 c 0
 311 352 318 346 326 346 c 0
 334 346 345 336 352 323 c 0
 376 273 318 216 231 206 c 0
 214 204 199 200 195 196 c 0
 192 193 189 151 188 103 c 0
 186 -16 186 -16 165 -16 c 0
 140 -16 135 -6 130 55 c 0
 128 83 124 113 121 121 c 0
 118 130 119 139 125 142 c 0
 135 148 128 183 116 183 c 0
 102 183 100 267 112 306 c 0
 138 388 183 445 263 499 c 0
284 330 m 0
 256 352 249 353 223 343 c 0
 202 334 199 327 202 294 c 0
 204 259 207 256 231 256 c 0
 288 256 320 301 284 330 c 0
EndSplineSet
Fore
326 346 m 0xe8
 333 346 357 330 357 300 c 0
 357 257 305 214 231 206 c 0
 214 204 199 200 195 196 c 0
 192 193 189 151 188 103 c 0
 186 -16 186 -16 165 -16 c 0
 140 -16 135 -6 130 55 c 0
 125 129 112 136 125 142 c 0
 128 144 130 149 130 155 c 0xd8
 130 167 124 183 116 183 c 0
 108 183 104 209 104 239 c 0
 104 303 125 406 263 499 c 0
 290 517 317 526 344 526 c 0
 390 526 431 500 455 453 c 0
 501 360 487 115 502 59 c 0
 503 53 504 48 504 44 c 0
 504 27 495 16 480 16 c 0
 474 16 453 20 448 30 c 1
 439 41 434 325 434 328 c 0
 431 388 383 478 349 478 c 0
 330 478 281 451 253 426 c 2
 219 398 l 1
 253 385 l 2
 272 377 292 371 299 371 c 0
 305 371 311 364 311 358 c 0
 311 352 318 346 326 346 c 0xe8
299 302 m 0
 299 327 262 349 247 349 c 0
 229 349 201 336 201 311 c 0xe8
 201 307 201 301 202 294 c 0
 204 259 207 256 231 256 c 0
 271 256 299 279 299 302 c 0
EndSplineSet
EndChar
StartChar: uni0E05
Encoding: 100 3589 111
Width: 670
Flags: W
HStem: 214 53<187.215 275.315> 349 28<202.091 280.86> 481 52<219.301 315.584>
VStem: 75 112<202.209 333.991> 312 33<271.163 320.42> 365 64<243.898 361.282> 536 62<55.3152 345.234>
Back
201 515 m 0
 238 537 260 538 314 524 c 0
 351 514 382 479 397 430 c 0
 404 405 405 406 438 453 c 0
 457 481 479 505 488 508 c 0
 541 527 569 504 587 427 c 0
 601 364 602 28 588 15 c 0
 583 10 569 9 558 12 c 0
 538 18 536 27 536 196 c 0
 536 293 533 386 531 402 c 0
 528 419 526 437 525 445 c 0
 522 489 429 345 429 296 c 0
 429 260 419 242 398 242 c 0
 375 242 368 258 365 319 c 0
 363 344 359 368 356 373 c 0
 352 378 343 400 335 422 c 0
 318 469 296 487 261 480 c 0
 226 472 199 449 181 409 c 0
 173 391 166 375 166 374 c 0
 166 373 185 374 208 376 c 0
 299 384 345 353 345 283 c 0
 345 243 342 239 306 225 c 0
 284 217 247 212 221 214 c 2
 175 217 l 1
 178 100 l 2
 182 -12 181 -17 160 -20 c 0
 131 -24 116 -6 109 42 c 0
 101 96 98 109 89 123 c 0
 84 130 78 169 76 210 c 0
 73 274 77 298 103 366 c 0
 138 463 156 490 201 515 c 0
283 327 m 0
 265 339 245 349 237 349 c 0
 216 349 187 317 187 293 c 0
 187 276 196 272 233 268 c 0
 312 261 338 290 283 327 c 0
EndSplineSet
Fore
258 533 m 0
 390 533 395 414 405 414 c 0
 416 414 464 500 488 508 c 0
 500 512 510 514 519 514 c 0
 553 514 573 487 587 427 c 0
 594 394 598 289 598 192 c 0
 598 103 595 21 588 15 c 0
 583 10 569 9 558 12 c 0
 538 18 536 27 536 196 c 0
 536 402 529 414 525 445 c 0
 525 451 523 453 520 453 c 0
 499 453 429 339 429 296 c 0
 429 260 419 242 398 242 c 0
 375 242 368 258 365 319 c 0
 360 381 358 358 335 422 c 0
 320 462 302 481 275 481 c 0
 197 481 166 374 166 374 c 1
 170 374 l 2
 189 374 209 377 235 377 c 0
 308 377 345 346 345 283 c 0
 345 243 342 239 306 225 c 0
 287 218 258 214 233 214 c 0
 221 214 l 2
 175 217 l 1
 178 100 l 2
 179 68 180 45 180 29 c 0
 180 -13 176 -21 153 -21 c 0
 96 -21 117 79 89 123 c 0
 83 131 75 183 75 241 c 0
 75 284 82 310 103 366 c 0
 138 463 156 490 201 515 c 0
 222 528 238 533 258 533 c 0
312 291 m 0
 312 315 251 349 237 349 c 0
 216 349 187 317 187 293 c 0
 187 282 189 267 255 267 c 0
 292 267 312 277 312 291 c 0
EndSplineSet
EndChar
StartChar: uni0E06
Encoding: 101 3590 112
Width: 829
Flags: W
HStem: 41 45<387.5 447> 353 43<148.283 197.203> 498 50<151.37 208.135>
VStem: 90 57<396.228 493.729> 347 51<105.408 203.773> 450 67<87.9679 183.755> 667 72<248.012 393.234 393.234 548.95>
Back
334 515 m 2
 375 564 401 571 430 541 c 0
 449 520 486 403 486 361 c 0
 486 345 496 337 523 331 c 0
 566 323 611 298 639 268 c 0
 650 257 661 248 665 248 c 0
 668 248 668 312 665 390 c 0
 660 508 661 534 676 546 c 0
 686 554 701 557 712 553 c 0
 727 548 732 508 739 328 c 0
 744 208 748 94 749 76 c 0
 750 54 744 42 731 39 c 0
 717 37 700 57 672 111 c 0
 627 198 559 270 523 270 c 0
 501 270 498 265 503 234 c 0
 522 102 522 70 503 42 c 0
 481 11 433 4 422 31 c 0
 418 41 410 46 403 42 c 0
 383 30 353 92 348 158 c 0
 344 219 346 225 386 270 c 0
 417 306 427 325 422 347 c 0
 419 363 413 397 409 423 c 0
 400 475 389 482 365 449 c 0
 342 418 288 397 272 413 c 0
 256 428 227 410 227 386 c 0
 227 371 159 347 143 355 c 0
 137 358 133 368 133 376 c 0
 133 385 126 393 117 393 c 0
 97 393 83 438 94 467 c 0
 105 495 166 548 187 548 c 0
 196 548 225 530 249 509 c 2
 295 469 l 1
 334 515 l 2
207 467 m 0
 217 482 178 506 161 495 c 0
 145 484 141 407 157 398 c 0
 175 388 205 414 201 436 c 0
 199 446 202 460 207 467 c 0
450 132 m 0
 450 162 446 196 441 206 c 0
 434 223 430 221 412 192 c 0
 389 156 393 128 427 98 c 0
 450 78 450 79 450 132 c 0
EndSplineSet
Fore
90 444 m 0
 90 496 172 548 187 548 c 0
 196 548 225 530 249 509 c 2
 295 469 l 1
 334 515 l 2
 359 545 378 559 396 559 c 0
 408 559 419 553 430 541 c 0
 449 520 486 403 486 361 c 0
 486 317 565 348 639 268 c 0
 650 257 661 248 665 248 c 0
 666 248 667 264 667 290 c 0
 667 354 662 439 662 481 c 0
 662 525 665 555 701 555 c 0
 726 555 731 544 739 328 c 0
 744 202 749 72 749 71 c 0
 749 45 737 39 729 39 c 0
 715 39 699 59 672 111 c 0
 627 198 559 270 523 270 c 0
 507 270 501 267 501 254 c 0
 501 243 517 146 517 99 c 0
 517 23 467 14 451 14 c 0
 416 14 422 53 403 42 c 0
 401 41 400 41 398 41 c 0
 377 41 347 106 347 190 c 0
 347 223 355 235 386 270 c 0
 412 300 423 318 423 336 c 0
 423 345 417 371 409 423 c 0
 404 454 398 469 388 469 c 0
 382 469 375 462 365 449 c 0
 347 425 312 407 289 407 c 0
 270 407 273 418 258 418 c 0
 243 418 227 404 227 386 c 0
 227 373 176 353 152 353 c 0
 135 353 133 371 133 376 c 0
 133 385 126 393 117 393 c 0
 102 393 90 419 90 444 c 0
200 443 m 0
 200 460 209 466 209 472 c 0
 209 484 188 498 172 498 c 0
 157 498 147 483 147 438 c 0
 147 404 154 396 166 396 c 0
 182 396 201 414 201 432 c 0
 201 436 200 436 200 443 c 0
398 150 m 0
 398 115 440 86 444 86 c 0
 450 86 450 99 450 132 c 0
 450 203 436 217 433 217 c 0
 427 217 398 179 398 150 c 0
EndSplineSet
EndChar
StartChar: uni0E07
Encoding: 102 3591 113
Width: 420
Flags: W
HStem: 5 95<279.159 322> 345 47<126.641 185.395> 488 59<168.152 255.364>
VStem: 59 67<380.203 442.047> 294 61<101.088 137.108 119.098 377.256>
Back
149 516 m 0
 191 550 237 556 282 534 c 0
 336 507 359 388 355 161 c 0
 352 13 351 8 329 5 c 0
 316 4 297 11 286 21 c 0
 275 31 245 53 219 69 c 0
 144 115 121 137 125 156 c 0
 132 187 165 181 229 135 c 0
 267 109 294 95 294 102 c 0
 299 155 293 383 287 405 c 2
 279 433 l 1
 254 403 l 2
 223 367 195 352 148 346 c 0
 104 341 59 365 59 393 c 0
 59 419 103 480 149 516 c 0
250 475 m 0
 234 493 210 493 175 473 c 0
 149 458 117 404 128 393 c 0
 136 386 208 421 208 432 c 0
 208 437 221 445 236 450 c 0
 259 459 261 462 250 475 c 0
EndSplineSet
Fore
59 393 m 0
 59 423 141 547 229 547 c 0
 246 547 264 543 282 534 c 0
 332 509 355 405 355 209 c 0
 355 16 350 5 326 5 c 0
 295 5 284 29 219 69 c 0
 149 112 125 134 125 152 c 0
 125 159 129 175 147 175 c 0
 188 175 268 100 292 100 c 0
 293 100 294 101 294 102 c 0
 295 116 296 142 296 173 c 0
 296 260 291 389 287 405 c 2
 279 433 l 1
 254 403 l 2
 232 378 196 345 136 345 c 0
 96 345 59 368 59 393 c 0
256 464 m 0
 256 469 245 488 221 488 c 0
 167 488 126 424 126 400 c 0
 126 394 128 392 132 392 c 0
 148 392 208 422 208 432 c 0
 208 445 256 452 256 464 c 0
EndSplineSet
EndChar
StartChar: uni0E08
Encoding: 103 3592 114
Width: 451
Flags: W
HStem: 180 48<139.377 244.485> 314 42<161.743 251.584> 483 70<256.211 312.425>
VStem: 69 292<216.533 262 242 333 242 242> 69 60<231.497 279.689> 108 21<244 299> 309 52<173.32 413.704>
Back
229 525 m 0
 271 555 293 560 321 545 c 0
 338 536 343 525 356 461 c 0
 365 417 362 167 351 92 c 0
 342 24 332 2 309 2 c 0
 297 2 294 18 289 113 c 0
 286 162 279 206 273 211 c 0
 266 218 263 217 263 210 c 0
 263 204 256 198 248 198 c 0
 240 198 226 194 216 188 c 0
 176 163 69 202 69 242 c 0
 69 264 88 294 99 287 c 0
 104 284 108 289 108 299 c 0
 108 322 146 347 191 354 c 0
 222 359 236 355 266 335 c 0
 287 321 306 312 308 314 c 0
 312 318 294 460 287 470 c 0
 272 494 243 485 196 444 c 0
 148 401 105 385 92 406 c 0
 85 418 111 447 156 476 c 0
 175 488 208 510 229 525 c 0
247 296 m 0
 201 322 186 320 156 285 c 0
 121 243 121 238 151 231 c 0
 193 221 239 234 253 260 c 0
 265 282 265 286 247 296 c 0
EndSplineSet
Fore
111 397 m 0xe6
 97 397 91 405 91 410 c 0
 91 440 175 487 229 525 c 0
 256 544 275 553 292 553 c 0
 347 553 361 495 361 333 c 0xf0
 361 52 340 2 309 2 c 0xe2
 297 2 294 18 289 113 c 0
 286 162 279 206 273 211 c 0
 266 218 263 217 263 210 c 0
 263 204 256 198 248 198 c 0
 222 198 218 180 182 180 c 0
 134 180 69 211 69 242 c 0xf0
 69 262 84 288 95 288 c 0
 99 288 108 280 108 299 c 0
 108 328 167 356 212 356 c 0
 251 356 288 314 307 314 c 0
 308 314 309 315 309 319 c 0
 309 345 293 461 287 470 c 0
 282 479 274 483 265 483 c 0
 221 483 163 397 111 397 c 0xe6
261 281 m 0
 261 292 218 314 200 314 c 0
 168 314 129 253 129 244 c 0xe8
 129 231 168 228 180 228 c 0
 247 228 261 272 261 281 c 0
EndSplineSet
EndChar
StartChar: uni0E09
Encoding: 104 3593 115
Width: 636
Flags: W
HStem: -8 82<266.914 306.101> 243 48<93.2155 146.446> 360 46<122.451 177.873> 495 60<345.461 414.144>
VStem: 31 60<292.906 329.725> 445 60<265.832 340 340 413.088> 523 55<153.24 204.522>
Back
360 541 m 0
 397 560 399 560 439 541 c 0
 492 517 505 484 505 372 c 0
 505 278 506 274 529 265 c 0
 566 250 582 220 577 169 c 0
 571 102 546 55 512 52 c 0
 493 50 485 53 485 63 c 0
 485 71 478 80 469 83 c 0
 461 86 455 97 457 106 c 0
 464 153 441 143 372 73 c 0
 302 1 264 -21 243 -1 c 0
 227 15 216 87 214 190 c 0
 213 242 212 284 211 284 c 0
 211 284 188 273 161 260 c 0
 64 211 -12 276 58 349 c 0
 122 415 180 424 229 373 c 0
 249 352 256 333 261 274 c 0
 275 116 281 74 287 74 c 0
 290 74 328 111 369 155 c 2
 445 235 l 1
 444 340 l 2
 443 402 438 458 430 479 c 0
 423 497 416 507 416 501 c 0
 415 495 408 492 400 495 c 0
 392 498 360 484 328 465 c 0
 296 446 265 430 258 430 c 0
 251 430 245 426 245 420 c 0
 245 404 208 409 202 425 c 0
 198 435 204 449 218 462 c 0
 242 483 325 535 328 529 c 0
 329 528 343 533 360 541 c 0
182 346 m 0
 160 368 151 366 115 332 c 0
 91 309 86 299 96 293 c 0
 104 288 121 291 138 299 c 0
 154 308 171 311 176 308 c 0
 193 298 199 331 182 346 c 0
520 159 m 0
 526 198 524 206 511 206 c 0
 495 206 488 171 494 128 c 0
 500 88 511 102 520 159 c 0
EndSplineSet
Fore
398 555 m 0
 408 555 419 550 439 541 c 0
 492 517 505 484 505 372 c 0
 505 278 506 274 529 265 c 0
 562 252 578 227 578 186 c 0
 578 153 566 51 502 51 c 0
 490 51 485 55 485 63 c 0
 485 71 478 80 469 83 c 0
 452 90 458 113 458 120 c 0
 458 130 455 135 450 135 c 0
 415 135 315 -8 261 -8 c 0
 254 -8 248 -6 243 -1 c 0
 206 36 217 284 211 284 c 1
 161 260 l 2
 138 248 115 243 96 243 c 0
 57 243 31 264 31 293 c 0
 31 339 107 406 161 406 c 0
 185 406 208 395 229 373 c 0
 249 352 256 333 261 274 c 0
 275 116 281 74 287 74 c 0
 290 74 328 111 369 155 c 2
 445 235 l 1
 444 340 l 2
 443 402 438 458 430 479 c 0
 423 497 416 507 416 501 c 1
 414 490 400 495 397 495 c 0
 369 495 276 430 258 430 c 0
 251 430 245 426 245 420 c 0
 245 413 238 410 230 410 c 0
 222 410 201 414 201 432 c 0
 201 441 207 452 218 462 c 0
 241 482 316 529 327 529 c 0
 344 529 378 555 398 555 c 0
192 322 m 0
 192 344 168 360 158 360 c 0
 139 360 91 312 91 300 c 0
 91 296 95 291 107 291 c 0
 132 291 148 309 170 309 c 0
 177 309 177 306 182 306 c 0
 188 306 192 314 192 322 c 0
503 105 m 0
 515 105 523 183 523 190 c 0
 523 203 519 206 511 206 c 0
 499 206 492 186 492 157 c 0
 492 135 496 105 503 105 c 0
EndSplineSet
EndChar
StartChar: uni0E0A
Encoding: 105 3594 116
Width: 575
Flags: W
HStem: -0 93<270 323.928> 335 52<101.373 175.538> 377 42<193.392 228.993> 490 55<171.712 221.687>
VStem: 31 63<379.064 432.301> 245 54<180.25 339.375> 364 63<187.31 427.576>
Back
480 652 m 0
 536 684 541 686 550 671 c 0
 559 658 509 592 484 582 c 0
 473 578 446 554 424 530 c 2
 384 485 l 1
 407 457 l 2
 428 431 429 419 424 326 c 0
 414 164 364 16 314 3 c 0
 252 -12 245 14 245 232 c 0
 245 325 240 377 233 377 c 0
 227 377 208 366 192 355 c 0
 156 328 55 329 37 356 c 0
 23 380 35 419 68 450 c 0
 83 464 104 486 114 496 c 0
 138 522 186 545 212 545 c 0
 225 545 247 534 262 519 c 0
 292 489 290 487 377 572 c 0
 409 602 454 637 480 652 c 0
223 465 m 0
 211 498 208 498 153 468 c 0
 104 442 94 432 94 406 c 0
 94 383 150 380 169 403 c 0
 176 412 191 419 202 419 c 0
 229 419 236 433 223 465 c 0
353 432 m 0
 345 448 335 461 331 460 c 0
 301 456 298 444 299 299 c 0
 300 217 304 135 308 118 c 0
 315 87 316 87 328 109 c 0
 359 164 377 389 353 432 c 0
EndSplineSet
Fore
212 545 m 0xde
 246 545 273 500 289 500 c 0
 318 500 388 599 480 652 c 0
 514 672 530 680 538 680 c 0
 546 680 551 671 551 667 c 0
 551 648 507 591 484 582 c 0
 473 578 446 554 424 530 c 2
 384 485 l 1
 407 457 l 2
 422 439 427 428 427 391 c 0
 427 202 370 18 314 3 c 0
 305 1 297 -0 290 -0 c 0
 250 -0 245 45 245 232 c 0
 245 325 240 377 233 377 c 0xbe
 210 377 194 335 110 335 c 0
 77 335 46 342 37 356 c 0
 33 363 31 370 31 379 c 0
 31 420 67 449 114 496 c 0
 138 522 186 545 212 545 c 0xde
229 439 m 0
 229 449 219 490 203 490 c 0
 194 490 180 483 153 468 c 0
 104 442 94 432 94 406 c 0
 94 394 110 387 128 387 c 0xde
 173 387 168 419 202 419 c 0
 220 419 229 425 229 439 c 0
317 93 m 0
 328 93 364 185 364 346 c 0
 364 386 361 418 353 432 c 0
 345 447 336 460 331 460 c 0
 299 460 299 419 299 338 c 0
 299 244 302 93 317 93 c 0
EndSplineSet
EndChar
StartChar: uni0E0B
Encoding: 106 3595 117
Width: 666
Flags: W
HStem: -17 76<401.062 446.753> 346 53<73.5739 101.732> 510 49<109.815 142.371>
VStem: 22 51<403.479 486.075> 144 51<500 526> 489 51<269.058 330.389>
Back
531 553 m 0
 593 602 626 615 639 594 c 0
 649 578 634 557 581 515 c 0
 472 429 475 432 494 409 c 0
 504 399 512 386 512 382 c 0
 512 378 519 368 528 359 c 0
 540 346 542 328 537 274 c 0
 534 236 527 189 522 169 c 0
 517 149 508 111 501 84 c 0
 487 27 451 -17 420 -17 c 0
 375 -17 350 98 332 380 c 2
 326 484 l 1
 278 429 l 2
 229 372 204 367 191 410 c 2
 184 433 l 1
 167 407 l 2
 122 342 93 331 54 363 c 0
 40 375 30 398 25 430 c 0
 19 476 21 482 54 515 c 0
 73 535 99 554 113 557 c 0
 142 565 195 545 195 526 c 0
 195 519 203 503 213 490 c 2
 231 468 l 1
 270 516 l 2
 332 591 368 579 384 478 c 0
 388 456 392 438 394 438 c 0
 396 438 413 453 432 470 c 0
 450 488 495 525 531 553 c 0
144 500 m 0
 144 519 95 508 81 486 c 0
 76 480 73 457 73 435 c 0
 73 383 93 389 112 446 c 0
 120 470 130 490 135 490 c 0
 141 490 144 494 144 500 c 0
472 344 m 0
 455 377 445 386 425 386 c 0
 402 386 400 382 400 337 c 0
 400 262 418 77 426 64 c 0
 437 45 454 85 468 169 c 0
 476 212 485 259 488 274 c 0
 491 291 485 317 472 344 c 0
EndSplineSet
Fore
394 438 m 0
 400 438 569 604 621 604 c 0
 638 604 642 590 642 584 c 0
 642 543 484 455 484 426 c 0
 484 415 512 394 512 382 c 0
 512 365 540 367 540 317 c 0
 540 274 529 197 522 169 c 2
 501 84 l 2
 487 27 451 -17 420 -17 c 0
 375 -17 350 98 332 380 c 2
 326 484 l 1
 278 429 l 2
 251 397 231 381 216 381 c 0
 205 381 197 391 191 410 c 2
 184 433 l 1
 167 407 l 2
 138 365 116 346 93 346 c 0
 36 346 22 426 22 460 c 0
 22 481 30 491 54 515 c 0
 96 559 119 559 128 559 c 0
 157 559 195 542 195 526 c 0
 195 519 203 503 213 490 c 2
 231 468 l 1
 270 516 l 2
 297 548 318 564 336 564 c 0
 385 564 384 438 394 438 c 0
84 399 m 0
 104 399 121 490 135 490 c 0
 141 490 144 494 144 500 c 0
 144 507 138 510 129 510 c 0
 113 510 90 500 81 486 c 0
 76 480 73 457 73 435 c 0
 73 411 77 399 84 399 c 0
472 344 m 0
 455 377 445 386 425 386 c 0
 402 386 400 382 400 337 c 0
 400 262 418 77 426 64 c 0
 428 61 430 59 432 59 c 0
 443 59 456 99 468 169 c 2
 488 274 l 2
 489 277 489 280 489 283 c 0
 489 300 483 322 472 344 c 0
EndSplineSet
EndChar
StartChar: uni0E0C
Encoding: 107 3596 118
Width: 817
Flags: W
HStem: -18 21G<698.5 715> 490 57<269.797 445.683>
VStem: 423 54<51.1725 124.819> 676 60<162 335.757> 685 72<433.297 511.071>
Back
260 532 m 0
 282 540 332 547 370 547 c 0
 430 548 445 543 482 517 c 0
 529 482 546 440 564 308 c 0
 573 242 580 222 596 213 c 0
 608 207 631 193 647 182 c 2
 676 162 l 1
 677 261 l 2
 677 316 681 395 685 436 c 0
 691 500 695 511 713 513 c 0
 758 519 764 503 752 413 c 0
 745 367 738 259 736 174 c 0
 734 88 728 11 724 1 c 0
 712 -28 686 -23 686 8 c 0
 686 48 645 120 612 137 c 2
 584 151 l 1
 572 80 l 2
 555 -19 512 -53 457 -11 c 0
 439 3 430 24 425 64 c 0
 421 103 422 120 431 120 c 0
 438 120 443 126 443 133 c 0
 443 140 460 162 481 181 c 2
 519 217 l 1
 507 289 l 2
 475 473 448 504 332 485 c 0
 275 476 183 437 155 410 c 0
 147 403 162 312 195 171 c 0
 209 111 215 99 229 106 c 0
 239 110 264 115 285 118 c 0
 318 122 324 119 329 99 c 0
 333 83 328 63 315 44 c 0
 297 19 286 14 249 14 c 0
 224 14 190 5 171 -7 c 0
 141 -25 135 -26 124 -12 c 0
 114 1 117 10 139 33 c 0
 155 49 166 65 163 68 c 0
 161 70 151 111 142 158 c 0
 108 335 101 357 75 374 c 0
 62 383 51 395 51 402 c 0
 51 417 202 512 260 532 c 0
512 84 m 0
 516 111 517 136 514 139 c 0
 503 149 473 89 477 66 c 0
 483 22 504 33 512 84 c 0
EndSplineSet
Fore
119 1 m 0xf0
 119 20 163 52 163 67 c 1
 163 67 158 72 142 158 c 0
 108 335 101 357 75 374 c 0
 62 383 51 395 51 402 c 0
 51 417 202 512 260 532 c 0
 271 536 309 547 383 547 c 0
 432 547 448 541 482 517 c 0
 529 482 546 440 564 308 c 0
 579 201 584 226 647 182 c 2
 676 162 l 1xf0
 677 261 l 2
 677 316 681 395 685 436 c 0
 692 507 695 514 727 514 c 0
 749 514 757 504 757 473 c 0xe8
 757 441 740 361 736 174 c 0
 732 14 727 -18 703 -18 c 0
 694 -18 686 -9 686 8 c 0
 686 48 645 120 612 137 c 2
 584 151 l 1
 572 80 l 2
 560 9 534 -29 500 -29 c 0
 487 -29 473 -23 457 -11 c 0
 427 12 423 65 423 98 c 0
 423 113 425 120 431 120 c 0
 438 120 443 126 443 133 c 0
 443 140 460 162 481 181 c 2
 519 217 l 1
 507 289 l 2
 480 443 457 490 382 490 c 0
 301 490 187 440 155 410 c 0
 154 409 153 405 153 399 c 0
 153 369 168 287 195 171 c 0
 207 121 213 104 223 104 c 0
 225 104 241 112 285 118 c 0
 293 119 299 120 305 120 c 0
 320 120 330 112 330 88 c 0
 330 74 325 59 315 44 c 0
 297 19 286 14 249 14 c 0
 187 14 157 -22 139 -22 c 0
 128 -22 119 -5 119 1 c 0xf0
491 39 m 0
 506 39 516 91 516 126 c 0
 516 137 515 140 511 140 c 0
 499 140 477 94 477 71 c 0
 477 59 482 39 491 39 c 0
EndSplineSet
EndChar
StartChar: uni0E0D
Encoding: 108 3597 119
Width: 821
Flags: W
HStem: -244 72<611.213 672.735> -31 153<174.443 240.138> -20 71<502.861 560.793> 79 62<264.371 325.557> 455 58<280.544 393.729> 534 20G<673 704>
VStem: 298 58<51.7877 96.3978> 533 66<-168.635 -91.8878> 635 96<341.916 519.717> 671 65<126.212 309.583>
Back
568 -54 m 0
 585 -42 591 -43 616 -62 c 0
 637 -78 637 -80 617 -95 c 0
 589 -116 596 -167 628 -172 c 0
 644 -174 668 -158 700 -125 c 0
 733 -90 751 -79 760 -88 c 0
 769 -98 767 -111 754 -135 c 0
 744 -154 733 -176 729 -187 c 0
 721 -210 665 -244 636 -244 c 0
 605 -244 545 -186 535 -147 c 0
 528 -115 543 -71 568 -54 c 0
644 536 m 0
 666 563 699 559 708 528 c 0
 712 514 717 463 719 414 c 0
 721 364 726 290 731 247 c 0
 745 115 737 96 639 34 c 0
 483 -67 474 -55 442 313 c 0
 435 383 430 399 401 428 c 0
 361 468 342 466 232 410 c 0
 182 384 162 368 165 355 c 0
 168 345 176 290 184 234 c 0
 200 120 209 109 264 131 c 0
 284 140 311 143 327 139 c 0
 350 133 356 125 356 96 c 0
 356 57 302 -9 269 -9 c 0
 257 -9 231 -15 211 -23 c 0
 182 -34 166 -34 144 -24 c 0
 109 -7 106 15 139 23 c 0
 159 29 162 35 155 66 c 0
 151 86 145 121 142 143 c 0
 131 223 100 331 84 344 c 0
 59 366 67 395 106 418 c 0
 232 493 282 512 353 513 c 0
 473 514 500 465 518 215 c 0
 525 128 532 54 535 51 c 0
 538 48 570 67 606 93 c 0
 669 138 673 144 671 187 c 0
 670 242 659 336 642 439 c 0
 632 501 632 522 644 536 c 0
294 64 m 0
 298 70 299 76 296 78 c 0
 290 84 241 58 241 48 c 0
 241 37 286 50 294 64 c 0
EndSplineSet
Fore
533 -130 m 0x8f
 533 -84 565 -46 586 -46 c 0
 599 -46 632 -72 632 -79 c 0
 632 -91 599 -95 599 -132 c 0
 599 -163 622 -172 631 -172 c 0
 670 -172 725 -85 753 -85 c 0
 761 -85 766 -95 766 -102 c 0
 766 -120 738 -161 729 -187 c 0
 721 -210 665 -244 636 -244 c 0
 607 -244 533 -183 533 -130 c 0x8f
635 503 m 0xaf80
 635 548 669 554 677 554 c 0
 731 554 708 446 731 247 c 0xaf80
 734 216 736 191 736 171 c 0
 736 104 714 82 639 34 c 0
 588 1 552 -20 527 -20 c 0xaf40
 475 -20 463 66 442 313 c 0
 435 383 430 399 401 428 c 0
 383 446 369 455 350 455 c 0
 326 455 293 441 232 410 c 0
 185 386 165 370 165 358 c 0
 165 355 166 357 184 234 c 0
 196 150 204 122 229 122 c 0xcf40
 251 122 273 141 311 141 c 0x9f40
 356 141 356 114 356 96 c 0
 356 57 302 -9 269 -9 c 0
 238 -9 199 -31 174 -31 c 0xcf40
 146 -31 116 -10 116 4 c 0
 116 28 158 16 158 43 c 0
 158 46 119 316 84 344 c 0
 74 352 70 362 70 372 c 0
 70 387 82 404 106 418 c 0
 224 488 280 513 357 513 c 0
 474 513 500 463 518 215 c 0
 528 85 532 51 536 51 c 0
 542 51 573 69 606 93 c 0
 662 133 671 142 671 174 c 0xaf40
 671 288 635 462 635 503 c 0xaf80
249 44 m 0
 261 44 298 55 298 74 c 0
 298 77 296 79 293 79 c 0x9f
 281 79 241 57 241 48 c 0
 241 45 244 44 249 44 c 0
EndSplineSet
Substitution2: "Single Substitution lookup 8 subtable" uni0E0D.descless
Substitution2: "Single Substitution lookup 7 subtable" uni0E0D.descless
EndChar
StartChar: uni0E0E
Encoding: 109 3598 120
Width: 598
Flags: W
HStem: -246 21G<484 522> -209 55<203.8 315.853> -137 10<405 472> -71 50<215.609 333.235> -15 38<114.602 170.285> 138 37<166.492 202.873> 518 20G<394.5 430.5>
VStem: 63 50<38.3572 115.759> 135 103<319 366> 136 60<-152.095 -105.883> 266 53<216.283 302.49> 467 52<12 77 77 142 142 392.014> 477 60<-220.653 -65.508>
AnchorPoint: "BelowBase" 416 -251 basechar 0
Back
307 484 m 0
 395 542 432 551 460 520 c 0
 497 480 509 406 519 185 c 0
 524 66 531 -41 534 -110 c 0
 540 -223 539 -237 523 -243 c 0
 498 -253 475 -236 454 -194 c 0
 445 -175 429 -152 420 -144 c 0
 405 -133 399 -134 375 -156 c 0
 326 -202 272 -218 214 -204 c 0
 124 -183 112 -127 180 -56 c 0
 215 -19 219 -18 269 -23 c 0
 304 -26 330 -36 346 -50 c 0
 373 -75 393 -78 393 -58 c 0
 393 -49 410 -31 430 -16 c 2
 467 12 l 1
 461 142 l 2
 456 305 430 493 415 486 c 0
 412 484 367 455 317 422 c 0
 227 362 225 360 257 357 c 0
 306 352 325 317 317 246 c 0
 313 214 304 176 296 161 c 0
 289 147 279 119 275 100 c 0
 272 82 258 56 245 43 c 0
 201 0 102 -33 102 -4 c 0
 102 1 95 6 87 6 c 0
 68 6 53 80 70 86 c 0
 76 88 82 101 82 115 c 0
 82 133 89 142 110 150 c 0
 126 155 147 164 156 170 c 0
 165 175 189 177 208 174 c 2
 243 168 l 1
 257 231 l 2
 265 266 268 297 264 301 c 0
 260 305 231 309 201 309 c 0
 141 309 118 320 147 336 c 0
 157 342 180 366 196 388 c 0
 213 411 264 454 307 484 c 0
207 113 m 0
 195 143 193 144 147 124 c 0
 117 111 113 104 113 68 c 0
 113 20 126 13 173 35 c 0
 213 53 222 74 207 113 c 0
477 -90 m 0
 477 -63 475 -41 474 -41 c 0
 454 -41 450 -98 467 -123 c 0
 474 -134 477 -125 477 -90 c 0
323 -88 m 0
 274 -63 233 -66 213 -97 c 0
 184 -141 191 -154 244 -154 c 0
 270 -154 296 -149 303 -143 c 0
 310 -137 324 -126 336 -119 c 0
 355 -105 355 -104 323 -88 c 0
EndSplineSet
Fore
63 65 m 0xffb0
 63 96 82 78 82 115 c 0
 82 154 120 146 156 170 c 0
 162 173 175 175 189 175 c 0
 195 175 202 175 208 174 c 2
 243 168 l 1
 257 231 l 2
 263 256 266 278 266 291 c 0
 266 296 265 300 264 301 c 0
 260 305 231 309 201 309 c 0
 158 309 135 315 135 323 c 0xffb0
 135 333 156 334 196 388 c 0
 228 431 366 538 423 538 c 0
 438 538 450 532 460 520 c 0
 497 480 509 406 519 185 c 0xff70
 524 70 537 -159 537 -197 c 0
 537 -230 535 -246 509 -246 c 0
 459 -246 442 -137 405 -137 c 0
 382 -137 343 -209 254 -209 c 0
 222 -209 136 -194 136 -137 c 0xff68
 136 -114 151 -86 180 -56 c 0
 206 -28 215 -21 238 -21 c 0
 349 -21 352 -71 383 -71 c 0
 389 -71 393 -67 393 -58 c 0
 393 -49 410 -31 430 -16 c 2
 467 12 l 1
 461 142 l 2
 456 302 431 486 416 486 c 2
 415 486 l 1
 317 422 l 2
 260 384 238 369 238 363 c 0
 238 349 319 377 319 275 c 0
 319 192 285 147 275 100 c 0
 262 22 152 -15 120 -15 c 0
 109 -15 102 -12 102 -4 c 0
 102 1 95 6 87 6 c 0
 74 6 63 42 63 65 c 0xffb0
214 82 m 0
 214 90 206 138 187 138 c 0
 179 138 167 133 147 124 c 0
 117 111 113 104 113 68 c 0
 113 37 118 23 135 23 c 0
 145 23 214 40 214 82 c 0
456 -80 m 0
 456 -110 469 -127 472 -127 c 0
 475 -127 477 -116 477 -90 c 0xff28
 477 -63 475 -41 474 -41 c 0
 463 -41 456 -60 456 -80 c 0
349 -106 m 0
 349 -98 297 -71 263 -71 c 0
 209 -71 196 -130 196 -135 c 0xff60
 196 -149 211 -154 244 -154 c 0
 307 -154 301 -139 336 -119 c 0
 344 -113 349 -109 349 -106 c 0
EndSplineSet
EndChar
StartChar: uni0E0F
Encoding: 110 3599 121
Width: 606
Flags: W
HStem: -194 65<-4.25575 97.172> -85 71<342.643 394.588> -41 66<95.1101 159.723> 51 63<148.851 194.983> 95 19<195.886 217.012> 213 44<162.512 244.866> 512 69<400.932 455.949>
VStem: -54 89<-147.482 -107.374> 92 63<136.764 200.255> 156 72<379.436 413.244> 233 58<131.475 172.056> 301 59<311.615 404.427> 489 63<-184.369 92.0951 -19.5844 203.775>
AnchorPoint: "BelowBase" 424 -251 basechar 0
Back
324 545 m 0
 361 565 403 581 418 581 c 0
 461 582 510 543 523 496 c 0
 553 391 563 -205 535 -235 c 0
 517 -254 473 -235 466 -205 c 0
 463 -190 443 -177 436 -169 c 0
 428 -161 422 -150 408 -127 c 0
 395 -104 381 -85 377 -85 c 0
 373 -85 363 -110 356 -138 c 0
 324 -262 304 -271 271 -177 c 0
 259 -142 244 -107 239 -101 c 0
 223 -82 182 -90 172 -114 c 0
 147 -170 -5 -218 -41 -180 c 0
 -56 -165 -57 -157 -47 -134 c 0
 -25 -84 50 1 83 14 c 0
 123 28 189 29 203 14 c 0
 210 7 227 13 252 33 c 0
 274 50 298 59 307 55 c 0
 321 49 320 41 297 4 c 0
 273 -33 271 -42 283 -62 c 0
 301 -94 311 -92 324 -53 c 0
 345 11 408 -6 451 -86 c 0
 464 -110 479 -130 484 -130 c 0
 490 -130 491 -117 486 54 c 0
 477 449 476 451 460 485 c 0
 447 513 441 516 408 509 c 0
 388 505 357 494 341 485 c 0
 310 469 310 469 331 448 c 0
 364 416 369 362 344 288 c 0
 333 253 316 212 307 198 c 0
 299 185 291 166 291 158 c 0
 291 143 237 95 220 95 c 0
 215 95 204 85 194 72 c 0
 170 42 149 44 118 77 c 0
 66 131 96 222 174 249 c 0
 206 260 220 260 239 249 c 0
 268 233 272 240 292 324 c 0
 305 380 305 386 286 400 c 0
 261 419 228 419 228 400 c 0
 228 391 217 382 202 378 c 0
 97 350 187 474 324 545 c 0
244 205 m 0
 232 226 155 202 155 178 c 0
 155 170 152 156 149 148 c 0
 147 140 148 127 152 120 c 0
 165 99 240 138 233 162 c 0
 230 172 232 184 238 188 c 0
 245 192 247 200 244 205 c 0
165 -53 m 0
 165 -46 149 -41 129 -41 c 0
 100 -41 86 -49 60 -82 c 0
 29 -122 28 -124 50 -128 c 0
 79 -133 134 -109 134 -91 c 0
 134 -83 141 -74 149 -70 c 0
 158 -67 165 -59 165 -53 c 0
EndSplineSet
Fore
228 400 m 0x97f8
 228 384 198 374 176 374 c 0
 162 374 156 380 156 389 c 0
 156 421 229 496 324 545 c 0
 361 565 403 581 418 581 c 2
 420 581 l 2
 462 581 510 542 523 496 c 0
 541 434 552 199 552 12 c 0
 552 -240 540 -243 515 -243 c 0
 495 -243 471 -227 466 -205 c 0
 463 -190 443 -177 436 -169 c 0
 419 -152 387 -85 377 -85 c 0xd7f8
 362 -85 340 -240 310 -240 c 0
 283 -240 259 -125 239 -101 c 0
 233 -94 223 -90 213 -90 c 0
 196 -90 178 -99 172 -114 c 0
 153 -156 63 -194 4 -194 c 0
 -45 -194 -54 -166 -54 -157 c 0
 -54 -116 47 -0 83 14 c 0
 103 21 130 25 154 25 c 0xa7f8
 205 25 199 11 211 11 c 0
 234 11 270 56 302 56 c 0
 309 56 316 51 316 44 c 0
 316 23 276 -17 276 -42 c 0
 276 -55 294 -84 304 -84 c 0
 325 -84 320 -14 367 -14 c 0
 430 -14 466 -130 484 -130 c 0
 487 -130 489 -126 489 -91 c 0
 489 -64 488 -20 486 54 c 0
 477 449 476 451 460 485 c 0
 451 505 445 512 431 512 c 0
 397 512 316 479 316 467 c 0
 316 454 360 440 360 371 c 0
 360 314 321 219 307 198 c 0
 299 185 291 166 291 158 c 0
 291 143 237 95 220 95 c 0xcff8
 205 95 188 51 161 51 c 0
 140 51 92 87 92 141 c 0
 92 218 171 257 211 257 c 0
 234 257 245 242 258 242 c 0
 271 242 277 262 292 324 c 0
 298 349 301 364 301 375 c 0
 301 400 264 414 248 414 c 0
 236 414 228 410 228 400 c 0x97f8
245 200 m 0
 245 205 241 213 223 213 c 0
 196 213 155 196 155 178 c 0
 155 162 134 114 166 114 c 0
 190 114 233 140 233 159 c 0
 233 161 227 181 238 188 c 0
 243 191 245 196 245 200 c 0
134 -91 m 0
 134 -70 165 -69 165 -53 c 0
 165 -46 149 -41 129 -41 c 0xa7f8
 100 -41 86 -49 60 -82 c 0
 43 -104 35 -115 35 -120 c 0
 35 -126 48 -129 59 -129 c 0
 89 -129 134 -107 134 -91 c 0
EndSplineSet
EndChar
StartChar: uni0E10
Encoding: 111 3600 122
Width: 606
Flags: W
HStem: -232 63<58.8779 115.691> -173 68<245.022 286.848> -19 21G<380.5 405> 182 42<202.105 313.464> 306 44<237.195 321.088> 441 79<450.941 504.63> 500 54<346.932 430.427>
VStem: 25 59<-183.644 -134.708> 152 50<225.965 274.145> 209 136<410 494.5> 337 78<-150.782 -105.514> 357 72<-16.1292 179.71>
Back
217 -46 m 0
 256 -32 259 -46 226 -85 c 0
 210 -104 198 -127 198 -138 c 0
 198 -154 201 -154 222 -131 c 0
 246 -106 285 -96 285 -114 c 0
 285 -127 352 -192 359 -185 c 0
 362 -182 358 -172 349 -163 c 0
 336 -150 334 -137 340 -105 c 0
 346 -69 351 -63 373 -60 c 0
 396 -58 401 -62 410 -98 c 0
 422 -138 411 -194 387 -225 c 0
 369 -248 327 -237 294 -200 c 0
 266 -169 263 -167 252 -183 c 0
 213 -246 193 -250 161 -199 c 2
 144 -172 l 1
 126 -198 l 2
 102 -232 56 -243 38 -220 c 0
 14 -189 25 -114 57 -93 c 0
 63 -89 87 -86 110 -86 c 0
 135 -86 162 -79 177 -69 c 0
 192 -59 209 -49 217 -46 c 0
121 -146 m 0
 121 -129 93 -130 86 -148 c 0
 83 -155 83 -164 85 -167 c 0
 94 -175 121 -159 121 -146 c 0
492 560 m 0
 503 595 512 607 524 605 c 0
 547 601 549 574 530 508 c 0
 510 435 490 424 448 465 c 0
 432 480 407 495 389 498 c 0
 353 505 333 496 354 482 c 0
 382 462 399 412 414 309 c 0
 430 201 434 62 423 10 c 0
 419 -13 412 -19 394 -19 c 0
 367 -19 365 -11 357 104 c 0
 349 217 342 232 307 199 c 0
 295 187 275 182 240 182 c 0
 146 182 124 239 191 306 c 0
 233 348 282 361 322 341 c 0
 338 332 352 328 352 330 c 0
 352 333 347 356 341 383 c 0
 329 438 317 441 267 405 c 0
 237 383 233 382 220 395 c 0
 196 417 212 456 262 501 c 0
 330 562 405 571 460 525 c 0
 474 514 477 517 492 560 c 0
311 293 m 0
 288 309 286 309 264 300 c 0
 229 286 197 253 203 239 c 0
 216 206 332 231 332 267 c 0
 332 273 323 285 311 293 c 0
EndSplineSet
Fore
110 -86 m 0xb9a0
 182 -86 199 -41 240 -41 c 0
 246 -41 249 -43 249 -49 c 0
 249 -65 198 -110 198 -138 c 0
 198 -145 199 -149 201 -149 c 0
 209 -149 238 -105 273 -105 c 0
 280 -105 285 -108 285 -114 c 0
 285 -126 345 -186 357 -186 c 0x7990
 364 -186 358 -172 349 -163 c 0
 341 -155 337 -146 337 -133 c 0
 337 -125 338 -116 340 -105 c 0
 345 -74 348 -60 381 -60 c 0
 397 -60 402 -67 410 -98 c 0
 413 -109 415 -121 415 -134 c 0
 415 -167 404 -203 387 -225 c 0
 381 -233 371 -237 360 -237 c 0
 311 -237 278 -173 263 -173 c 0x79a0
 251 -173 230 -234 200 -234 c 0
 188 -234 176 -222 161 -199 c 2
 144 -172 l 1
 126 -198 l 2
 111 -220 86 -232 66 -232 c 0
 33 -232 25 -199 25 -172 c 0
 25 -141 37 -106 57 -93 c 0
 63 -89 87 -86 110 -86 c 0xb9a0
84 -160 m 0
 84 -166 85 -169 92 -169 c 0xb980
 103 -169 121 -157 121 -146 c 0
 121 -138 115 -134 107 -134 c 0
 95 -134 84 -143 84 -160 c 0
470 520 m 0x3dd0
 488 520 495 605 522 605 c 0
 530 605 543 600 543 575 c 0
 543 558 524 441 488 441 c 0x3dd0
 457 441 435 500 366 500 c 0
 353 500 345 497 345 492 c 0
 345 472 385 507 414 309 c 0
 424 242 429 163 429 101 c 0
 429 -15 416 -19 394 -19 c 0
 367 -19 365 -11 357 104 c 0
 351 183 346 214 332 214 c 0
 308 214 320 182 240 182 c 0
 183 182 152 203 152 235 c 0
 152 277 217 350 283 350 c 0
 317 350 337 329 351 329 c 0
 352 329 352 330 352 330 c 1
 352 333 347 356 341 383 c 0
 334 414 327 429 313 429 c 0
 290 429 250 387 234 387 c 0
 227 387 209 400 209 420 c 0
 209 462 296 554 382 554 c 0x3bd0
 437 554 462 520 470 520 c 0x3dd0
332 267 m 0
 332 281 296 306 284 306 c 0
 263 306 202 268 202 243 c 0
 202 235 212 224 241 224 c 0
 280 224 332 243 332 267 c 0
EndSplineSet
Substitution2: "Single Substitution lookup 8 subtable" uni0E10.descless
Substitution2: "Single Substitution lookup 7 subtable" uni0E10.descless
EndChar
StartChar: uni0E11
Encoding: 112 3601 123
Width: 772
Flags: W
HStem: 329 45<76.5339 124.373> 454 77<310.988 363.477> 471 38<115.69 150.958> 532 20G<608 616.5>
VStem: 43 58<379.569 435.395> 645 61<2.2876 202.746 202.746 453.877>
Back
573 533 m 0
 608 557 613 557 639 543 c 0
 678 522 695 449 701 275 c 0
 711 3 709 -13 665 2 c 0
 647 8 646 22 645 170 c 0
 644 341 635 440 619 466 c 0
 605 488 581 456 525 341 c 0
 484 258 469 211 436 58 c 0
 422 -6 396 -40 377 -19 c 0
 371 -13 362 94 357 218 c 0
 352 342 344 448 339 453 c 0
 329 463 298 421 270 360 c 0
 258 334 246 314 244 314 c 0
 223 314 206 331 206 353 c 0
 206 389 173 388 125 351 c 0
 81 316 64 321 49 373 c 0
 34 425 48 467 88 491 c 0
 136 520 171 515 207 473 c 2
 239 436 l 1
 272 474 l 2
 361 578 403 542 416 355 c 2
 423 254 l 1
 448 322 l 2
 481 415 536 508 573 533 c 0
153 438 m 0
 153 452 145 467 137 470 c 0
 126 474 119 464 110 432 c 0
 104 408 100 384 102 378 c 0
 108 359 153 412 153 438 c 0
EndSplineSet
Fore
43 412 m 0xdc
 43 485 116 509 142 509 c 0xbc
 165 509 186 497 207 473 c 2
 239 436 l 1
 272 474 l 2
 305 512 331 531 352 531 c 0
 388 531 408 474 416 355 c 2
 423 254 l 1
 448 322 l 2
 481 415 536 508 573 533 c 0
 593 547 603 552 613 552 c 0
 620 552 628 549 639 543 c 0
 678 522 695 449 701 275 c 0
 704 193 706 134 706 92 c 0
 706 17 700 -2 683 -2 c 0
 678 -2 672 -0 665 2 c 0
 647 8 646 22 645 170 c 0
 643 430 624 472 610 472 c 0
 595 472 570 434 525 341 c 0
 484 258 469 211 436 58 c 0
 425 7 406 -25 389 -25 c 0
 385 -25 381 -23 377 -19 c 0
 361 -3 352 440 339 453 c 0
 338 454 337 454 335 454 c 0
 308 454 252 314 244 314 c 0
 223 314 206 331 206 353 c 0
 206 371 198 379 184 379 c 0
 147 379 109 329 82 329 c 0
 51 329 43 401 43 412 c 0xdc
101 383 m 0
 101 378 103 374 107 374 c 0
 120 374 153 416 153 438 c 0
 153 451 145 471 133 471 c 0
 114 471 101 398 101 383 c 0
EndSplineSet
EndChar
StartChar: uni0E12
Encoding: 113 3602 124
Width: 730
Flags: W
HStem: -32 57<146.745 184.888> 180 34<159 219.823> 274 50<177.298 215.455 209.34 221.57> 415 76<174.268 219.179> 529 20G<412.5 425>
VStem: 62 47<75.2678 251.803> 378 59<56.3199 163.632> 604 80<396 478.265> 617 55<147 230 230 313 313 396>
Back
377 515 m 0
 392 534 410 549 415 549 c 0
 449 549 488 463 502 354 c 0
 506 330 511 293 513 273 c 0
 516 253 524 237 532 237 c 0
 539 237 562 216 581 192 c 2
 617 147 l 1
 611 313 l 1
 604 479 l 1
 628 486 l 2
 660 496 691 456 683 415 c 0
 680 400 675 299 672 192 c 0
 666 -23 665 -31 644 -31 c 0
 618 -31 600 -1 578 77 c 0
 558 144 545 169 527 170 c 0
 524 170 520 138 519 100 c 0
 518 62 512 17 506 0 c 0
 493 -36 467 -50 455 -25 c 0
 450 -16 440 -9 432 -9 c 0
 424 -9 415 3 411 16 c 0
 407 29 398 48 390 56 c 0
 367 82 376 129 417 194 c 0
 455 256 456 260 447 312 c 0
 426 436 422 454 413 454 c 0
 408 454 383 412 356 360 c 0
 329 307 303 259 297 251 c 0
 292 244 282 211 276 179 c 0
 256 67 246 37 221 3 c 0
 183 -47 146 -43 109 14 c 0
 41 116 48 302 124 424 c 0
 144 457 169 486 180 489 c 0
 206 499 245 465 270 412 c 0
 280 390 292 373 296 376 c 0
 300 379 313 403 325 431 c 0
 338 459 361 496 377 515 c 0
226 383 m 0
 215 401 200 415 193 415 c 0
 180 415 131 317 140 307 c 0
 142 304 155 308 167 315 c 0
 179 323 199 326 212 322 c 0
 245 313 252 343 226 383 c 0
216 230 m 0
 226 244 226 250 214 264 c 0
 201 279 198 278 178 253 c 0
 167 239 157 223 157 220 c 0
 157 207 205 216 216 230 c 0
227 161 m 0
 227 172 223 180 219 180 c 0
 200 176 114 148 111 144 c 0
 98 130 149 25 169 25 c 0
 180 25 226 134 227 161 c 0
461 99 m 0
 468 168 466 176 449 157 c 0
 435 141 432 52 445 42 c 0
 450 39 457 64 461 99 c 0
EndSplineSet
Fore
190 491 m 0xfe80
 246 491 280 376 295 376 c 0
 305 376 329 458 377 515 c 0
 392 534 410 549 415 549 c 0
 435 549 489 512 513 273 c 0
 516 253 524 237 532 237 c 0
 539 237 562 216 581 192 c 2
 617 147 l 1xfe80
 611 313 l 1
 604 479 l 1
 631.003 486.876 634.716 488 638 488 c 0
 663 488 684 460 684 428 c 0xff
 684 415 678 411 672 192 c 0
 666 -23 665 -31 644 -31 c 0
 581 -31 577 167 527 170 c 0
 519 170 522 44 506 0 c 0
 498 -24 483 -38 471 -38 c 0
 454 -38 454 -9 432 -9 c 0
 412 -9 410 36 390 56 c 0
 382 65 378 77 378 92 c 0
 378 161 452 223 452 274 c 0
 452 284 450 296 447 312 c 0
 426 436 422 454 413 454 c 0
 400 454 315 275 297 251 c 0
 272 215 274 75 221 3 c 0
 203 -20 186 -32 169 -32 c 0
 126 -32 62 56 62 195 c 0
 62 359.7 155.15 491 190 491 c 0xfe80
242 341 m 0
 242 368 208 415 193 415 c 0
 181 415 139 333 139 311 c 0
 139 294 170 324 199 324 c 0
 211 324 213 320 223 320 c 0
 235 320 242 328 242 341 c 0
170 214 m 0
 190 214 223 225 223 246 c 0
 223 256 208 274 201 274 c 0
 189 274 157 224 157 220 c 0
 157 216 163 214 170 214 c 0
227 161 m 0
 227 172 223 180 219 180 c 1
 200 176 114 148 111 144 c 0
 110 142 109 140 109 136 c 0
 109 108 151 25 169 25 c 0
 180 25 226 134 227 161 c 0
446 42 m 0
 457 42 465 131 465 150 c 0
 465 161 463 166 460 166 c 0
 451 166 437 146 437 88 c 0
 437 50 444 42 446 42 c 0
EndSplineSet
EndChar
StartChar: uni0E13
Encoding: 114 3603 125
Width: 779
Flags: W
HStem: -26 37<197.218 227.67> 28 93<462.313 520.686> 69 52<205.629 256.542> 479 63<295.895 377.564>
VStem: 105 55<99.6993 187.969 187.969 210 210 324.346> 240 55<33.7646 84.7188>
Back
259 517 m 0
 294 531 332 542 344 542 c 0
 426 545 480 431 495 219 c 0
 499 165 504 121 507 121 c 0
 511 121 578 177 608 206 c 0
 622 220 625 244 627 358 c 0
 629 468 633 495 645 504 c 0
 654 510 669 511 678 507 c 0
 694 500 695 488 690 382 c 0
 684 275 686 263 704 236 c 0
 735 192 743 125 725 66 c 0
 700 -18 667 -13 641 79 c 2
 623 142 l 1
 560 84 l 2
 457 -9 452 -3 433 241 c 0
 425 345 417 388 401 420 c 0
 389 445 375 467 370 471 c 0
 349 488 305 477 238 440 c 2
 168 400 l 1
 163 253 l 2
 160 172 159 102 161 97 c 0
 163 93 176 97 192 105 c 0
 253 140 304 113 293 54 c 0
 285 7 251 -26 214 -26 c 0
 128 -26 105 22 105 210 c 0
 105 335 104 340 86 335 c 0
 62 328 51 354 66 384 c 0
 82 416 188 490 259 517 c 0
240 60 m 0
 240 75 224 70 206 47 c 0
 193 33 191 23 199 15 c 0
 206 7 214 11 225 27 c 0
 233 41 240 55 240 60 c 0
EndSplineSet
Fore
93 336 m 0xbc
 88 336 84 334 78 334 c 0
 66 334 59 344 59 358 c 0
 59 366 61 375 66 384 c 0
 91 435 278 542 347 542 c 0
 506 542 493 121 507 121 c 0
 511 121 578 177 608 206 c 0
 643 241 612 479 645 504 c 0
 650 508 658 509 665 509 c 0
 690 509 693 493 693 460 c 0
 693 414 687 335 687 304 c 0
 687 266 692 254 704 236 c 0
 724 208 734 169 734 130 c 0
 734 75 710 6 686 6 c 0
 670 6 655 31 641 79 c 2
 623 142 l 1
 560 84 l 2
 522 49 497 28 480 28 c 0xdc
 422 28 450 321 401 420 c 0
 376 472 366 479 344 479 c 0
 320 479 284 466 238 440 c 2
 168 400 l 1
 163 253 l 2
 161 201 160 153 160 124 c 0
 160 101 159 95 165 95 c 0
 183 95 208 121 244 121 c 0
 274 121 295 101 295 69 c 0
 295 27 262 -26 214 -26 c 0
 128 -26 105 22 105 210 c 0
 105 317 104 336 93 336 c 0xbc
206 11 m 0
 220 11 240 52 240 60 c 0
 240 66 238 69 234 69 c 0xbc
 223 69 194 39 194 25 c 0
 194 18 202 11 206 11 c 0
EndSplineSet
EndChar
StartChar: uni0E14
Encoding: 115 3604 126
Width: 511
Flags: W
HStem: -30 46<109.907 158.903> 118 51<110.891 185.238> 226 42<147.226 176.5 161.863 196.415> 491 56<284.26 345.639>
VStem: 47 43<49.9931 117.454> 196 70<184.912 210.277 176.638 224.347> 386 61<4.28659 459.223>
Back
263 530 m 0
 307 554 351 553 382 527 c 0
 433 484 443 433 446 186 c 0
 448 32 447 12 432 4 c 0
 395 -19 390 5 386 226 c 0
 383 419 381 437 362 463 c 0
 321 520 266 489 195 370 c 0
 132 265 132 264 181 270 c 0
 272 281 294 175 227 44 c 0
 205 0 192 -13 162 -23 c 0
 111 -41 87 -28 61 32 c 0
 40 82 42 118 72 241 c 0
 94 331 204 499 263 530 c 0
198 217 m 0
 203 234 146 225 127 207 c 0
 105 185 103 169 122 169 c 0
 144 169 196 192 196 201 c 0
 196 207 196 213 198 217 c 0
218 132 m 0
 212 151 208 151 176 132 c 0
 163 124 139 118 121 118 c 0
 96 118 90 114 90 98 c 0
 90 67 117 16 133 16 c 0
 163 16 228 105 218 132 c 0
EndSplineSet
Fore
159 268 m 0
 173 268 180 271 194 271 c 0
 241 271 266 236 266 182 c 0
 266 143 253 96 227 44 c 0
 205 0 192 -13 162 -23 c 0
 148 -28 136 -30 126 -30 c 0
 98 -30 80 -12 61 32 c 0
 52 54 47 73 47 98 c 0
 47 130 55 172 72 241 c 0
 94 331 204 499 263 530 c 0
 284 542 305 547 325 547 c 0
 346 547 366 541 382 527 c 0
 432 485 447 441 447 99 c 0
 447 23 443 10 432 4 c 0
 425 -0 419 -3 414 -3 c 0
 393 -3 389 47 386 226 c 0
 383 419 381 437 362 463 c 0
 349 481 334 491 318 491 c 0
 284 491 243 450 195 370 c 0
 162 314 146 288 146 276 c 0
 146 270 150 268 159 268 c 0
183 226 m 0
 141 226 109 196 109 178 c 0
 109 172 113 169 122 169 c 0
 144 169 196 192 196 201 c 0
 196 217 198 215 198 219 c 0
 198 224 192 226 183 226 c 0
219 125 m 0
 219 133 214 146 207 146 c 0
 190 146 170 118 121 118 c 0
 96 118 90 114 90 98 c 0
 90 67 117 16 133 16 c 0
 161 16 219 93 219 125 c 0
EndSplineSet
EndChar
StartChar: uni0E15
Encoding: 116 3605 127
Width: 549
Flags: W
HStem: -1 54<119.514 189.989> 169 60<147.841 194.834> 203 36<189.809 225.804> 275 41<167.639 231.997> 454 63<173.923 212.168> 524 20G<433 445>
VStem: 59 34<95.0172 176.53> 82 30<58.8657 60 60 77.8557> 232 63<184.562 271.317> 445 66<66.566 297.517>
Back
418 537 m 0
 438 554 469 538 481 505 c 0
 513 420 523 25 495 13 c 0
 486 10 472 14 463 24 c 0
 451 38 447 75 445 233 c 0
 443 338 438 429 432 435 c 0
 427 441 416 433 405 416 c 0
 370 361 303 289 292 296 c 0
 279 305 278 296 292 269 c 0
 303 246 279 117 258 88 c 0
 216 28 182 -1 156 -1 c 0
 127 -1 82 36 82 60 c 0
 82 67 77 75 70 78 c 0
 61 81 58 112 59 190 c 0
 63 383 127 525 206 517 c 0
 232 514 242 503 273 445 c 0
 307 380 310 377 321 400 c 0
 338 434 400 522 418 537 c 0
237 385 m 2
 220 423 201 454 195 454 c 0
 168 454 112 288 134 274 c 0
 139 270 151 279 161 292 c 0
 175 311 189 316 223 316 c 2
 267 316 l 1
 237 385 l 2
232 253 m 0
 232 262 228 271 224 273 c 0
 212 280 177 269 169 256 c 0
 157 234 161 224 179 232 c 0
 189 237 204 240 214 239 c 0
 224 239 232 245 232 253 c 0
252 195 m 0
 252 208 242 206 194 183 c 0
 159 166 146 165 126 175 c 0
 96 190 84 178 100 151 c 0
 107 138 112 118 112 104 c 0
 112 75 129 53 153 53 c 0
 189 53 252 143 252 195 c 0
EndSplineSet
Fore
59 164 m 0x9ec0
 59 366 119 517 200 517 c 0
 230 517 243 502 273 445 c 0
 295 403 304 387 311 387 c 0
 314 387 317 392 321 400 c 0
 338 434 400 522 418 537 c 0
 424 542 430 544 436 544 c 0
 454 544 472 529 481 505 c 0
 500 454 511 293 511 168 c 0
 511 85 506 18 495 13 c 0
 493 12 491 12 489 12 c 0
 447 12 447 62 445 233 c 0
 442 378 438 437 428 437 c 0
 422 437 414 429 405 416 c 0
 372 364 309 296 294 296 c 0
 291 296 288 299 285 299 c 0
 283 299 282 298 282 296 c 0
 282 281 295 277 295 249 c 0
 295 204 275 112 258 88 c 0
 216 28 182 -1 156 -1 c 0
 127 -1 82 36 82 60 c 0x9dc0
 82 67 77 75 70 78 c 0
 62 81 59 105 59 164 c 0x9ec0
129 291 m 0
 129 276 134 273 137 273 c 0
 143 273 153 281 161 292 c 0
 175 311 189 316 223 316 c 2
 267 316 l 1
 237 385 l 2
 220 423 201 454 195 454 c 0
 172 454 129 336 129 291 c 0
169 229 m 0xdcc0
 177 229 188 239 210 239 c 2
 214 239 l 2xbcc0
 224 239 232 245 232 253 c 0
 232 264 228 275 214 275 c 0
 194 275 162 263 162 236 c 0
 162 232 164 229 169 229 c 0xdcc0
93 171 m 0xdec0
 93 157 112 139 112 104 c 0
 112 75 129 53 153 53 c 0
 189 53 252 143 252 195 c 0
 252 200 250 203 245 203 c 0xbdc0
 225 203 177 169 149 169 c 0
 133 169 118 182 104 182 c 0
 97 182 93 178 93 171 c 0xdec0
EndSplineSet
EndChar
StartChar: uni0E16
Encoding: 117 3606 128
Width: 538
Flags: W
HStem: -47 20<198.12 228.075> 34 81<229.186 294.497> 485 56<287.86 372.477>
VStem: 70 104<329.246 363.936 346.591 393.6> 120 54<69.0486 176.523 176.523 277.5> 241 66<11.3699 72.3801> 428 57<19.375 67.7231 43.5491 276.667>
Back
283 528 m 0
 335 546 374 546 399 527 c 0
 449 490 477 370 483 164 c 0
 488 29 486 13 472 7 c 0
 444 -4 425 18 428 61 c 0
 432 134 412 389 399 418 c 0
 393 433 379 456 370 468 c 0
 353 489 351 489 315 476 c 0
 293 468 251 447 220 429 c 0
 174 402 165 393 169 375 c 0
 172 364 174 289 174 210 c 2
 174 65 l 1
 219 90 l 2
 281 125 307 124 307 86 c 0
 307 19 263 -47 219 -47 c 0
 204 -47 177 -40 160 -31 c 0
 130 -16 128 -12 122 54 c 0
 119 93 119 169 123 226 c 2
 130 329 l 1
 100 329 l 2
 76 329 70 334 70 350 c 0
 70 396 190 496 283 528 c 0
241 30 m 0
 241 40 213 32 203 19 c 0
 190 2 196 -27 212 -27 c 0
 220 -27 241 14 241 30 c 0
EndSplineSet
Fore
350 541 m 0xf6
 431 541 485 448 485 67 c 0
 485 24 485 4 458 4 c 0
 440 4 428 22 428 52 c 0
 428 59 429 65 429 84 c 0
 429 177 411 392 399 418 c 0
 396 425 368 485 347 485 c 0
 322 485 244 443 220 429 c 0
 180 406 168 396 168 382 c 0
 168 376 174 368 174 210 c 2
 174 65 l 1
 219 90 l 2
 249 107 270 115 285 115 c 0
 300 115 307 106 307 86 c 0
 307 19 263 -47 219 -47 c 0
 204 -47 177 -40 160 -31 c 0
 134 -18 120 -18 120 127 c 0xee
 120 159 121 195 123 226 c 2
 130 329 l 1
 100 329 l 2
 76 329 70 334 70 350 c 0
 70 406 243 541 350 541 c 0xf6
234 34 m 0
 227 34 196 27 196 -3 c 0
 196 -16 202 -27 212 -27 c 0
 220 -27 241 14 241 30 c 0
 241 33 238 34 234 34 c 0
EndSplineSet
EndChar
StartChar: uni0E17
Encoding: 118 3607 129
Width: 617
Flags: W
HStem: 281 62<85.3276 123.81> 422 37<112.352 146.96> 469 66<447.518 491.526>
VStem: 29 55<318.605 379.363> 183 80<67.3613 150.863> 487 46<9.30905 41.2825> 503 48<270.263 468.207>
Back
413 496 m 0
 449 536 476 544 511 524 c 0
 552 501 557 464 547 235 c 0
 542 117 536 15 533 8 c 0
 531 1 519 -4 507 -2 c 0
 486 1 486 4 488 108 c 0
 490 167 495 247 500 288 c 0
 509 362 499 457 480 469 c 0
 470 475 394 399 394 383 c 0
 394 378 379 347 362 315 c 0
 344 282 322 234 312 209 c 0
 303 184 289 157 282 148 c 0
 275 140 267 111 263 82 c 0
 256 23 237 -7 213 -2 c 0
 190 2 177 94 185 192 c 0
 192 282 185 311 157 311 c 0
 144 311 132 304 129 296 c 0
 121 274 62 277 42 300 c 0
 18 327 29 371 70 416 c 0
 110 460 143 469 181 449 c 0
 214 430 231 378 234 286 c 0
 237 180 236 181 255 209 c 0
 264 224 274 237 277 240 c 0
 281 243 289 264 295 288 c 0
 310 344 370 448 413 496 c 0
153 406 m 0
 143 416 134 423 131 422 c 0
 113 419 103 408 103 391 c 0
 103 381 99 372 94 372 c 0
 88 372 84 365 84 356 c 0
 84 343 90 341 111 346 c 0
 125 350 145 354 155 354 c 0
 177 356 176 385 153 406 c 0
EndSplineSet
Fore
144 459 m 0xfa
 268 459 222 193 242 193 c 0
 246 193 268 231 277 240 c 1
 281 243 289 264 295 288 c 0
 310 344 370 448 413 496 c 0
 436 522 456 535 477 535 c 0
 488 535 499 531 511 524 c 0
 541 507 551 484 551 386 c 0xfa
 551 278 537 17 533 8 c 0
 531 2 522 -2 512 -2 c 0
 486 -2 487 15 487 50 c 0xfc
 487 203 503 292 503 347 c 0
 503 423 488 469 479 469 c 0
 464 469 394 398 394 383 c 0
 394 371 342 285 312 209 c 0
 286 137 274 159 263 82 c 0
 257 27 240 -3 218 -3 c 0
 189 -3 183 81 183 134 c 0
 183 190 188 201 188 246 c 0
 188 294 178 311 157 311 c 0
 119 311 142 281 94 281 c 0
 70 281 29 292 29 334 c 0
 29 381 93 459 144 459 c 0xfa
171 372 m 0
 171 396 137 422 132 422 c 0
 126 422 103 416 103 391 c 0
 103 381 99 372 94 372 c 0
 88 372 84 365 84 356 c 0
 84 347 87 343 95 343 c 0
 106 343 135 354 155 354 c 0
 166 355 171 362 171 372 c 0
EndSplineSet
EndChar
StartChar: uni0E18
Encoding: 119 3608 130
Width: 492
Flags: W
HStem: 483 61<269.023 330.672>
VStem: 81 360<429 617 429 429> 170 47<148.83 359.788> 291 54<155.069 375.625>
Back
393 628 m 0
 399 638 433 637 440 625 c 0
 443 620 441 604 436 588 c 0
 431 572 424 542 421 522 c 0
 417 501 406 474 396 461 c 2
 378 438 l 1
 348 461 l 2
 331 473 310 483 301 483 c 0
 286 483 286 480 304 460 c 0
 353 405 358 313 322 146 c 0
 277 -63 220 -76 184 117 c 0
 174 174 168 246 170 287 c 0
 173 351 175 357 195 360 c 0
 216 363 217 360 217 300 c 0
 217 237 246 90 258 90 c 0
 266 90 286 206 291 277 c 0
 292 305 287 353 279 385 c 0
 265 437 261 443 238 443 c 0
 223 443 203 437 192 429 c 0
 166 411 107 401 90 412 c 0
 62 430 103 490 166 522 c 0
 211 546 334 552 353 533 c 0
 360 526 367 537 376 571 c 0
 383 597 391 623 393 628 c 0
EndSplineSet
Fore
291 544 m 0x90
 351 544 352 531 357 531 c 0
 370 531 379 592 393 628 c 1
 396 633 404 635 413 635 c 0
 424 635 441 632 441 617 c 0xc0
 441 597 429 573 421 522 c 0
 417 501 406 474 396 461 c 2
 378 438 l 1
 348 461 l 2
 331 473 310 483 301 483 c 0
 294 483 290 482 290 479 c 0
 290 466 345 444 345 324 c 0
 345 242 302 -20 246 -20 c 0
 200 -20 170 162 170 270 c 0
 170 347 174 361 203 361 c 0
 216 361 217 351 217 300 c 0
 217 237 246 90 258 90 c 0
 266 90 291 234 291 285 c 0xb0
 291 313 286 356 279 385 c 0
 265 437 261 443 238 443 c 0
 194 443 181 407 113 407 c 0
 96 407 81 412 81 429 c 0xc0
 81 455 117 497 166 522 c 0
 193 536 248 544 291 544 c 0x90
EndSplineSet
EndChar
StartChar: uni0E19
Encoding: 120 3609 131
Width: 681
Flags: W
HStem: 46 73<528.741 564.742> 380 62<104.506 166.687> 498 65<150.325 201.43>
VStem: 55 75<421.031 470.465 462.311 478.619> 566 54<120.063 250.043>
Back
125 537 m 0
 170 569 186 570 235 545 c 0
 269 527 272 521 276 466 c 0
 299 171 309 89 319 93 c 0
 326 96 345 123 362 152 c 0
 379 181 413 228 437 255 c 2
 481 304 l 1
 488 416 l 2
 492 478 499 534 503 541 c 0
 507 549 523 553 536 551 c 0
 561 547 561 546 558 457 c 0
 554 367 554 366 586 337 c 0
 615 311 618 302 620 244 c 0
 621 177 605 92 586 69 c 0
 581 62 563 53 548 48 c 0
 509 38 493 65 493 136 c 0
 493 168 488 197 483 200 c 0
 477 204 450 174 423 133 c 0
 395 93 355 40 334 16 c 0
 302 -21 292 -26 276 -16 c 0
 262 -6 255 21 246 109 c 0
 239 171 233 261 232 309 c 0
 231 418 223 434 184 402 c 0
 152 376 98 372 69 394 c 0
 50 408 50 411 68 459 c 0
 81 493 100 519 125 537 c 0
204 479 m 0
 208 495 202 498 173 498 c 0
 149 498 137 494 137 483 c 0
 137 475 135 461 131 452 c 0
 127 439 132 439 162 449 c 0
 182 455 201 469 204 479 c 0
566 187 m 0
 566 281 550 301 541 217 c 0
 537 181 531 143 528 134 c 0
 524 124 530 119 545 119 c 0
 564 119 567 125 566 187 c 0
EndSplineSet
Fore
118 380 m 0
 79 380 55 400 55 414 c 0
 55 422 72 499 125 537 c 0
 149 554 165 563 182 563 c 0
 197 563 212 557 235 545 c 0
 269 527 272 521 276 466 c 0
 298 178 309 93 318 93 c 0
 333 93 369 178 437 255 c 2
 481 304 l 1
 488 416 l 2
 492 478 499 534 503 541 c 0
 506 548 518 552 529 552 c 0
 558 552 559 539 559 510 c 0
 559 478 556 424 556 403 c 0
 556 365 562 358 586 337 c 0
 613 313 620 302 620 238 c 0
 620 172 604 91 586 69 c 0
 580 61 552 46 534 46 c 0
 505 46 493 74 493 136 c 0
 493 163 488 200 482 200 c 0
 457 200 330 -21 289 -21 c 0
 263 -21 255 17 246 109 c 0
 222 325 242 417 211 417 c 0
 191 417 176 380 118 380 c 0
135 442 m 0
 141 442 205 457 205 486 c 0
 205 496 197 498 173 498 c 0
 149 498 137 494 137 483 c 0
 137 462 130 453 130 446 c 0
 130 443 131 442 135 442 c 0
566 187 m 2
 566 241 561 270 555 270 c 0
 542 270 537 162 528 134 c 0
 527 132 527 130 527 129 c 0
 527 122 533 119 545 119 c 0
 562 119 566 124 566 169 c 2
 566 187 l 2
EndSplineSet
EndChar
StartChar: uni0E1A
Encoding: 121 3610 132
Width: 624
Flags: W
HStem: -16 67<330.547 404.463> 343 51<110.772 139.293> 491 55<147.192 217.051>
VStem: 51 59<394.619 451.798> 247 58<141.757 284 284 356 356 383.388> 509 61<172.887 452.647>
Back
496 539 m 0
 541 587 563 543 569 388 c 0
 575 240 562 177 508 92 c 0
 465 23 422 -6 351 -14 c 0
 317 -18 308 -15 296 6 c 0
 268 55 253 142 247 284 c 2
 241 428 l 1
 212 390 l 2
 179 348 135 334 85 349 c 0
 61 356 54 364 51 391 c 0
 47 435 71 473 128 514 c 0
 173 546 227 556 239 535 c 0
 242 529 253 524 263 524 c 0
 278 524 284 510 294 449 c 0
 300 408 305 351 305 324 c 0
 305 258 335 67 348 54 c 0
 360 40 417 73 458 118 c 0
 481 143 493 169 501 217 c 0
 515 295 509 465 492 483 c 0
 475 501 476 519 496 539 c 0
213 475 m 0
 194 500 169 495 139 461 c 0
 114 434 101 394 117 394 c 0
 123 394 176 429 182 438 c 0
 185 441 196 448 207 452 c 0
 222 458 223 462 213 475 c 0
EndSplineSet
Fore
480 508 m 0
 480 530 511 557 526 557 c 0
 561 557 570 440 570 328 c 0
 570 221 554 165 508 92 c 0
 492 67 443 -16 330 -16 c 0
 313 -16 305 -10 296 6 c 0
 268 55 253 142 247 284 c 2
 241 428 l 1
 212 390 l 2
 188 359 157 343 123 343 c 0
 111 343 98 345 85 349 c 0
 70 353 51 358 51 400 c 0
 51 476 157 546 212 546 c 0
 247 546 232 524 263 524 c 0
 278 524 284 510 294 449 c 0
 300 408 305 351 305 324 c 0
 305 258 335 67 348 54 c 0
 350 52 353 51 357 51 c 0
 378 51 423 80 458 118 c 0
 484 146 509 185 509 333 c 0
 509 403 502 472 492 483 c 0
 484 491 480 500 480 508 c 0
220 462 m 0
 220 468 206 491 186 491 c 0
 153 491 110 430 110 404 c 0
 110 398 112 394 117 394 c 0
 123 394 176 429 182 438 c 1
 194 450 220 453 220 462 c 0
EndSplineSet
EndChar
StartChar: uni0E1B
Encoding: 122 3611 133
Width: 594
Flags: W
HStem: -12 71<302.765 362.907> 408 58<136.091 201.738> 513 44<170.353 194.352>
VStem: 82 54<467.135 505.328> 231 50<186.322 201.125 201.125 383.101> 468 51<818.16 883> 476 50<176.254 720.917>
AnchorPoint: "AboveBase" 448 560 basechar 0
Back
472 895 m 0
 487 919 513 913 519 883 c 0
 526 842 528 337 522 263 c 0
 513 169 503 143 458 87 c 0
 359 -37 281 -44 242 66 c 0
 230 100 229 128 234 208 c 0
 237 263 237 336 234 370 c 0
 228 420 225 430 213 423 c 0
 205 418 183 412 163 409 c 0
 135 405 123 410 102 434 c 0
 68 473 75 493 136 532 c 0
 178 560 190 562 215 551 c 0
 273 525 277 506 281 293 c 0
 283 187 289 92 294 80 c 0
 298 68 312 59 324 59 c 0
 345 59 428 129 449 163 c 0
 473 204 481 373 472 629 c 0
 466 797 466 884 472 895 c 0
194 504 m 0
 179 516 178 516 152 502 c 0
 125 488 135 466 168 466 c 0
 197 466 212 488 194 504 c 0
EndSplineSet
Fore
468 821 m 0xfc
 468 875 466 910 494 910 c 0
 505 910 516 900 519 883 c 0xfc
 523 859 526 671 526 506 c 0
 526 207 525 170 458 87 c 0
 406 21 359 -12 321 -12 c 0
 274 -12 231 47 231 139 c 0
 231 186 236 202 236 297 c 0
 236 343 234 425 219 425 c 0
 218 425 181 408 148 408 c 0
 111 408 82 456 82 473 c 0
 82 492 99 508 136 532 c 0
 163 550 178 557 191 557 c 0
 199 557 206 555 215 551 c 0
 273 525 277 506 281 293 c 0
 283 187 289 92 294 80 c 0
 298 68 312 59 324 59 c 0
 345 59 428 129 449 163 c 0
 467 193 476 292 476 443 c 0xfa
 476 594 468 708 468 821 c 0xfc
202 489 m 0
 202 501 185 513 178 513 c 0
 172 513 136 499 136 484 c 0
 136 474 148 466 168 466 c 0
 188 466 202 477 202 489 c 0
EndSplineSet
EndChar
